<svg width="24" height="24" viewBox="0 0 24 24" fill="none" xmlns="http://www.w3.org/2000/svg"><g clip-path="url(#clip0_368_618)"><path d="M23.39 13.508a3.87 3.87 0 01-4.235-2.645.763.763 0 00-.578-.524 6.193 6.193 0 01-3.99-9.511.388.388 0 00-.25-.6A12.02 12.02 0 0012 0C5.373 0 0 5.373 0 12s5.373 12 12 12c5.973 0 10.912-4.348 11.84-10.06.043-.259-.19-.47-.45-.432z" fill="#F5B97D"/><path d="M6.58 9.678a1.548 1.548 0 100-3.096 1.548 1.548 0 000 3.096zm.776 7.355a1.161 1.161 0 100-2.323 1.161 1.161 0 000 2.323z" fill="#CD916E"/><path d="M18.969 15.871a.387.387 0 01-.347-.214l-.387-.774a.387.387 0 11.693-.346l.387.774a.387.387 0 01-.346.56z" fill="#A06E50"/><path d="M14.71 13.549a.387.387 0 01-.173-.734l.774-.387a.388.388 0 01.347.693l-.774.387a.387.387 0 01-.173.04zm-10.452-.775a.387.387 0 01-.347-.214l-.387-.774a.387.387 0 11.693-.346l.387.774a.387.387 0 01-.346.56zm5.032 6.969a.387.387 0 01-.173-.734l.775-.387a.388.388 0 01.346.693l-.774.387a.388.388 0 01-.173.04zm.774-15.097a.386.386 0 01-.273-.114l-.388-.387a.387.387 0 11.548-.547l.387.387a.387.387 0 01-.274.66z" fill="#B67F5F"/><path d="M9.29 13.547a.386.386 0 01-.274-.113l-.387-.387a.387.387 0 11.547-.548l.387.387a.387.387 0 01-.273.661zm4.258 8.129a.387.387 0 01-.387-.387v-.387a.387.387 0 11.774 0v.387a.387.387 0 01-.387.387zM11.226 6.967a.386.386 0 01-.274-.66l.387-.387a.387.387 0 11.548.547l-.387.387a.386.386 0 01-.274.113z" fill="#A06E50"/><path d="M16.985 3.137l-.11.666a1.161 1.161 0 00.737 1.279l.983.368a1.161 1.161 0 001.535-.805l.35-1.402a1.161 1.161 0 00-1.46-1.394l-1.223.367a1.161 1.161 0 00-.812.92zm3.918 4.217l-.467.234a.774.774 0 00-.365.997l.376.878a.774.774 0 001.306.19l.605-.725a.774.774 0 00-.13-1.115l-.514-.386a.774.774 0 00-.81-.073zm2.322-1.549a.774.774 0 100-1.548.774.774 0 000 1.548z" fill="#F5B97D"/><path d="M13.452 22.55c-6.628 0-12-5.373-12-12 0-2.945 1.06-5.641 2.82-7.73A11.974 11.974 0 000 12c0 6.628 5.373 12 12 12a11.96 11.96 0 009.176-4.264 11.946 11.946 0 01-7.724 2.813zm5.315-17.997a1.45 1.45 0 01-.922-1.597l.132-.794-.18.054a1.161 1.161 0 00-.813.922l-.11.666a1.161 1.161 0 00.737 1.279l.983.368a1.161 1.161 0 001.376-.444l-1.203-.454zm4.893.817a.774.774 0 01-.72-1.058.774.774 0 101.005 1.005.776.776 0 01-.284.054zm-2.387 3.595l-.426-.994a.87.87 0 01-.039-.569l-.372.187a.774.774 0 00-.365.997l.376.878a.774.774 0 001.306.19l.15-.18a.864.864 0 01-.63-.51z" fill="#E3AA75"/><path d="M7.403 8.855a1.548 1.548 0 01-1.426-2.152 1.549 1.549 0 102.03 2.03c-.186.078-.39.122-.604.122zm.555 7.572a1.161 1.161 0 01-1.065-1.621 1.16 1.16 0 101.526 1.526 1.156 1.156 0 01-.46.095z" fill="#B67F5F"/><path d="M14.71 18.581a1.548 1.548 0 100-3.096 1.548 1.548 0 000 3.096z" fill="#CD916E"/><path d="M15.532 17.758a1.548 1.548 0 01-1.426-2.152 1.549 1.549 0 102.03 2.03c-.186.078-.39.122-.604.122z" fill="#B67F5F"/><path d="M11.598 10.839a.774.774 0 100-1.548.774.774 0 000 1.548z" fill="#CD916E"/><path d="M12.009 10.428a.774.774 0 01-.713-1.076.774.774 0 101.014 1.014.771.771 0 01-.301.062z" fill="#B67F5F"/></g><defs><clipPath id="clip0_368_618"><path fill="#fff" d="M0 0h24v24H0z"/></clipPath></defs></svg>