<svg width="20" height="20" viewBox="0 0 20 20" fill="none" xmlns="http://www.w3.org/2000/svg"><g clip-path="url(#clip0_101_11895)"><path d="M15.104 11.89a2.524 2.524 0 00-2.521 2.522c0 1.39 1.13 2.52 2.521 2.52 1.39 0 2.521-1.13 2.521-2.52 0-1.39-1.13-2.521-2.521-2.521zm0 3.782a1.261 1.261 0 010-2.52 1.261 1.261 0 010 2.52z" fill="url(#paint0_linear_101_11895)"/><path d="M6.49 11.89a2.524 2.524 0 00-2.521 2.522c0 1.39 1.13 2.52 2.52 2.52 1.39 0 2.522-1.13 2.522-2.52a2.524 2.524 0 00-2.521-2.521zm0 3.782a1.261 1.261 0 010-2.52 1.261 1.261 0 010 2.52z" fill="url(#paint1_linear_101_11895)"/><path d="M16.8 4.675a.63.63 0 00-.563-.347h-3.319v1.26h2.93l1.717 3.414 1.126-.567-1.89-3.76z" fill="url(#paint2_linear_101_11895)"/><path d="M13.214 13.803H8.445v1.26h4.77v-1.26z" fill="url(#paint3_linear_101_11895)"/><path d="M4.601 13.803H2.416a.63.63 0 100 1.26h2.185a.63.63 0 100-1.26z" fill="url(#paint4_linear_101_11895)"/><path d="M19.868 9.95l-1.24-1.597a.63.63 0 00-.497-.244h-4.58V3.697a.63.63 0 00-.63-.63H2.416a.63.63 0 100 1.26h9.874V8.74c0 .348.283.63.63.63h4.902l.918 1.183v3.25h-1.744a.63.63 0 100 1.26h2.374a.63.63 0 00.63-.63v-4.096a.63.63 0 00-.132-.387z" fill="url(#paint5_linear_101_11895)"/><path d="M4.56 10.61H1.662a.63.63 0 100 1.26h2.9a.63.63 0 100-1.26z" fill="url(#paint6_linear_101_11895)"/><path d="M6.008 8.13H.63a.63.63 0 100 1.26h5.378a.63.63 0 100-1.26z" fill="url(#paint7_linear_101_11895)"/><path d="M7.04 5.651H1.66a.63.63 0 100 1.26h5.38a.63.63 0 100-1.26z" fill="url(#paint8_linear_101_11895)"/></g><defs><linearGradient id="paint0_linear_101_11895" x1="12.583" y1="14.447" x2="17.625" y2="14.447" gradientUnits="userSpaceOnUse"><stop stop-color="#21A5B5"/><stop offset="1" stop-color="#71B2B4"/></linearGradient><linearGradient id="paint1_linear_101_11895" x1="3.969" y1="14.447" x2="9.011" y2="14.447" gradientUnits="userSpaceOnUse"><stop stop-color="#21A5B5"/><stop offset="1" stop-color="#71B2B4"/></linearGradient><linearGradient id="paint2_linear_101_11895" x1="12.918" y1="6.698" x2="18.691" y2="6.698" gradientUnits="userSpaceOnUse"><stop stop-color="#21A5B5"/><stop offset="1" stop-color="#71B2B4"/></linearGradient><linearGradient id="paint3_linear_101_11895" x1="8.445" y1="14.442" x2="13.214" y2="14.442" gradientUnits="userSpaceOnUse"><stop stop-color="#21A5B5"/><stop offset="1" stop-color="#71B2B4"/></linearGradient><linearGradient id="paint4_linear_101_11895" x1="1.786" y1="14.442" x2="5.231" y2="14.442" gradientUnits="userSpaceOnUse"><stop stop-color="#21A5B5"/><stop offset="1" stop-color="#71B2B4"/></linearGradient><linearGradient id="paint5_linear_101_11895" x1="1.786" y1="9.149" x2="20" y2="9.149" gradientUnits="userSpaceOnUse"><stop stop-color="#21A5B5"/><stop offset="1" stop-color="#71B2B4"/></linearGradient><linearGradient id="paint6_linear_101_11895" x1="1.031" y1="11.248" x2="5.191" y2="11.248" gradientUnits="userSpaceOnUse"><stop stop-color="#21A5B5"/><stop offset="1" stop-color="#71B2B4"/></linearGradient><linearGradient id="paint7_linear_101_11895" x1="0" y1="8.77" x2="6.639" y2="8.77" gradientUnits="userSpaceOnUse"><stop stop-color="#21A5B5"/><stop offset="1" stop-color="#71B2B4"/></linearGradient><linearGradient id="paint8_linear_101_11895" x1="1.031" y1="6.29" x2="7.67" y2="6.29" gradientUnits="userSpaceOnUse"><stop stop-color="#21A5B5"/><stop offset="1" stop-color="#71B2B4"/></linearGradient><clipPath id="clip0_101_11895"><path fill="#fff" d="M0 0h20v20H0z"/></clipPath></defs></svg>