<svg width="20" height="20" viewBox="0 0 20 20" fill="none" xmlns="http://www.w3.org/2000/svg"><g clip-path="url(#clip0_101_11923)"><path d="M16.903 8.16h-.795a1.843 1.843 0 00-1.715-2.51 1.829 1.829 0 00-1.255.495 1.834 1.834 0 00-1.255-.496 1.843 1.843 0 00-1.715 2.51h-.796a.586.586 0 00-.586.586v2.51c0 .324.262.587.586.587h.042v1.924c0 .324.262.586.586.586h6.276a.586.586 0 00.586-.586v-1.924h.041a.586.586 0 00.586-.586v-2.51a.586.586 0 00-.586-.587zm-4.351 5.02h-1.966v-1.338h1.966v1.338zm0-2.51H9.958V9.33h2.594v1.339zm0-2.51h-.67a.67.67 0 11.67-.67v.67zm1.172-.67a.67.67 0 11.669.67h-.67v-.67zm1.966 5.69h-1.966v-1.338h1.966v1.338zm.627-2.51h-2.593V9.33h2.593v1.339z" fill="url(#paint0_linear_101_11923)"/><path d="M17.531 3.138H2.47A2.472 2.472 0 000 5.607v8.786a2.472 2.472 0 002.469 2.47H17.53A2.472 2.472 0 0020 14.392V5.607a2.472 2.472 0 00-2.469-2.469zm1.297 11.255c0 .715-.582 1.297-1.297 1.297H2.47a1.298 1.298 0 01-1.297-1.297V5.607c0-.715.582-1.297 1.297-1.297h15.06c.715 0 1.297.582 1.297 1.297v8.786z" fill="url(#paint1_linear_101_11923)"/><path d="M4.98 13.18H3.098a.586.586 0 100 1.172H4.98a.586.586 0 000-1.172z" fill="url(#paint2_linear_101_11923)"/><path d="M3.098 6.82H4.98a.586.586 0 000-1.171H3.098a.586.586 0 000 1.172z" fill="url(#paint3_linear_101_11923)"/><path d="M6.863 10.67H3.098a.586.586 0 000 1.172h3.765a.586.586 0 100-1.172z" fill="url(#paint4_linear_101_11923)"/></g><defs><linearGradient id="paint0_linear_101_11923" x1="8.786" y1="10.062" x2="17.489" y2="10.062" gradientUnits="userSpaceOnUse"><stop stop-color="#21A5B5"/><stop offset="1" stop-color="#71B2B4"/></linearGradient><linearGradient id="paint1_linear_101_11923" x1="0" y1="10.097" x2="20" y2="10.097" gradientUnits="userSpaceOnUse"><stop stop-color="#21A5B5"/><stop offset="1" stop-color="#71B2B4"/></linearGradient><linearGradient id="paint2_linear_101_11923" x1="2.512" y1="13.774" x2="5.566" y2="13.774" gradientUnits="userSpaceOnUse"><stop stop-color="#21A5B5"/><stop offset="1" stop-color="#71B2B4"/></linearGradient><linearGradient id="paint3_linear_101_11923" x1="2.512" y1="6.243" x2="5.566" y2="6.243" gradientUnits="userSpaceOnUse"><stop stop-color="#21A5B5"/><stop offset="1" stop-color="#71B2B4"/></linearGradient><linearGradient id="paint4_linear_101_11923" x1="2.512" y1="11.264" x2="7.449" y2="11.264" gradientUnits="userSpaceOnUse"><stop stop-color="#21A5B5"/><stop offset="1" stop-color="#71B2B4"/></linearGradient><clipPath id="clip0_101_11923"><path fill="#fff" d="M0 0h20v20H0z"/></clipPath></defs></svg>