<svg width="16" height="17" viewBox="0 0 16 17" fill="none" xmlns="http://www.w3.org/2000/svg"><path d="M9.243 5.99H6.756c-1.03 0-2.58-.87-3.151-1.446a2.094 2.094 0 010-2.943c.784-.788 2.15-.788 2.934 0 .433.436 1.583 2.207 1.425 3.389h.07c-.157-1.182.993-2.953 1.427-3.39.782-.787 2.148-.79 2.933 0a2.09 2.09 0 010 2.943c-.572.576-2.121 1.448-3.151 1.448zm0-1c.69 0 2.01-.717 2.44-1.151.42-.422.42-1.11 0-1.532a1.09 1.09 0 00-1.514 0c-.674.678-1.344 2.41-1.111 2.65 0 0 .043.034.185.034zm-4.17-3c-.286 0-.555.113-.758.317a1.09 1.09 0 000 1.532c.43.434 1.75 1.152 2.44 1.152.144 0 .186-.032.186-.032.233-.243-.437-1.975-1.111-2.652a1.061 1.061 0 00-.757-.316z" fill="#F44336"/><path d="M1 7.99v7a1 1 0 001 1h12a1 1 0 001-1v-7H1z" fill="#FFC107"/><path d="M15 4.99H1c-.551 0-1 .45-1 1v2.5a.5.5 0 00.5.5h15a.5.5 0 00.5-.5v-2.5a1 1 0 00-1-1z" fill="#FFD54F"/><path d="M9 4.99H7v11h2v-11z" fill="#F44336"/></svg>