<svg width="22" height="22" viewBox="0 0 22 22" fill="none" xmlns="http://www.w3.org/2000/svg"><path fill-rule="evenodd" clip-rule="evenodd" d="M.304 6.256a.402.402 0 01.488.29l.54 2.14c.102-.012.22-.022.348-.03.39-.026.918-.03 1.342.087.541.15 1 .44 1.411.726.114.079.222.157.327.233.293.21.563.404.86.567a.395.395 0 01.156.54.404.404 0 01-.546.155 9.5 9.5 0 01-.975-.643l-.285-.203c-.395-.275-.762-.497-1.165-.61-.285-.078-.698-.083-1.073-.06a7.23 7.23 0 00-.202.017l2.207 8.734a2.607 2.607 0 002.534 1.957h9.358a2.607 2.607 0 002.534-1.957l1.954-7.732a5.06 5.06 0 00-.467-.415c-.381-.298-.807-.529-1.165-.529-.4 0-.954.208-1.453.455a9.087 9.087 0 00-.822.463l-.011.008-.003.001a.405.405 0 01-.557-.11.395.395 0 01.111-.551l.223.33-.223-.33.002-.001.004-.003.015-.01a6.45 6.45 0 01.247-.151c.163-.097.392-.227.654-.357.506-.25 1.208-.538 1.813-.538.646 0 1.258.383 1.663.699.068.053.132.105.192.157l.769-3.04a.402.402 0 01.78.193l-2.946 11.654a3.409 3.409 0 01-3.314 2.559H6.271a3.409 3.409 0 01-3.314-2.56L.012 6.739a.397.397 0 01.292-.482z" fill="#2C2C2C"/><path fill-rule="evenodd" clip-rule="evenodd" d="M13.978 2.02a4.61 4.61 0 00-2.947.148l-.076.03a4.81 4.81 0 00-1.43.88L6.088 6.139a.525.525 0 00.06.833l.282.185 1.95-1.285a5.551 5.551 0 011.978-.81 4.73 4.73 0 002.409-1.276l.412-.407a.405.405 0 01.568 0 .394.394 0 010 .562l-.412.407a5.537 5.537 0 01-2.82 1.493 4.743 4.743 0 00-1.69.693L6.99 7.744c.175.371.177.811-.017 1.194l-1.567 3.1a.76.76 0 00.346 1.028l.03.015 3.322-5.163a.404.404 0 01.555-.122.395.395 0 01.123.55L6.31 13.741c-.097.728.638 1.308 1.343 1.03l2.944-5.34a.404.404 0 01.546-.159.395.395 0 01.16.54L8.448 14.99c.623.408 1.484.28 1.952-.337l.207-.272 1.993-3.943c.1-.196.34-.276.539-.178a.395.395 0 01.18.534l-1.908 3.774a.837.837 0 001.355-.1l2.676-4.411a7.717 7.717 0 00.932-2.31l.394-1.758a3.222 3.222 0 00-.39-2.38 3.284 3.284 0 00-1.916-1.453l-.484-.137zm-3.027 13.224c.725.655 1.95.548 2.504-.367l2.676-4.411a8.51 8.51 0 001.027-2.547l.395-1.758a4.01 4.01 0 00-.486-2.96 4.087 4.087 0 00-2.384-1.81l-.484-.136a5.42 5.42 0 00-3.467.175l-.076.03a5.616 5.616 0 00-1.668 1.027L5.55 5.548a1.315 1.315 0 00.153 2.085l.467.308c.158.175.193.43.086.641l-1.568 3.101a1.558 1.558 0 00.706 2.094l.104.052c-.032 1.198 1.169 2.112 2.356 1.716a2.268 2.268 0 003.098-.301z" fill="#2C2C2C"/><path fill-rule="evenodd" clip-rule="evenodd" d="M10.764 1.383a5.47 5.47 0 013.498-.177l.484.137c1.01.285 1.873.94 2.414 1.831.546.9.721 1.973.491 2.997l-.395 1.758c-.091.409-.213.81-.364 1.201.485-.225 1.1-.452 1.643-.452.664 0 1.287.393 1.694.71.046.036.09.071.133.107l.748-2.963a.452.452 0 01.876.218l-2.945 11.653A3.459 3.459 0 0115.679 21H6.321a3.459 3.459 0 01-3.362-2.597L.014 6.75a.452.452 0 01.876-.217l.53 2.098c.092-.01.196-.019.307-.026.39-.025.926-.03 1.358.09.55.153 1.015.445 1.426.732.114.08.223.158.328.234.221.158.428.307.642.44l.779-1.542a.523.523 0 00-.074-.581l-.461-.304a1.364 1.364 0 01-.159-2.163l3.439-3.062a5.664 5.664 0 011.683-1.036l.076-.03zM5.436 10.19c-.22-.135-.432-.287-.654-.447a17.968 17.968 0 00-.328-.233c-.409-.286-.863-.57-1.395-.718-.416-.116-.937-.112-1.326-.087a8.168 8.168 0 00-.345.03l-.043.005-.552-2.182a.352.352 0 00-.683.168L3.056 18.38A3.36 3.36 0 006.32 20.9h9.358a3.36 3.36 0 003.266-2.521L21.89 6.725a.352.352 0 00-.683-.168l-.788 3.117-.061-.052a5.596 5.596 0 00-.19-.156c-.404-.315-1.005-.689-1.633-.689-.557 0-1.202.25-1.697.488-.151.374-.33.738-.533 1.088a9.22 9.22 0 01.755-.42c.5-.247 1.062-.46 1.475-.46.375 0 .813.24 1.196.539.183.143.338.286.447.394l.025.025.02.02-1.962 7.76a2.656 2.656 0 01-2.582 1.994H6.321a2.657 2.657 0 01-2.582-1.994L1.517 9.42l.058-.006.204-.016c.376-.024.796-.02 1.089.062.411.114.784.34 1.18.617.093.064.188.133.286.203.248.18.512.369.786.534l.316-.624zm-.23.676l.315-.624.124.07c.17.094.232.305.138.473a.354.354 0 01-.479.136 5.625 5.625 0 01-.098-.055zm-.045.089l.095.053c.218.12.493.042.614-.174a.445.445 0 00-.177-.609 4.49 4.49 0 01-.127-.072l.783-1.548a.622.622 0 00-.093-.697l.001-.001-.478-.315a1.265 1.265 0 01-.147-2.006l3.44-3.062a5.566 5.566 0 011.652-1.017l.076-.03a5.371 5.371 0 013.435-.174l.484.136a4.037 4.037 0 012.356 1.788 3.96 3.96 0 01.48 2.924l-.396 1.757a8.445 8.445 0 01-.398 1.285 9.135 9.135 0 00-.719.388 8.898 8.898 0 00-.248.153l-.015.01-.004.002-.002.002a.452.452 0 00-.088.075c.36-.648.625-1.343.787-2.066L16.867 6a3.272 3.272 0 00-.396-2.416 3.334 3.334 0 00-1.946-1.476l-.483-.137a4.659 4.659 0 00-2.98.151l-.076.03a4.86 4.86 0 00-1.443.889L6.103 6.1a.575.575 0 00.067.911l.31.204 1.975-1.303a5.502 5.502 0 011.961-.804 4.78 4.78 0 002.435-1.288l.411-.407a.355.355 0 01.498 0 .345.345 0 010 .491l-.411.407a5.487 5.487 0 01-2.794 1.48c-.61.12-1.19.358-1.709.7l-1.87 1.233.018.039c.17.358.171.782-.015 1.15L5.41 12.016a.812.812 0 00.37 1.095l.07.035 3.345-5.2a.355.355 0 01.486-.107.345.345 0 01.108.48l-3.478 5.406-.002.011c-.102.766.671 1.374 1.41 1.082l.018-.006 2.953-5.356a.354.354 0 01.478-.139c.17.092.233.304.14.472l-2.877 5.218.038.025c.645.421 1.536.29 2.02-.348l.206-.273 1.998-3.95a.354.354 0 01.473-.156.346.346 0 01.157.466L11.4 14.575l.021.025a.887.887 0 001.436-.106l2.676-4.411c.02-.033.04-.065.058-.098a.442.442 0 00.055.383c.095.14.256.21.415.197l-2.6 4.287c-.537.886-1.725.99-2.427.355l-.038-.034-.034.038a2.218 2.218 0 01-3.03.295l-.02-.016-.026.008c-1.155.385-2.322-.504-2.29-1.667v-.032l-.132-.066a1.51 1.51 0 01-.845-1.352c0-.234.055-.465.162-.675l.38-.751zm-.086-.05c-.28-.17-.549-.363-.798-.542h-.001c-.098-.071-.193-.14-.285-.204-.394-.275-.755-.492-1.15-.602-.276-.077-.681-.082-1.056-.058l-.143.01 2.193 8.678a2.557 2.557 0 002.486 1.92h9.358c1.176 0 2.2-.792 2.486-1.92l1.947-7.705-.004-.004a5.023 5.023 0 00-.438-.387c-.38-.297-.795-.518-1.136-.518-.387 0-.931.203-1.43.45a8.984 8.984 0 00-.817.46m0 0l-.011.008-.002.001m-11.199.412l-.382.757a1.6 1.6 0 00.728 2.161l.076.038c-.012 1.208 1.195 2.123 2.396 1.741a2.32 2.32 0 003.113-.287c.75.638 1.98.516 2.541-.41l2.74-4.42m-.155-.033l.006-.01a8.43 8.43 0 00.565-1.108 9.907 9.907 0 00-.833.47l.194.29-.082.055-.194-.287a.345.345 0 00-.058.452c.09.132.255.185.402.138zm-2.118-8.384a4.56 4.56 0 00-2.915.148l-.076.03c-.52.205-.998.5-1.414.87l-3.44 3.062a.475.475 0 00.056.753l.254.168L8.401 5.83a5.601 5.601 0 011.996-.818 4.68 4.68 0 002.384-1.262l.411-.407a.455.455 0 01.639 0 .444.444 0 010 .633l-.412.407a5.587 5.587 0 01-2.845 1.506 4.693 4.693 0 00-1.673.685L7.102 7.761c.164.377.16.816-.034 1.199L5.5 12.06a.71.71 0 00.315.956l3.297-5.125a.454.454 0 01.623-.138c.21.133.273.41.139.618L6.408 13.76c-.083.679.598 1.22 1.26.972l2.936-5.324a.454.454 0 01.612-.178c.219.118.3.39.18.607l-2.832 5.136a1.408 1.408 0 001.847-.35l.203-.268 1.991-3.939a.454.454 0 01.606-.2c.223.11.314.38.202.6L11.52 14.56a.788.788 0 001.253-.118l2.676-4.412a7.667 7.667 0 00.926-2.296l.395-1.757a3.17 3.17 0 00-.385-2.342 3.235 3.235 0 00-1.887-1.432l-.483-.137z" fill="#2C2C2C"/></svg>