<svg width="22" height="16" viewBox="0 0 22 16" fill="none" xmlns="http://www.w3.org/2000/svg"><path d="M21.247 12.38c-.576-.353-8.61-5.378-9.864-6.192v-.743c0-.283.136-.496.373-.602 1.39-.53 1.864-2.406.746-3.574C11.18-.076 8.977.915 8.977 2.826c0 .212.135.354.339.354.203 0 .339-.142.339-.354 0-1.274 1.457-1.981 2.372-1.026.746.778.441 2.052-.508 2.406-.475.177-.814.673-.814 1.239v.743C7.926 7.922.774 12.38.74 12.416c-.542.46-.712 1.168-.508 1.84.237.672.813 1.097 1.491 1.097h18.541c.678 0 1.254-.425 1.492-1.097.27-.743-.068-1.592-.509-1.875zm-.136 1.628c-.101.319-.372.637-.847.637H1.757c-.475 0-.746-.318-.848-.637a.97.97 0 01.272-1.026c13.084-8.139 8.982-5.556 9.897-6.157 8.576 5.379 9.39 5.91 9.762 6.086.136.213.509.496.271 1.097z" fill="#2C2C2C"/><path fill-rule="evenodd" clip-rule="evenodd" d="M21.327 12.257c.258.166.47.483.582.845.114.366.134.797-.015 1.203-.256.726-.885 1.195-1.63 1.195H1.723c-.746 0-1.375-.469-1.632-1.195l-.002-.007c-.218-.721-.038-1.49.553-1.993L.65 12.3l.006-.005.008-.005.019-.013.065-.042.237-.15.857-.538a2616.4 2616.4 0 012.773-1.733L9.32 6.877l1.236-.77v-.662c0-.622.372-1.176.91-1.377.846-.315 1.128-1.462.453-2.167-.413-.43-.938-.482-1.361-.29a1.31 1.31 0 00-.757 1.215.509.509 0 01-.134.358.48.48 0 01-.353.143.48.48 0 01-.353-.143.509.509 0 01-.134-.358c0-2.025 2.352-3.111 3.78-1.66v.002c1.19 1.242.69 3.24-.795 3.81-.178.082-.282.239-.282.467v.663c1.447.933 9.227 5.8 9.793 6.147l.003.002zm-9.944-6.07c1.255.815 9.288 5.84 9.864 6.194.44.283.78 1.132.509 1.875-.238.672-.814 1.097-1.492 1.097H1.723c-.678 0-1.254-.425-1.491-1.097-.204-.672-.034-1.38.508-1.84.03-.03 5.42-3.393 8.66-5.414l1.305-.814v-.743c0-.566.34-1.062.814-1.239.949-.354 1.254-1.628.508-2.406-.915-.955-2.372-.248-2.372 1.026 0 .212-.136.354-.34.354-.203 0-.338-.142-.338-.354 0-1.91 2.203-2.902 3.525-1.557 1.118 1.168.644 3.043-.746 3.574-.237.106-.373.319-.373.602v.743zm9.59 7.768c.104-.263.072-.443.008-.58a1.085 1.085 0 00-.165-.248l-.077-.1c-.2-.1-.545-.31-1.783-1.084-.64-.4-1.52-.953-2.743-1.721-1.288-.809-2.955-1.856-5.124-3.216l-.017.01-.302.186c-.723.446-2.966 1.833-9.498 5.897a.823.823 0 00-.224.86l.002.005c.088.276.314.534.706.534h18.508c.392 0 .618-.258.706-.534l.003-.01zm-19.792-.973c6.917-4.303 9.03-5.609 9.622-5.973l.14-.086.07-.043s-.047.028-.072.041c-.016.01-.022.012-.002-.003l.109-.074.03-.019c2.213 1.388 3.91 2.453 5.214 3.273 3.752 2.356 4.272 2.682 4.548 2.813.024.037.054.076.088.119.159.202.38.482.183.978-.101.319-.372.637-.847.637H1.757c-.475 0-.746-.318-.848-.637a.97.97 0 01.272-1.026z" fill="#2C2C2C"/></svg>