<svg width="50" height="50" viewBox="0 0 50 50" fill="none" xmlns="http://www.w3.org/2000/svg"><path d="M.977 23.047h48.046v25.976H.977V23.047z" fill="#FFDA8F"/><path d="M49.023 23.047l-8.398 6.711v-11.05l8.398 4.34z" fill="#FF7B79"/><path d="M40.625 29.758L28.972 39.07A5.837 5.837 0 0125 40.625a5.833 5.833 0 01-3.972-1.556L9.375 29.758V.977h31.25v28.78z" fill="#F3EFF0"/><path d="M28.906 7.422c2.313 0 3.907 1.96 3.907 4.281 0 3.211-3.18 5.337-7.813 9.39-4.634-4.053-7.813-6.179-7.813-9.39 0-2.321 1.594-4.281 3.907-4.281C24.062 7.422 25 10.84 25 10.84s.938-3.418 3.906-3.418zM9.375 18.707v11.051l-8.398-6.71 8.398-4.34z" fill="#FF7B79"/><path d="M22.342 20.096c.643.548 1.308 1.115 2.015 1.733a.975.975 0 001.286 0c.706-.618 1.372-1.185 2.015-1.733 3.692-3.146 6.131-5.224 6.131-8.393 0-2.889-2.05-5.258-4.883-5.258-1.94 0-3.17 1.108-3.906 2.177-.736-1.07-1.966-2.177-3.906-2.177-2.832 0-4.883 2.37-4.883 5.258 0 3.17 2.439 5.247 6.13 8.393zM21.094 8.398c2.175 0 2.934 2.593 2.965 2.704a.977.977 0 001.883-.004c.007-.027.766-2.7 2.964-2.7 1.67 0 2.93 1.421 2.93 3.305 0 2.267-2.05 4.013-5.444 6.906-.45.384-.912.777-1.392 1.191-.48-.414-.941-.807-1.392-1.191-3.395-2.893-5.444-4.639-5.444-6.906 0-1.884 1.26-3.305 2.93-3.305zM16.21 25.977h17.58a.977.977 0 000-1.954H16.21a.977.977 0 000 1.954zm13.673 2.929h-9.766a.977.977 0 000 1.953h9.766a.977.977 0 000-1.953zM25 50a.977.977 0 100-1.953A.977.977 0 0025 50z" fill="#444"/><path d="M.977 50h19.628a.977.977 0 000-1.953H1.953v-22.97l12.58 10.052-5.173 4.779a.977.977 0 001.325 1.434l5.392-4.98 4.315 3.45A6.81 6.81 0 0025 41.601c1.71 0 3.344-.636 4.608-1.79l4.316-3.449 5.39 4.98a.977.977 0 001.326-1.435l-5.173-4.778 12.58-10.053v22.97H29.395a.977.977 0 000 1.953h19.628c.54 0 .977-.437.977-.977V23.047a.982.982 0 00-.524-.865l-.004-.003-7.87-4.067V.977A.977.977 0 0040.625 0H9.375a.977.977 0 00-.977.977v17.135L.528 22.18a.985.985 0 00-.528.868v25.976c0 .54.437.977.977.977zm46.261-26.776l-5.636 4.504V20.31l5.636 2.913zm-7.59-21.27v27.334c-11.834 9.458-11.29 9.02-11.339 9.065A4.865 4.865 0 0125 39.648c-1.23 0-2.404-.46-3.309-1.296-.048-.044.46.365-11.34-9.064V1.953h29.297zM8.398 27.726l-5.636-4.503 5.636-2.913v7.416z" fill="#444"/></svg>