<svg width="34" height="34" viewBox="0 0 34 34" fill="none" xmlns="http://www.w3.org/2000/svg"><g filter="url(#filter0_d_101_3384)"><path d="M32 15l-4.06 2.933 2.05 4.57-4.984.503-.503 4.985-4.57-2.052L17 29.999l-2.933-4.06-4.57 2.052-.503-4.985-4.985-.504 2.052-4.57L2 15l4.06-2.932-2.052-4.57 4.986-.504.504-4.985 4.57 2.052L17 .001l2.933 4.06 4.57-2.052.502 4.985 4.986.504-2.052 4.569L32 15z" fill="#FFBD3C"/></g><path d="M12.333 12.001c-.35 0-.61.232-.61.646v3.132h-.017l-2.582-3.505A.755.755 0 008.61 12c-.35 0-.61.231-.61.646v4.707c0 .414.26.646.61.646.352 0 .612-.232.612-.646v-3.09h.017l2.582 3.463c.113.15.357.274.512.274.351 0 .611-.231.611-.646v-4.707c0-.413-.26-.646-.611-.646zm4.842 4.806h-1.508v-1.26h1.336c.392 0 .595-.29.595-.571 0-.291-.196-.573-.595-.573h-1.336v-1.21H17.1c.383 0 .579-.29.579-.571 0-.29-.187-.574-.579-.574h-2.02c-.431 0-.634.307-.634.722v4.558c0 .373.268.62.628.62h2.1a.555.555 0 00.578-.57c0-.29-.187-.571-.577-.571zM25.419 12c-.39 0-.579.232-.65.597l-.693 3.521h-.017L23 12.49a.653.653 0 00-.634-.489c-.3 0-.546.19-.634.49l-1.059 3.628h-.016l-.692-3.521c-.073-.366-.26-.597-.652-.597a.562.562 0 00-.578.548l.032.28 1.035 4.524c.08.348.35.646.806.646a.834.834 0 00.806-.605l.945-3.198h.016l.945 3.198a.834.834 0 00.806.605c.456 0 .727-.298.808-.646l1.033-4.524.033-.28a.566.566 0 00-.58-.548z" fill="#fff"/><defs><filter id="filter0_d_101_3384" x="0" y="0" width="34" height="33.999" filterUnits="userSpaceOnUse" color-interpolation-filters="sRGB"><feFlood flood-opacity="0" result="BackgroundImageFix"/><feColorMatrix in="SourceAlpha" values="0 0 0 0 0 0 0 0 0 0 0 0 0 0 0 0 0 0 127 0" result="hardAlpha"/><feOffset dy="2"/><feGaussianBlur stdDeviation="1"/><feComposite in2="hardAlpha" operator="out"/><feColorMatrix values="0 0 0 0 0 0 0 0 0 0 0 0 0 0 0 0 0 0 0.15 0"/><feBlend in2="BackgroundImageFix" result="effect1_dropShadow_101_3384"/><feBlend in="SourceGraphic" in2="effect1_dropShadow_101_3384" result="shape"/></filter></defs></svg>