<svg width="22" height="22" viewBox="0 0 22 22" fill="none" xmlns="http://www.w3.org/2000/svg"><path d="M19.708 0H2.292A2.292 2.292 0 000 2.292v17.416A2.291 2.291 0 002.292 22h17.416A2.293 2.293 0 0022 19.708V2.292A2.293 2.293 0 0019.708 0zM2.292 21.083a1.375 1.375 0 01-1.375-1.375v-1.164l7.333-7.333 9.895 9.872H2.292zm18.791-1.375a1.375 1.375 0 01-1.375 1.375h-.27l-6.353-6.352 3.48-3.479 4.518 4.52v3.936zm0-5.23l-4.198-4.198a.459.459 0 00-.646 0l-3.8 3.8-3.854-3.855a.459.459 0 00-.647 0L.917 17.247V2.292A1.375 1.375 0 012.292.917h17.416a1.375 1.375 0 011.375 1.375v12.187z" fill="url(#paint0_linear_103_8367)"/><path d="M11.459 3.208a2.75 2.75 0 100 5.5 2.75 2.75 0 000-5.5zm0 4.584a1.833 1.833 0 110-3.666 1.833 1.833 0 010 3.666z" fill="url(#paint1_linear_103_8367)"/><defs><linearGradient id="paint0_linear_103_8367" x1="0" y1="11.155" x2="22" y2="11.155" gradientUnits="userSpaceOnUse"><stop stop-color="#21A5B5"/><stop offset="1" stop-color="#71B2B4"/></linearGradient><linearGradient id="paint1_linear_103_8367" x1="8.709" y1="5.997" x2="14.209" y2="5.997" gradientUnits="userSpaceOnUse"><stop stop-color="#21A5B5"/><stop offset="1" stop-color="#71B2B4"/></linearGradient></defs></svg>