<svg width="28" height="25" viewBox="0 0 28 25" fill="none" xmlns="http://www.w3.org/2000/svg"><path d="M24.867 1.309l-.193.459.193-.46A2.5 2.5 0 0021.6 2.627l-7.32 17.039a2.5 2.5 0 001.424 3.329l2.023.754a2.5 2.5 0 003.242-1.544l5.91-17.535a2.5 2.5 0 00-1.4-3.103l-.613-.257zM13.95 4.682a2.5 2.5 0 00-1.394-3.121l-.6-.252a2.5 2.5 0 00-3.267 1.317L1.361 19.684a2.5 2.5 0 001.401 3.32l1.875.72a2.5 2.5 0 003.26-1.517L13.95 4.682z" stroke="url(#paint0_linear_101_12010)"/><defs><linearGradient id="paint0_linear_101_12010" x1="1" y1="12.662" x2="27" y2="12.662" gradientUnits="userSpaceOnUse"><stop stop-color="#21A5B5"/><stop offset="1" stop-color="#71B2B4"/></linearGradient></defs></svg>