<svg width="9" height="13" viewBox="0 0 9 13" fill="none" xmlns="http://www.w3.org/2000/svg"><path d="M4.828.994c1.104 0 1.98.216 2.628.648a3.01 3.01 0 011.116 1.242c.252.516.378 1.038.378 1.566 0 1.008-.318 1.83-.954 2.466-.732.732-1.782 1.098-3.15 1.098h-.828v1.332h2.844v1.26H4.018V13H2.182v-2.394H.868v-1.26h1.314V8.014H.868V6.43h1.314V.994h2.646zm-.81 1.692V6.43h.828c.84 0 1.464-.204 1.872-.612.312-.312.468-.738.468-1.278 0-.528-.168-.96-.504-1.296-.384-.372-1.002-.558-1.854-.558h-.81z" fill="#2C2C2C"/></svg>