<svg width="28" height="16" viewBox="0 0 28 16" fill="none" xmlns="http://www.w3.org/2000/svg"><path d="M8.65 4.995c1.653 0 3.43-.476 3.43-1.525 0-1.05-1.777-1.525-3.43-1.525-1.655 0-3.43.48-3.43 1.525S7 4.995 8.65 4.995zm0-2.188c1.649 0 2.515.476 2.58.663-.065.186-.931.662-2.58.662-1.65 0-2.534-.484-2.582-.658.057-.182.932-.667 2.581-.667z" fill="#2C2C2C"/><path d="M27.125 1.745H15.523C13.838.927 11.196.5 8.649.5 4.46.5 0 1.656 0 3.808v8.384C0 14.344 4.458 15.5 8.65 15.5c4.19 0 8.649-1.156 8.649-3.308v-.444h9.826a.89.89 0 00.62-.275.92.92 0 00.255-.637v-8.17a.92.92 0 00-.252-.643.89.89 0 00-.623-.278zM8.671 1.362c4.454 0 7.779 1.303 7.779 2.446 0 1.142-3.334 2.445-7.8 2.445-4.468 0-7.801-1.294-7.801-2.445 0-1.152 3.333-2.446 7.8-2.446h.022zm0 13.275c-4.467 0-7.8-1.289-7.8-2.445V5.297c1.47 1.187 4.694 1.814 7.778 1.814 3.085 0 6.31-.627 7.801-1.814v6.895c0 1.143-3.325 2.445-7.8 2.445h.021zm18.502-3.805a.05.05 0 01-.014.034.048.048 0 01-.034.015h-9.826V3.808a1.74 1.74 0 00-.53-1.2h2.114V6.47a.452.452 0 00.079.381.44.44 0 00.345.171.432.432 0 00.345-.17.448.448 0 00.08-.382V2.607h1.92v3.864a.445.445 0 00.155.242.433.433 0 00.694-.242V2.607h1.925v3.864a.445.445 0 00.155.242.433.433 0 00.693-.242V2.607h1.851c.013 0 .025.005.034.015a.05.05 0 01.014.034v8.176z" fill="#2C2C2C"/></svg>