<svg width="22" height="24" viewBox="0 0 22 24" fill="none" xmlns="http://www.w3.org/2000/svg"><path fill-rule="evenodd" clip-rule="evenodd" d="M7.61 1.989a23.23 23.23 0 00-.81 1.459c-.573 1.129-1.057 2.354-1.174 3.405-.126 1.13.126 1.998.43 2.938l.054.167c.291.893.61 1.874.583 3.127-.031 1.409-.605 2.873-1.07 4.057l-.05.128c-.243.622-.445 1.151-.548 1.586-.108.461-.066.668-.009.753.298.438.67.615 1.175.766.105.031.22.062.344.095.446.119.992.265 1.515.561.562.32.991.759 1.341 1.117.098.1.189.193.275.276.412.396.771.635 1.337.635.565 0 .924-.24 1.336-.635.086-.083.178-.176.275-.276.35-.358.78-.798 1.341-1.117.523-.296 1.069-.442 1.515-.561.123-.033.239-.064.345-.095.504-.15.876-.328 1.174-.766.054-.08.095-.281-.023-.745-.11-.437-.323-.965-.574-1.59l-.013-.031c-.484-1.202-1.094-2.717-1.067-4.177.025-1.312.456-2.303.847-3.201l.048-.112c.405-.932.751-1.784.702-2.931-.043-.984-.404-2.147-.861-3.242-.193-.462-.4-.905-.602-1.308-.034.478-.131.98-.337 1.45a3.065 3.065 0 01-1.225 1.415c-.597.363-1.37.567-2.35.567-1.014 0-1.807-.219-2.41-.606a3.087 3.087 0 01-1.212-1.492c-.21-.53-.29-1.094-.302-1.617zm.708-1.94c.19.08.418.308.357.64-.121.666-.213 1.715.13 2.575.165.418.43.782.842 1.046.414.266 1.013.453 1.888.453.844 0 1.432-.175 1.844-.426a2.12 2.12 0 00.85-.988c.357-.813.302-1.822.189-2.521-.058-.355.205-.573.387-.642.183-.069.545-.081.736.248.365.632.918 1.652 1.393 2.789.471 1.128.882 2.411.932 3.56.06 1.375-.37 2.397-.778 3.34l-.034.078c-.398.915-.763 1.756-.784 2.882-.023 1.25.51 2.597 1.012 3.845l.014.034c.238.592.472 1.173.6 1.674.122.483.191 1.052-.11 1.496-.477.7-1.097.965-1.693 1.143-.154.046-.3.085-.443.123-.425.115-.81.218-1.216.448-.433.246-.735.554-1.07.895-.112.115-.229.234-.355.355-.485.466-1.073.904-2.006.904-.934 0-1.522-.438-2.007-.904-.126-.12-.242-.24-.355-.355-.335-.34-.637-.65-1.07-.895-.405-.23-.79-.333-1.216-.448-.142-.038-.289-.077-.442-.123-.597-.178-1.217-.442-1.693-1.143-.298-.439-.242-1.002-.128-1.488.12-.512.35-1.106.588-1.711l.025-.065c.482-1.232 1.003-2.562 1.03-3.803.024-1.092-.25-1.938-.544-2.843l-.048-.146c-.31-.959-.618-1.986-.47-3.325.136-1.218.68-2.563 1.269-3.723A26.292 26.292 0 017.588.254c.2-.294.538-.287.73-.206z" fill="#2C2C2C"/></svg>