<svg width="23" height="16" viewBox="0 0 23 16" fill="none" xmlns="http://www.w3.org/2000/svg"><path d="M21.844 9.19h-5.846v2.874h.98c.456-.595 1.156-.991 1.96-.991.771 0 1.471.363 1.926.99h.98V9.19zm-5.25 3.964H8.996c.07 1.256-.98 2.346-2.31 2.346-1.365 0-2.416-1.09-2.346-2.346H1.436c-.315 0-.595-.231-.595-.562V1.063c0-.33.28-.562.595-.562h14.002c.315 0 .56.231.56.562v2.742l2.87-.033c.21 0 .386.066.526.231l3.466 4.295c.105.066.14.199.14.364v3.931c0 .33-.245.562-.596.562H21.25c.07 1.256-.98 2.346-2.31 2.346-1.365 0-2.416-1.09-2.346-2.346zm2.345-.958c-.665 0-1.19.496-1.19 1.09 0 .595.525 1.09 1.19 1.09.63 0 1.155-.462 1.155-1.09 0-.594-.525-1.09-1.155-1.09zm-10.327-.132h6.231V1.59H1.996v10.474h2.765a2.348 2.348 0 011.926-.991c.77 0 1.505.396 1.925.99zm-1.925.132c-.665 0-1.19.496-1.19 1.09 0 .628.525 1.09 1.19 1.09.63 0 1.155-.462 1.155-1.09 0-.594-.525-1.09-1.155-1.09zm9.311-7.302V8.1h5.251l-2.625-3.238-2.626.033z" fill="#2C2C2C"/></svg>