<svg width="22" height="22" viewBox="0 0 22 22" fill="none" xmlns="http://www.w3.org/2000/svg"><path d="M20.565 0H1.435A1.436 1.436 0 000 1.435v14.347a1.436 1.436 0 001.435 1.435h10.791l-.202 3.728a.993.993 0 00.561.965.915.915 0 001.03-.164l1.87-1.735a.424.424 0 01.595 0l1.87 1.735a.915.915 0 001.03.164.993.993 0 00.562-.965l-.203-3.728h1.226A1.436 1.436 0 0022 15.782V1.435A1.436 1.436 0 0020.565 0zm-4.782 15.782a3.348 3.348 0 110-6.696 3.348 3.348 0 010 6.696zm2.802 5.247l-1.855-1.72a1.384 1.384 0 00-1.895 0l-1.843 1.735s-.015-.008-.014-.046l.277-5.088a4.273 4.273 0 005.056 0l.276 5.088c0 .01 0 .021-.002.031zm2.459-5.247a.478.478 0 01-.479.478h-1.278l-.068-1.245a4.304 4.304 0 10-6.873 0l-.068 1.245H1.435a.479.479 0 01-.478-.478V1.435a.478.478 0 01.478-.479h19.13a.479.479 0 01.479.479v14.347zm-2.95-2.657a.478.478 0 01-.796.53l-.878-1.316-.878 1.317a.481.481 0 01-.796 0l-1.274-1.913a.479.479 0 01.796-.53l.876 1.316.878-1.316a.497.497 0 01.796 0l1.276 1.912zm1.515-7.864a.479.479 0 01-.479.478H2.87a.478.478 0 110-.957h16.26a.478.478 0 01.479.479zm-9.714 7.908a1.327 1.327 0 01-1.556-.08.481.481 0 00-.763.208.483.483 0 01-.42.287.45.45 0 01-.394-.317.476.476 0 00-.938.12c-.213.246-.734.169-1.02 0a3.967 3.967 0 001.373-2.18 1.233 1.233 0 00-1.561-1.371c-1.328.385-1.888 2.215-1.248 3.394-.379.265-1.229.257-1.065.907.308.731 1.21.058 1.681-.155a1.997 1.997 0 002.325.247c.23.188.515.297.811.31a1.407 1.407 0 001.048-.43 2.301 2.301 0 002.272-.153.48.48 0 10-.545-.787zm-5.73-.492c-.271-.677-.004-1.768.794-1.929.837.15-.466 1.682-.794 1.929z" fill="#2C2C2C"/></svg>