<svg width="16" height="16" viewBox="0 0 16 16" fill="none" xmlns="http://www.w3.org/2000/svg"><path d="M8 2.545A8.569 8.569 0 000 8a8.569 8.569 0 008 5.454A8.569 8.569 0 0016 8a8.569 8.569 0 00-8-5.455zm0 9.091A3.601 3.601 0 014.364 8c0-2.036 1.6-3.636 3.636-3.636s3.636 1.6 3.636 3.636-1.6 3.636-3.636 3.636zm0-5.818c-1.236 0-2.182.946-2.182 2.182S6.764 10.182 8 10.182 10.182 9.236 10.182 8 9.236 5.818 8 5.818z" fill="url(#paint0_linear_101_1564)"/><path opacity=".01" fill-rule="evenodd" clip-rule="evenodd" d="M15 1.925L1.925 15 1 14.075 14.075 1l.925.925z" fill="#CFCFCF"/><defs><linearGradient id="paint0_linear_101_1564" x1="0" y1="8.077" x2="16" y2="8.077" gradientUnits="userSpaceOnUse"><stop stop-color="#21A5B5"/><stop offset="1" stop-color="#71B2B4"/></linearGradient></defs></svg>