<svg width="22" height="22" viewBox="0 0 22 22" fill="none" xmlns="http://www.w3.org/2000/svg"><path d="M11 18c-2.757 0-5-2.3-5-5.126 0-2.642 4.113-8.058 4.582-8.666A.528.528 0 0111 4c.163 0 .317.076.418.208.469.608 4.582 6.024 4.582 8.666C16 15.701 13.757 18 11 18zm0-12.56c-1.392 1.893-3.935 5.709-3.935 7.434C7.065 15.1 8.83 16.91 11 16.91s3.936-1.81 3.936-4.034c0-1.726-2.544-5.542-3.936-7.435z" fill="#2C2C2C"/><path d="M11 15.818a.539.539 0 01-.532-.545c0-.302.238-.546.532-.546.996 0 1.807-.83 1.807-1.852a.54.54 0 01.532-.546.54.54 0 01.533.546c0 1.623-1.289 2.943-2.872 2.943z" fill="#2C2C2C"/><path fill-rule="evenodd" clip-rule="evenodd" d="M11 21c5.523 0 10-4.477 10-10S16.523 1 11 1 1 5.477 1 11s4.477 10 10 10zm0 1c6.075 0 11-4.925 11-11S17.075 0 11 0 0 4.925 0 11s4.925 11 11 11z" fill="#2C2C2C"/></svg>