<svg width="624" height="71" viewBox="0 0 624 71" fill="none" xmlns="http://www.w3.org/2000/svg"><path d="M1 70l40.866-40.792c15.615-15.587 40.903-15.587 56.518 0l12.607 12.584c15.615 15.587 40.903 15.587 56.518 0l12.607-12.584c15.615-15.587 40.903-15.587 56.518 0l12.607 12.584c15.615 15.587 40.903 15.587 56.518 0l12.607-12.584c15.615-15.587 40.903-15.587 56.518 0l12.607 12.584c15.615 15.587 40.903 15.587 56.518 0l12.607-12.584c15.615-15.587 40.903-15.587 56.518 0l12.582 12.559c15.625 15.597 40.932 15.585 56.543-.026L623 1" stroke="#2C2C2C"/></svg>