<svg width="265" height="23" viewBox="0 0 265 23" fill="none" xmlns="http://www.w3.org/2000/svg"><path d="M1 22l9.946-10.5c5.404-5.705 14.49-5.705 19.893 0v0c5.404 5.705 14.49 5.705 19.893 0v0c5.404-5.705 14.49-5.705 19.893 0v0c5.404 5.705 14.489 5.705 19.893 0v0c5.404-5.705 14.489-5.705 19.893 0v0c5.404 5.705 14.491 5.702 19.895-.002v0c5.402-5.703 14.485-5.705 19.886-.003v0c5.405 5.706 14.554 5.637 19.954-.073v0c5.364-5.673 14.413-5.863 19.934-.342l.567.567c5.718 5.718 15.061 5.645 20.779-.073v0c5.799-5.799 15.275-5.873 21.074-.074v0c5.799 5.799 15.201 5.799 21 0L264 1" stroke="#2C2C2C"/></svg>