<svg width="48" height="20" viewBox="0 0 48 20" fill="none" xmlns="http://www.w3.org/2000/svg"><path d="M8.77 2.579c-.562.675-1.462 1.208-2.362 1.132-.113-.914.328-1.884.844-2.484C7.814.533 8.799.038 9.596 0c.093.951-.272 1.884-.825 2.579zm.816 1.313c-1.303-.077-2.419.751-3.038.751-.628 0-1.575-.713-2.606-.694-1.341.019-2.588.79-3.272 2.017-1.407 2.455-.366 6.09.993 8.087.666.99 1.463 2.075 2.513 2.036.994-.038 1.388-.656 2.588-.656 1.21 0 1.556.656 2.607.637 1.087-.019 1.772-.99 2.437-1.979.76-1.122 1.07-2.217 1.088-2.274-.019-.019-2.1-.828-2.119-3.263-.019-2.036 1.64-3.007 1.716-3.064-.938-1.408-2.4-1.56-2.907-1.598zm7.53-2.76v14.834h2.268v-5.072h3.141c2.87 0 4.885-1.998 4.885-4.89 0-2.893-1.978-4.872-4.81-4.872h-5.485zm2.268 1.941H22c1.97 0 3.094 1.066 3.094 2.94 0 1.875-1.125 2.95-3.103 2.95h-2.607v-5.89zm12.17 13.007c1.426 0 2.748-.733 3.348-1.893h.047v1.779h2.1V8.582c0-2.14-1.688-3.52-4.285-3.52-2.41 0-4.191 1.399-4.257 3.32h2.044c.169-.913 1.003-1.512 2.147-1.512 1.388 0 2.166.656 2.166 1.865v.818l-2.831.171c-2.635.162-4.06 1.256-4.06 3.159 0 1.922 1.472 3.197 3.581 3.197zm.61-1.76c-1.21 0-1.979-.59-1.979-1.494 0-.933.741-1.475 2.157-1.56l2.522-.162v.837c0 1.39-1.162 2.379-2.7 2.379zM39.852 20c2.213 0 3.254-.856 4.163-3.454L48 5.205h-2.306l-2.673 8.763h-.047l-2.672-8.763H37.93l3.844 10.799-.206.656c-.347 1.114-.91 1.542-1.913 1.542-.178 0-.525-.02-.665-.038v1.779c.13.038.693.057.862.057z" fill="#000"/></svg>