<svg width="49" height="20" viewBox="0 0 49 20" fill="none" xmlns="http://www.w3.org/2000/svg"><g clip-path="url(#clip0_101_2653)"><path d="M23.176 9.77v5.863h-1.81V1.155h4.8a4.235 4.235 0 011.675.308c.534.215 1.02.536 1.432.946.416.384.747.856.971 1.383.224.527.335 1.097.327 1.672a4.107 4.107 0 01-.322 1.683 4.01 4.01 0 01-.976 1.39c-.84.823-1.875 1.233-3.108 1.233h-2.99zm0-6.832v5.054h3.034c.333.01.664-.051.972-.18a2.39 2.39 0 00.819-.569c.23-.23.413-.505.538-.809a2.527 2.527 0 000-1.92 2.471 2.471 0 00-.538-.81 2.36 2.36 0 00-.815-.581 2.304 2.304 0 00-.976-.186h-3.034zM34.74 5.404c1.337 0 2.393.368 3.167 1.102.774.735 1.16 1.742 1.16 3.022v6.106h-1.73v-1.375h-.08c-.749 1.132-1.745 1.698-2.99 1.698-1.06 0-1.95-.323-2.664-.97a3.092 3.092 0 01-.803-1.089 3.172 3.172 0 01-.27-1.337c0-1.025.378-1.84 1.131-2.446.754-.605 1.76-.909 3.02-.91 1.074 0 1.959.202 2.654.606v-.425a2.166 2.166 0 00-.193-.91 2.112 2.112 0 00-.554-.736 2.523 2.523 0 00-1.747-.678c-1.01 0-1.81.438-2.4 1.315l-1.593-1.032c.876-1.294 2.174-1.94 3.892-1.94zm-2.341 7.197a1.5 1.5 0 00.6 1.213c.4.324.897.495 1.406.485a2.846 2.846 0 002.035-.868c.6-.58.9-1.26.9-2.042-.565-.462-1.351-.693-2.36-.693-.736 0-1.349.182-1.84.547-.495.37-.741.819-.741 1.358zm16.604-6.874L42.961 20h-1.868l2.242-4.994-3.973-9.279h1.967l2.872 7.116h.04l2.792-7.116h1.97z" fill="#5F6368"/><path d="M15.863 8.507c0-.567-.046-1.132-.14-1.691H8.092v3.203h4.37c-.089.512-.278 1-.556 1.434a3.8 3.8 0 01-1.06 1.094v2.08h2.61c1.527-1.448 2.407-3.589 2.407-6.12z" fill="#4285F4"/><path d="M8.093 16.636c2.183 0 4.022-.737 5.363-2.008l-2.609-2.08c-.726.507-1.66.795-2.754.795-2.111 0-3.903-1.462-4.543-3.433H.862v2.143a8.238 8.238 0 002.983 3.345 7.93 7.93 0 004.248 1.238z" fill="#34A853"/><path d="M3.549 9.91a5.115 5.115 0 010-3.185V4.583H.862A8.507 8.507 0 000 8.317c0 1.297.295 2.576.862 3.735L3.549 9.91z" fill="#FBBC04"/><path d="M8.093 3.292a4.329 4.329 0 013.104 1.248l2.31-2.374A7.66 7.66 0 008.093 0c-1.5 0-2.97.428-4.248 1.237A8.237 8.237 0 00.862 4.582L3.55 6.725c.64-1.97 2.432-3.433 4.543-3.433z" fill="#EA4335"/></g><defs><clipPath id="clip0_101_2653"><path fill="#fff" d="M0 0h49v20H0z"/></clipPath></defs></svg>