<svg width="89" height="27" viewBox="0 0 89 27" fill="none" xmlns="http://www.w3.org/2000/svg"><path d="M67.1 10.204v-.1H67l-4.992-.004V6.417h4.651v-.9H62.01V1.916h5.02v-.901h-5.994v9.988H67.1v-.8zm-25.216.213v-.1h-1.048l.716-1.803h4.985l.716 1.804H46.18v.782h3.125v-.782h-1.031l-3.726-9.24-.026-.063h-.942l-.026.062-3.737 9.24h-1.058v.783h3.125v-.682zm12.395.522l3.595-9.25h1.137V.905h-3.126v.783h.948l-3.052 7.97-3.04-7.975h.89V.9h-3.126v.783h1.182l3.597 9.256.024.064h.946l.025-.064zm-19.17-.007l2.764-9.238h1.72V.912h-4.516v.782h1.778L34.5 9.574l-2.754-8.49-.022-.07H30.66l-.023.07-2.732 8.49-2.355-7.88h1.865V.912H22.9v.782h1.635l2.788 9.238.021.07h1.079l.023-.068 2.782-8.53 2.758 8.53.023.069h1.079l.021-.071zm6.822-3.317l2.126-5.32 2.123 5.32h-4.249z" fill="#1FA4B5" stroke="#1FA4B5" stroke-width=".2"/><mask id="path-2-outside-1_103_2298" maskUnits="userSpaceOnUse" x="0" y="15" width="89" height="12" fill="#000"><path fill="#fff" d="M0 15h89v12H0z"/><path d="M53.032 20.998c0-2.718 2.365-4.893 5.37-4.893 3.006 0 5.37 2.182 5.37 4.893 0 2.71-2.364 4.895-5.37 4.895-3.005 0-5.37-2.182-5.37-4.895zm9.95 0c0-2.33-2.008-4.202-4.582-4.202-2.573 0-4.58 1.87-4.58 4.202s2.007 4.204 4.58 4.204c2.574 0 4.581-1.872 4.581-4.204zm-52.45-4.648v9.5h-.789v-4.547H3.689v4.547h-.787v-9.5h.787v4.271h6.054V16.35h.789z"/><path d="M5.614 16H1.207v.582h4.407V16zm6.746 0H7.952v.582h4.408V16zm-6.952 9.418H1V26h4.408v-.582zm6.952 0H7.952V26h4.408v-.582zm9.933-2.014h-5.22l-1.012 2.49h-.826l4.044-9.787h.826l4.032 9.786h-.826l-1.018-2.49zm-.284-.705L19.7 17.015 17.37 22.7h4.64z"/><path d="M17.12 25.418h-2.988V26h2.989v-.582zm7.988 0h-2.989V26h2.989v-.582zm7.398-3.536h-3.305v4.011h-.789v-9.786h4.104a3.185 3.185 0 012.03.715 2.838 2.838 0 011.021 1.796 2.753 2.753 0 01-.496 1.984 3.071 3.071 0 01-1.766 1.18l2.588 4.111h-.908l-2.479-4.011zm-3.305-.7h3.315c.618 0 1.21-.23 1.646-.64.437-.41.682-.967.682-1.548 0-.58-.245-1.137-.682-1.547a2.405 2.405 0 00-1.646-.641h-3.315v4.377z"/><path d="M30.354 25.418h-2.989V26h2.989v-.582zm6.423 0H33.79V26h2.988v-.582zm13.147.475h-.787v-8.697l-3.852 6.02h-.134l-3.852-6.02v8.697h-.79v-9.786h.984l3.718 5.788 3.717-5.788h.996v9.786z"/><path d="M42.34 25.418h-2.99V26h2.99v-.582zm8.724 0h-2.989V26h2.989v-.582zm23.478-9.321v9.796h-.727l-6.116-8.417v8.42h-.787v-9.799h.684l6.157 8.427v-8.427h.789z"/><path d="M68.895 25.418h-2.989V26h2.989v-.582zM75.607 16H72.62v.582h2.988V16zm7.69 5.922v3.963h-.789v-3.963l-3.792-5.666h.892l3.305 4.965 3.294-4.963h.893l-3.803 5.664z"/><path d="M80.771 16h-2.989v.582h2.989V16zM88 16h-2.989v.582H88V16zm-3.604 9.418h-2.989V26h2.989v-.582z"/></mask><path d="M53.032 20.998c0-2.718 2.365-4.893 5.37-4.893 3.006 0 5.37 2.182 5.37 4.893 0 2.71-2.364 4.895-5.37 4.895-3.005 0-5.37-2.182-5.37-4.895zm9.95 0c0-2.33-2.008-4.202-4.582-4.202-2.573 0-4.58 1.87-4.58 4.202s2.007 4.204 4.58 4.204c2.574 0 4.581-1.872 4.581-4.204zm-52.45-4.648v9.5h-.789v-4.547H3.689v4.547h-.787v-9.5h.787v4.271h6.054V16.35h.789z" fill="#1FA4B5"/><path d="M5.614 16H1.207v.582h4.407V16zm6.746 0H7.952v.582h4.408V16zm-6.952 9.418H1V26h4.408v-.582zm6.952 0H7.952V26h4.408v-.582zm9.933-2.014h-5.22l-1.012 2.49h-.826l4.044-9.787h.826l4.032 9.786h-.826l-1.018-2.49zm-.284-.705L19.7 17.015 17.37 22.7h4.64z" fill="#1FA4B5"/><path d="M17.12 25.418h-2.988V26h2.989v-.582zm7.988 0h-2.989V26h2.989v-.582zm7.398-3.536h-3.305v4.011h-.789v-9.786h4.104a3.185 3.185 0 012.03.715 2.838 2.838 0 011.021 1.796 2.753 2.753 0 01-.496 1.984 3.071 3.071 0 01-1.766 1.18l2.588 4.111h-.908l-2.479-4.011zm-3.305-.7h3.315c.618 0 1.21-.23 1.646-.64.437-.41.682-.967.682-1.548 0-.58-.245-1.137-.682-1.547a2.405 2.405 0 00-1.646-.641h-3.315v4.377z" fill="#1FA4B5"/><path d="M30.354 25.418h-2.989V26h2.989v-.582zm6.423 0H33.79V26h2.988v-.582zm13.147.475h-.787v-8.697l-3.852 6.02h-.134l-3.852-6.02v8.697h-.79v-9.786h.984l3.718 5.788 3.717-5.788h.996v9.786z" fill="#1FA4B5"/><path d="M42.34 25.418h-2.99V26h2.99v-.582zm8.724 0h-2.989V26h2.989v-.582zm23.478-9.321v9.796h-.727l-6.116-8.417v8.42h-.787v-9.799h.684l6.157 8.427v-8.427h.789z" fill="#1FA4B5"/><path d="M68.895 25.418h-2.989V26h2.989v-.582zM75.607 16H72.62v.582h2.988V16zm7.69 5.922v3.963h-.789v-3.963l-3.792-5.666h.892l3.305 4.965 3.294-4.963h.893l-3.803 5.664z" fill="#1FA4B5"/><path d="M80.771 16h-2.989v.582h2.989V16zM88 16h-2.989v.582H88V16zm-3.604 9.418h-2.989V26h2.989v-.582z" fill="#1FA4B5"/><path d="M1.207 16.391h4.407v-.2H1.207v.2zm6.745 0h4.41v-.2h-4.41v.2zM1 25.834h4.408v-.2H1v.2zm6.952 0h4.408v-.2H7.952v.2zm2.58-9.485h.2v-.2h-.2v.2zm0 9.502v.2h.2v-.2h-.2zm-.789 0h-.2v.2h.2v-.2zm0-4.548h.2v-.2h-.2v.2zm-6.054 0v-.2h-.2v.2h.2zm0 4.547v.2h.2v-.2h-.2zm-.787 0h-.2v.2h.2v-.2zm0-9.5v-.2h-.2v.2h.2zm.787 0h.2v-.2h-.2v.2zm0 4.271h-.2v.2h.2v-.2zm6.054 0v.2h.2v-.2h-.2zm0-4.271v-.2h-.2v.2h.2zM1.207 16v-.2h-.2v.2h.2zm4.407 0h.2v-.2h-.2v.2zm0 .582v.2h.2v-.2h-.2zm-4.407 0h-.2v.2h.2v-.2zM7.952 16v-.2h-.2v.2h.2zm4.408 0h.2v-.2h-.2v.2zm0 .582v.2h.2v-.2h-.2zm-4.408 0h-.2v.2h.2v-.2zM1 25.418v-.2H.8v.2H1zm4.408 0h.2v-.2h-.2v.2zm0 .583v.2h.2V26h-.2zM1 26H.8v.2H1V26zm6.952-.582v-.2h-.2v.2h.2zm4.408 0h.2v-.2h-.2v.2zm0 .582v.2h.2V26h-.2zm-4.408 0h-.2v.2h.2V26zm14.34-2.596l.186-.076-.051-.124h-.134v.2zm-5.219 0v-.2h-.134l-.051.125.185.075zm-1.012 2.49v.2h.135l.05-.126-.185-.075zm-.826 0l-.185-.077-.114.276h.299v-.2zm4.044-9.787v-.2h-.134l-.05.123.184.077zm.826 0l.185-.076-.05-.124h-.135v.2zm4.032 9.786v.2h.299l-.114-.276-.185.076zm-.826 0l-.185.076.05.124h.135v-.2zM22.009 22.7v.2h.298l-.112-.275-.186.075zM19.7 17.015l.186-.075-.185-.454-.186.454.185.075zM17.37 22.7l-.184-.076-.113.276h.298v-.2zm-3.238 2.718v-.2h-.2v.2h.2zm2.989 0h.2v-.2h-.2v.2zm0 .583v.2h.2V26h-.2zm-2.989 0h-.2v.2h.2V26zm7.987-.582v-.2h-.2v.2h.2zm2.989 0h.2v-.2h-.2v.2zm0 .582v.2h.2V26h-.2zm-2.989 0h-.2v.2h.2V26zm10.387-4.118l.17-.106-.058-.094h-.112v.2zm-3.305 0v-.2h-.2v.2h.2zm0 4.011v.2h.2v-.2h-.2zm-.789 0h-.2v.2h.2v-.2zm0-9.786v-.2h-.2v.2h.2zm4.104 0v.2-.2zm.79 5.675l-.049-.194-.268.067.147.234.17-.107zm2.587 4.111v.2h.363l-.193-.306-.17.106zm-.908 0l-.17.105.058.095h.112v-.2zm-5.784-4.71h-.2v.2h.2v-.2zm0-4.377v-.2h-.2v.2h.2zm-1.836 8.611v-.2h-.2v.2h.2zm2.989 0h.2v-.2h-.2v.2zm0 .583v.2h.2V26h-.2zm-2.989 0h-.2v.2h.2V26zm6.424-.582v-.2h-.2v.2h.2zm2.988 0h.2v-.2h-.2v.2zm0 .582v.2h.2V26h-.2zm-2.988 0h-.2v.2h.2V26zm16.135-.107v.2h.2v-.2h-.2zm-.787 0h-.2v.2h.2v-.2zm0-8.697h.2v-.684l-.369.576.169.108zm-3.852 6.02v.2h.11l.058-.093-.168-.108zm-.134 0l-.169.107.06.093h.109v-.2zm-3.852-6.02l.168-.108-.368-.576v.684h.2zm0 8.697v.2h.2v-.2h-.2zm-.79 0h-.2v.2h.2v-.2zm0-9.786v-.2h-.2v.2h.2zm.984 0l.168-.108-.059-.092h-.11v.2zm3.718 5.788l-.169.108.169.262.168-.262-.168-.108zm3.717-5.788v-.2h-.109L48.76 16l.168.108zm.996 0h.2v-.2h-.2v.2zm-10.573 9.31v-.2h-.2v.2h.2zm2.989 0h.2v-.2h-.2v.2zm0 .583v.2h.2V26h-.2zm-2.99 0h-.2v.2h.2V26zm8.725-.582v-.2h-.2v.2h.2zm2.989 0h.2v-.2h-.2v.2zm0 .582v.2h.2V26h-.2zm-2.989 0h-.2v.2h.2V26zm26.467-9.903h.2v-.2h-.2v.2zm0 9.796v.2h.2v-.2h-.2zm-.727 0l-.162.118.06.082h.102v-.2zm-6.116-8.417l.162-.118-.362-.498v.616h.2zm0 8.42v.2h.2v-.2h-.2zm-.787 0h-.2v.2h.2v-.2zm0-9.799v-.2h-.2v.2h.2zm.684 0l.161-.118-.06-.082h-.101v.2zm6.157 8.427l-.162.118.362.495v-.613h-.2zm0-8.427v-.2h-.2v.2h.2zm-7.847 9.32v-.2h-.2v.2h.2zm2.989 0h.2v-.2h-.2v.2zm0 .583v.2h.2V26h-.2zm-2.989 0h-.2v.2h.2V26zm6.713-10v-.2h-.2v.2h.2zm2.988 0h.2v-.2h-.2v.2zm0 .582v.2h.2v-.2h-.2zm-2.988 0h-.2v.2h.2v-.2zm10.678 5.34l-.166-.111-.034.05v.061h.2zm0 3.963v.2h.2v-.2h-.2zm-.789 0h-.2v.2h.2v-.2zm0-3.963h.2v-.06l-.034-.05-.166.11zm-3.792-5.666v-.2h-.375l.209.312.166-.112zm.892 0l.167-.11-.06-.09h-.107v.2zm3.305 4.965l-.167.111.167.25.166-.25-.166-.11zm3.294-4.963v-.2H86.1l-.06.09.167.11zm.893 0l.166.112.209-.312H87.1v.2zM77.782 16v-.2h-.2v.2h.2zm2.989 0h.2v-.2h-.2v.2zm0 .582v.2h.2v-.2h-.2zm-2.989 0h-.2v.2h.2v-.2zm7.23-.582v-.2h-.2v.2h.2zM88 16h.2v-.2H88v.2zm0 .582v.2h.2v-.2H88zm-2.989 0h-.2v.2h.2v-.2zm-3.604 8.835v-.2h-.2v.2h.2zm2.989 0h.2v-.2h-.2v.2zm0 .583v.2h.2V26h-.2zm-2.989 0h-.2v.2h.2V26zm-28.175-5.002c0-2.591 2.258-4.693 5.17-4.693v-.4c-3.098 0-5.57 2.248-5.57 5.093h.4zm5.17-4.693c2.912 0 5.17 2.11 5.17 4.693h.4c0-2.838-2.471-5.093-5.57-5.093v.4zm5.17 4.693c0 2.584-2.258 4.695-5.17 4.695v.4c3.099 0 5.57-2.258 5.57-5.095h-.4zm-5.17 4.695c-2.911 0-5.17-2.11-5.17-4.695h-.4c0 2.84 2.472 5.095 5.57 5.095v-.4zm4.78-4.695c0-2.456-2.113-4.402-4.782-4.402v.4c2.479 0 4.382 1.797 4.382 4.002h.4zM58.4 16.596c-2.668 0-4.78 1.945-4.78 4.402h.4c0-2.207 1.902-4.002 4.38-4.002v-.4zm-4.78 4.402c0 2.457 2.112 4.404 4.78 4.404v-.4c-2.478 0-4.38-1.797-4.38-4.004h-.4zm4.78 4.404c2.669 0 4.782-1.947 4.782-4.404h-.4c0 2.207-1.903 4.004-4.382 4.004v.4zm-48.068-9.053v9.502h.4v-9.502h-.4zm.2 9.302h-.789v.4h.789v-.4zm-.589.2v-4.548h-.4v4.547h.4zm-.2-4.748H3.689v.4h6.054v-.4zm-6.254.2v4.547h.4v-4.547h-.4zm.2 4.348h-.787v.4h.787v-.4zm-.587.2v-9.502h-.4v9.502h.4zm-.2-9.302h.787v-.4h-.787v.4zm.587-.2v4.272h.4V16.35h-.4zm.2 4.472h6.054v-.4H3.689v.4zm6.254-.2V16.35h-.4v4.271h.4zm-.2-4.072h.789v-.4h-.789v.4zM1.207 16.2h4.407v-.4H1.207v.4zm4.207-.2v.582h.4V16h-.4zm.2.383H1.207v.4h4.407v-.4zm-4.207.2V16h-.4v.582h.4zm6.545-.383h4.408v-.4H7.952v.4zm4.208-.2v.582h.4V16h-.4zm.2.383H7.952v.4h4.408v-.4zm-4.208.2V16h-.4v.582h.4zM1 25.617h4.408v-.4H1v.4zm4.208-.2V26h.4v-.582h-.4zm.2.382H1v.4h4.408v-.4zM1.2 26v-.582H.8V26h.4zm6.752-.383h4.408v-.4H7.952v.4zm4.208-.2V26h.4v-.582h-.4zm.2.383H7.952v.4h4.408v-.4zm-4.208.2v-.582h-.4V26h.4zm14.14-2.796h-5.219v.4h5.22v-.4zm-5.404.125l-1.012 2.489.37.15 1.012-2.489-.37-.15zm-.827 2.364h-.826v.4h.826v-.4zm-.641.277l4.044-9.787-.37-.153-4.044 9.787.37.153zm3.859-9.663h.826v-.4h-.826v.4zm.641-.124l4.032 9.786.37-.152-4.032-9.786-.37.152zm4.217 9.51h-.826v.4h.826v-.4zm-.641.124l-1.018-2.489-.37.152 1.018 2.489.37-.152zm-1.301-3.193l-2.31-5.684-.37.15 2.31 5.684.37-.15zm-2.68-5.684l-2.33 5.683.37.152 2.33-5.684-.37-.151zm-2.144 5.959h4.639v-.4h-4.64v.4zm-3.239 2.718h2.989v-.4h-2.989v.4zm2.789-.2V26h.4v-.582h-.4zm.2.383h-2.989v.4h2.989v-.4zm-2.789.2v-.582h-.4V26h.4zm7.787-.383h2.989v-.4h-2.989v.4zm2.789-.2V26h.4v-.582h-.4zm.2.383h-2.989v.4h2.989v-.4zm-2.789.2v-.582h-.4V26h.4zm10.187-4.318h-3.305v.4h3.305v-.4zm-3.505.2v4.011h.4v-4.011h-.4zm.2 3.811h-.789v.4h.79v-.4zm-.589.2v-9.786h-.4v9.786h.4zm-.2-9.586h4.104v-.4h-4.104v.4zm4.105 0a2.985 2.985 0 011.902.669l.254-.309a3.386 3.386 0 00-2.157-.76v.4zm1.902.669a2.64 2.64 0 01.95 1.67l.396-.055a3.038 3.038 0 00-1.092-1.924l-.254.309zm.95 1.67a2.55 2.55 0 01-.46 1.84l.325.232a2.95 2.95 0 00.531-2.127l-.396.055zm-.46 1.84a2.87 2.87 0 01-1.652 1.102l.096.389a3.27 3.27 0 001.88-1.26l-.325-.232zm-1.773 1.403L35.724 26l.339-.212-2.588-4.111-.339.213zm2.757 3.804h-.908v.4h.908v-.4zm-.738.095l-2.479-4.012-.34.21 2.478 4.012.34-.21zM29.2 21.383h3.315v-.4H29.2v.4zm3.315 0c.667 0 1.309-.25 1.783-.696l-.274-.291c-.398.374-.94.587-1.509.587v.4zm1.783-.696a2.324 2.324 0 00.745-1.693h-.4a1.92 1.92 0 01-.619 1.402l.274.291zm.745-1.693c0-.637-.27-1.246-.745-1.693l-.274.292c.398.373.62.878.62 1.401h.4zm-.745-1.693a2.605 2.605 0 00-1.783-.695v.4c.569 0 1.111.212 1.51.587l.273-.292zm-1.783-.695H29.2v.4h3.315v-.4zm-3.515.2v4.377h.4v-4.377H29zm-1.636 8.811h2.989v-.4h-2.989v.4zm2.789-.2V26h.4v-.582h-.4zm.2.383h-2.989v.4h2.989v-.4zm-2.789.2v-.582h-.4V26h.4zm6.224-.383h2.988v-.4H33.79v.4zm2.788-.2V26h.4v-.582h-.4zm.2.383H33.79v.4h2.988v-.4zm-2.788.2v-.582h-.4V26h.4zm15.935-.307h-.787v.4h.787v-.4zm-.587.2v-8.697h-.4v8.697h.4zm-.369-8.805l-3.852 6.02.337.215 3.852-6.02-.337-.215zm-3.683 5.927h-.134v.4h.134v-.4zm.034.093l-3.852-6.02-.337.216 3.852 6.02.337-.216zm-4.22-5.912v8.697h.4v-8.697h-.4zm.2 8.497h-.79v.4h.79v-.4zm-.59.2v-9.786h-.4v9.786h.4zm-.2-9.586h.984v-.4h-.983v.4zm.816-.092l3.717 5.788.337-.216L41.66 16l-.337.216zm4.054 5.788l3.718-5.788-.337-.216-3.718 5.788.337.216zm3.55-5.696h.995v-.4h-.996v.4zm.795-.2v9.786h.4v-9.786h-.4zm-10.373 9.51h2.989v-.4h-2.99v.4zm2.789-.2V26h.4v-.582h-.4zm.2.383h-2.99v.4h2.99v-.4zm-2.79.2v-.582h-.4V26h.4zm8.525-.383h2.989v-.4h-2.989v.4zm2.789-.2V26h.4v-.582h-.4zm.2.383h-2.989v.4h2.989v-.4zm-2.789.2v-.582h-.4V26h.4zm26.067-9.903v9.796h.4v-9.796h-.4zm.2 9.596h-.727v.4h.727v-.4zm-.566.083l-6.115-8.418-.324.235 6.116 8.418.323-.235zm-6.477-8.3v8.42h.4v-8.42h-.4zm.2 8.22h-.787v.4h.787v-.4zm-.587.2v-9.799h-.4v9.798h.4zm-.2-9.599h.684v-.4h-.684v.4zm.522-.082l6.157 8.427.323-.236-6.157-8.427-.323.236zm6.519 8.31v-8.428h-.4v8.427h.4zm-.2-8.228h.789v-.4h-.79v.4zm-7.847 9.32h2.989v-.4h-2.989v.4zm2.789-.2V26h.4v-.582h-.4zm.2.383h-2.989v.4h2.989v-.4zm-2.789.2v-.582h-.4V26h.4zm6.513-9.8h2.988v-.4H72.62v.4zm2.788-.2v.582h.4V16h-.4zm.2.383H72.62v.4h2.988v-.4zm-2.788.2V16h-.4v.582h.4zm10.278 5.34v3.962h.4v-3.963h-.4zm.2 3.762h-.789v.4h.789v-.4zm-.589.2v-3.963h-.4v3.963h.4zm-.034-4.074l-3.792-5.666-.332.223 3.792 5.666.332-.223zm-3.958-5.355h.892v-.4h-.892v.4zm.726-.089l3.304 4.965.333-.222-3.304-4.965-.333.222zm3.638 4.965l3.294-4.963-.333-.221-3.295 4.963.334.221zm3.127-4.874h.893v-.4h-.893v.4zm.726-.311l-3.802 5.664.332.223 3.803-5.664-.333-.223zm-9.15.053h2.988v-.4h-2.989v.4zm2.788-.2v.582h.4V16h-.4zm.2.383h-2.989v.4h2.989v-.4zm-2.789.2V16h-.4v.582h.4zm7.03-.383H88v-.4h-2.989v.4zM87.8 16v.582h.4V16h-.4zm.2.383h-2.989v.4H88v-.4zm-2.789.2V16h-.4v.582h.4zm-3.804 9.035h2.989v-.4h-2.989v.4zm2.789-.2V26h.4v-.582h-.4zm.2.382h-2.989v.4h2.989v-.4zm-2.789.2v-.582h-.4V26h.4z" fill="#1FA4B5" mask="url(#path-2-outside-1_103_2298)"/></svg>