<svg width="248" height="50" viewBox="0 0 248 50" fill="none" xmlns="http://www.w3.org/2000/svg"><g clip-path="url(#clip0_101_12091)"><path d="M4.207 38.756A23.766 23.766 0 01-.003 24.99a24.761 24.761 0 011.919-9.57 24.839 24.839 0 015.47-8.095A25.51 25.51 0 0125.265 0a25.51 25.51 0 0117.89 7.299 24.86 24.86 0 015.431 7.927 24.453 24.453 0 011.993 9.713 23.808 23.808 0 01-4.234 13.79l-.576-.418c2.72-3.93 4.153-8.6 4.104-13.372C49.874 11.588 38.83.725 25.253.725 11.677.725.703 11.61.703 24.991a23.038 23.038 0 004.08 13.345l-.576.42z" fill="#1FA4B5"/><path d="M45.23 37.992l-.593-.464c2.699-4.574 3.448-6.271 3.859-12.153.358-5.261-1.844-11.074-5.89-15.547-4.508-4.984-10.583-7.752-17.091-7.799a23.027 23.027 0 00-8.962 1.636 22.957 22.957 0 00-7.616 4.98 22.854 22.854 0 00-5.071 7.539 22.783 22.783 0 00-1.727 8.911c0 5.25 1.346 8.44 3.78 12.45l-.599.431c-2.447-4.034-3.886-7.488-3.886-12.881A23.616 23.616 0 018.162 8.416a23.465 23.465 0 017.768-5.239 24.387 24.387 0 019.588-1.861c3.435.017 6.825.794 9.923 2.273a24.926 24.926 0 0112.432 13.422 20.062 20.062 0 011.345 8.422c-.43 5.994-1.257 7.933-3.989 12.56zM24.997 50.014a24.297 24.297 0 01-2.909-.157c-3.29-.403-6.742-1.707-10.251-3.871l.364-.64c3.423 2.112 6.778 3.38 9.973 3.773 2.26.232 4.54.197 6.792-.107 4.08-.824 5.926-1.47 9.232-3.603l.391.687c-3.57 2.303-5.604 2.847-9.488 3.627a27.05 27.05 0 01-4.104.291z" fill="#1FA4B5"/><path d="M25.209 47.963c-5.42 0-8.413-1.95-10.29-3.166-.827-.533-1.172-.945-2.015-.997-.778-.047-2.412 1.84-2.5 1.947l-.53-.448c.091-.104 1.632-2.218 2.98-2.221 1.169 0 1.478.458 2.442 1.098 1.966 1.274 4.805 3.147 10.2 3.076 5.394-.072 8.018-1.832 9.76-2.996.951-.634 1.704-1.137 2.52-1.099 1.226.064 2.302 1.16 2.902 2.162l-.603.376c-.634-1.063-1.552-1.774-2.335-1.815-.587-.033-1.221.39-2.098.974-1.81 1.211-4.55 3.037-10.136 3.114l-.297-.005z" fill="#1FA4B5"/><path d="M24.906 45.843c-4.686 0-7.666-1.922-9.681-3.232-1.023-.662-1.833-1.183-2.448-1.197-1.312-.03-1.993.706-3.812 2.669l-.34.365-.512-.497.339-.365c1.866-2.016 2.715-2.93 4.341-2.897.81.02 1.693.59 2.81 1.31 2.166 1.4 5.135 3.314 10.025 3.105 4.992-.217 7.848-2.07 9.739-3.295 1.03-.67 1.778-1.153 2.497-1.153 1.489 0 2.575 1.156 3.832 2.493.223.236.455.48.692.725l-.491.508c-.243-.247-.474-.494-.7-.733-1.147-1.22-2.137-2.27-3.325-2.27-.515 0-1.224.458-2.12 1.04-1.951 1.269-4.906 3.182-10.086 3.408-.26.01-.514.016-.76.016z" fill="#1FA4B5"/><path d="M25.272 43.652c-4.485 0-7.53-1.936-9.791-3.372-1.182-.75-2.114-1.343-2.82-1.357h-.044c-1.547 0-3.47 1.83-5.637 4.04l-.494-.53c2.305-2.348 4.359-4.29 6.189-4.248.896.019 1.9.659 3.173 1.466 2.318 1.474 5.496 3.493 10.224 3.243 3.68-.192 6.249-1.843 8.31-3.169 1.442-.928 2.583-1.647 3.653-1.562 1.869.167 3.636 1.944 5.199 3.509.276.275.512.516.758.752l-.48.55c-.25-.242-.502-.495-.769-.761-1.475-1.483-3.148-3.163-4.769-3.295-.827-.074-1.89.601-3.222 1.458-2.018 1.296-4.785 3.073-8.645 3.276-.284-.006-.562 0-.835 0z" fill="#1FA4B5"/><path d="M25.6 41.18c-4.686 0-7.125-1.76-9.096-3.185-1.255-.906-2.338-1.688-3.694-1.752-1.307-.06-3.633.7-7.319 4.668l-.532-.475c3.063-3.295 5.789-4.978 7.873-4.882 1.568.072 2.732.912 4.08 1.884 1.973 1.422 4.43 3.193 9.273 3.042 3.746-.118 5.656-1.554 7.343-2.82 1.334-1.002 2.597-1.95 4.513-2.106 2.334-.19 5.13 2.63 7.373 4.899l.08.08-.507.48-.08-.08c-2.142-2.163-4.807-4.854-6.809-4.69-1.709.14-2.836.986-4.134 1.966-1.77 1.33-3.777 2.837-7.749 2.963l-.615.009z" fill="#1FA4B5"/><path d="M28.084 16.288h-4.132v1.023h1.93l-2.884 11.265L19.644 16.5l-.02-.074h-1.255l-.02.074-3.34 12.075-2.887-11.248h2.324v-1.024h-6.16v1.024h2.645l3.39 13.061.02.075h1.28l.02-.073 3.377-12.13 3.344 12.135.02.074h1.285l.02-.075 3.387-13.084h2.306v-.003h.483v12.289h-2.778v1.024h6.158v-1.024h-2.247V23.86h6.967v5.737h-2.286v1.024h6.161v-1.024h-2.74V17.308h2.713v-1.023H35.65v1.023h2.313v5.364h-6.967v-5.364h2.514v-1.023h-5.427v.003z" fill="#1FA4B5" stroke="#1FA4B5" stroke-width=".2"/><mask id="path-3-outside-1_101_12091" maskUnits="userSpaceOnUse" x="60.91" y="17" width="188" height="16" fill="#000"><path fill="#fff" d="M60.91 17h188v16h-188z"/><path d="M121.89 31.015v.99h-7.994V18.161h7.9v.991h-6.847v5.377h6.34v.988h-6.34v5.492l6.941.005zm79.443-5.947c0-3.844 3.156-6.92 7.167-6.92 4.011 0 7.167 3.087 7.167 6.92 0 3.833-3.156 6.922-7.167 6.922-4.011 0-7.167-3.086-7.167-6.922zm13.278 0c0-3.295-2.679-5.942-6.114-5.942-3.434 0-6.114 2.644-6.114 5.942s2.68 5.945 6.114 5.945c3.435 0 6.114-2.647 6.114-5.945zm-69.999-6.574V31.93h-1.053v-6.431h-8.08v6.43h-1.05V18.495h1.05v6.041h8.08v-6.04h1.053z"/><path d="M138.048 18h-5.882v.824h5.882V18zm9.003 0h-5.882v.824h5.882V18zm-9.278 13.318h-5.883v.823h5.883v-.823zm9.278 0h-5.882v.823h5.882v-.823zm-59.535 0h-3.99v.823h3.99v-.823z"/><path d="M94.087 28.484h-6.98l-1.347 3.52h-1.103l5.397-13.842h1.103l5.38 13.842h-1.102l-1.348-3.52zm-.377-.989l-3.096-8.045-3.098 8.045h6.194z"/><path d="M97.632 31.318h-3.989v.823h3.99v-.823zm.502-13.156h1.152l4.584 12.477 4.606-12.477h1.13l-5.185 13.842h-1.102l-5.185-13.842z"/><path d="M100.802 18h-3.989v.824h3.989V18zm10.061.008h-3.988v.824h3.988v-.824zm49.444 10.462h-6.965l-1.351 3.52h-1.103l5.398-13.839h1.102l5.381 13.84h-1.103l-1.359-3.52zm-.377-.997l-3.082-8.037-3.109 8.037h6.191z"/><path d="M153.405 31.318h-3.989v.823h3.989v-.823zm10.66 0h-3.989v.823h3.989v-.823zm9.874-5.001h-4.411v5.673h-1.053V18.151h5.477a4.108 4.108 0 012.709 1.01 4.066 4.066 0 01.701 5.346 4.095 4.095 0 01-2.357 1.67l3.454 5.813h-1.213l-3.307-5.673zm-4.411-.988h4.424c.824 0 1.614-.326 2.197-.907a3.087 3.087 0 000-4.376 3.114 3.114 0 00-2.197-.906h-4.424v6.189z"/><path d="M171.066 31.318h-3.988v.823h3.988v-.823zm8.573 0h-3.989v.823h3.989v-.823zm17.545.672h-1.05V19.692l-5.141 8.512h-.179l-5.141-8.512V31.99h-1.053V18.151h1.312l4.962 8.186 4.962-8.186h1.328v13.84z"/><path d="M187.062 31.318h-3.988v.823h3.988v-.823zm11.644 0h-3.989v.823h3.989v-.823zm31.334-13.181V31.99h-.971l-8.162-11.903v11.906h-1.05V18.137h.912l8.218 11.918V18.137h1.053z"/><path d="M222.503 31.318h-3.989v.823h3.989v-.823zM231.462 18h-3.989v.824h3.989V18zm-167.556.162h1.102l3.584 12.439 3.86-12.439h1.25l3.89 12.439 3.584-12.439h1.102l-3.991 13.842h-1.271l-3.89-12.477-3.922 12.477h-1.27l-4.028-13.842z"/><path d="M67.793 18.017H61.91v.823h5.883v-.823zm16.599 0H78.51v.823h5.882v-.823zm157.332 8.358v5.604h-1.052v-5.604l-5.061-8.012h1.19l4.411 7.02 4.396-7.018h1.191l-5.075 8.01z"/><path d="M238.353 18h-3.988v.824h3.988V18zm9.648 0h-3.989v.824h3.989V18zm-4.81 13.318h-3.989v.823h3.989v-.823z"/></mask><path d="M121.89 31.015v.99h-7.994V18.161h7.9v.991h-6.847v5.377h6.34v.988h-6.34v5.492l6.941.005zm79.443-5.947c0-3.844 3.156-6.92 7.167-6.92 4.011 0 7.167 3.087 7.167 6.92 0 3.833-3.156 6.922-7.167 6.922-4.011 0-7.167-3.086-7.167-6.922zm13.278 0c0-3.295-2.679-5.942-6.114-5.942-3.434 0-6.114 2.644-6.114 5.942s2.68 5.945 6.114 5.945c3.435 0 6.114-2.647 6.114-5.945zm-69.999-6.574V31.93h-1.053v-6.431h-8.08v6.43h-1.05V18.495h1.05v6.041h8.08v-6.04h1.053z" fill="#1FA4B5"/><path d="M138.048 18h-5.882v.824h5.882V18zm9.003 0h-5.882v.824h5.882V18zm-9.278 13.318h-5.883v.823h5.883v-.823zm9.278 0h-5.882v.823h5.882v-.823zm-59.535 0h-3.99v.823h3.99v-.823z" fill="#1FA4B5"/><path d="M94.087 28.484h-6.98l-1.347 3.52h-1.103l5.397-13.842h1.103l5.38 13.842h-1.102l-1.348-3.52zm-.377-.989l-3.096-8.045-3.098 8.045h6.194z" fill="#1FA4B5"/><path d="M97.632 31.318h-3.989v.823h3.99v-.823zm.502-13.156h1.152l4.584 12.477 4.606-12.477h1.13l-5.185 13.842h-1.102l-5.185-13.842z" fill="#1FA4B5"/><path d="M100.802 18h-3.989v.824h3.989V18zm10.061.008h-3.988v.824h3.988v-.824zm49.444 10.462h-6.965l-1.351 3.52h-1.103l5.398-13.839h1.102l5.381 13.84h-1.103l-1.359-3.52zm-.377-.997l-3.082-8.037-3.109 8.037h6.191z" fill="#1FA4B5"/><path d="M153.405 31.318h-3.989v.823h3.989v-.823zm10.66 0h-3.989v.823h3.989v-.823zm9.874-5.001h-4.411v5.673h-1.053V18.151h5.477a4.108 4.108 0 012.709 1.01 4.066 4.066 0 01.701 5.346 4.095 4.095 0 01-2.357 1.67l3.454 5.813h-1.213l-3.307-5.673zm-4.411-.988h4.424c.824 0 1.614-.326 2.197-.907a3.087 3.087 0 000-4.376 3.114 3.114 0 00-2.197-.906h-4.424v6.189z" fill="#1FA4B5"/><path d="M171.066 31.318h-3.988v.823h3.988v-.823zm8.573 0h-3.989v.823h3.989v-.823zm17.545.672h-1.05V19.692l-5.141 8.512h-.179l-5.141-8.512V31.99h-1.053V18.151h1.312l4.962 8.186 4.962-8.186h1.328v13.84z" fill="#1FA4B5"/><path d="M187.062 31.318h-3.988v.823h3.988v-.823zm11.644 0h-3.989v.823h3.989v-.823zm31.334-13.181V31.99h-.971l-8.162-11.903v11.906h-1.05V18.137h.912l8.218 11.918V18.137h1.053z" fill="#1FA4B5"/><path d="M222.503 31.318h-3.989v.823h3.989v-.823zM231.462 18h-3.989v.824h3.989V18zm-167.556.162h1.102l3.584 12.439 3.86-12.439h1.25l3.89 12.439 3.584-12.439h1.102l-3.991 13.842h-1.271l-3.89-12.477-3.922 12.477h-1.27l-4.028-13.842z" fill="#1FA4B5"/><path d="M67.793 18.017H61.91v.823h5.883v-.823zm16.599 0H78.51v.823h5.882v-.823zm157.332 8.358v5.604h-1.052v-5.604l-5.061-8.012h1.19l4.411 7.02 4.396-7.018h1.191l-5.075 8.01z" fill="#1FA4B5"/><path d="M238.353 18h-3.988v.824h3.988V18zm9.648 0h-3.989v.824h3.989V18zm-4.81 13.318h-3.989v.823h3.989v-.823z" fill="#1FA4B5"/><path d="M132.166 18.512h5.882v-.2h-5.882v.2zm9.003 0h5.885v-.2h-5.885v.2zm-9.279 13.353h5.883v-.2h-5.883v.2zm9.279 0h5.882v-.2h-5.882v.2zM61.91 18.528h5.883v-.2H61.91v.2zm16.6 0h5.882v-.2H78.51v.2zm43.38 12.488h.2v-.2h-.2v.2zm0 .988v.2h.2v-.2h-.2zm-7.994 0h-.2v.2h.2v-.2zm0-13.842v-.2h-.2v.2h.2zm7.9 0h.2v-.2h-.2v.2zm0 .991v.2h.2v-.2h-.2zm-6.847 0v-.2h-.2v.2h.2zm0 5.377h-.2v.2h.2v-.2zm6.34 0h.2v-.2h-.2v.2zm0 .988v.2h.2v-.2h-.2zm-6.34 0v-.2h-.2v.2h.2zm0 5.492h-.2v.2h.199l.001-.2zm29.663-12.516h.2v-.2h-.2v.2zm0 13.436v.2h.2v-.2h-.2zm-1.053 0h-.2v.2h.2v-.2zm0-6.431h.2v-.2h-.2v.2zm-8.08 0v-.2h-.2v.2h.2zm0 6.43v.2h.2v-.2h-.2zm-1.05 0h-.2v.2h.2v-.2zm0-13.435v-.2h-.2v.2h.2zm1.05 0h.2v-.2h-.2v.2zm0 6.041h-.2v.2h.2v-.2zm8.08 0v.2h.2v-.2h-.2zm0-6.04v-.2h-.2v.2h.2zM132.166 18v-.2h-.2v.2h.2zm5.882 0h.2v-.2h-.2v.2zm0 .824v.2h.2v-.2h-.2zm-5.882 0h-.2v.2h.2v-.2zm9.003-.824v-.2h-.2v.2h.2zm5.882 0h.2v-.2h-.2v.2zm0 .824v.2h.2v-.2h-.2zm-5.882 0h-.2v.2h.2v-.2zm-9.279 12.494v-.2h-.2v.2h.2zm5.883 0h.2v-.2h-.2v.2zm0 .823v.2h.2v-.2h-.2zm-5.883 0h-.2v.2h.2v-.2zm9.279-.823v-.2h-.2v.2h.2zm5.882 0h.2v-.2h-.2v.2zm0 .823v.2h.2v-.2h-.2zm-5.882 0h-.2v.2h.2v-.2zm-57.642-.823v-.2h-.2v.2h.2zm3.989 0h.2v-.2h-.2v.2zm0 .823v.2h.2v-.2h-.2zm-3.99 0h-.2v.2h.2v-.2zm10.561-3.657l.187-.072-.05-.128h-.137v.2zm-6.98 0v-.2h-.137l-.05.128.188.072zm-1.347 3.52v.2h.137l.05-.128-.187-.072zm-1.103 0l-.186-.073-.107.273h.293v-.2zm5.397-13.842v-.2h-.136l-.05.127.186.073zm1.103 0l.186-.072-.05-.128h-.136v.2zm5.38 13.842v.2h.293l-.106-.272-.186.072zm-1.102 0l-.187.072.05.128h.137v-.2zm-1.725-4.509v.2H94l-.104-.271-.186.071zm-3.096-8.045l.187-.072-.187-.485-.187.485.187.072zm-3.098 8.045l-.187-.072-.105.272h.292v-.2zm6.127 3.823v-.2h-.2v.2h.2zm3.99 0h.2v-.2h-.2v.2zm0 .823v.2h.2v-.2h-.2zm-3.99 0h-.2v.2h.2v-.2zm4.49-13.979v-.2h-.288l.102.27.187-.07zm1.153 0l.188-.069-.048-.131h-.14v.2zm4.584 12.477l-.188.07.188.51.188-.51-.188-.07zm4.606-12.477v-.2h-.139l-.048.13.187.07zm1.13 0l.188.07.101-.27h-.289v.2zm-5.185 13.842v.2h.139l.049-.13-.188-.07zm-1.102 0l-.187.07.048.13h.139v-.2zM96.813 18v-.2h-.2v.2h.2zm3.989 0h.2v-.2h-.2v.2zm0 .824v.2h.2v-.2h-.2zm-3.989 0h-.2v.2h.2v-.2zm10.062-.816v-.2h-.2v.2h.2zm3.988 0h.2v-.2h-.2v.2zm0 .824v.2h.2v-.2h-.2zm-3.988 0h-.2v.2h.2v-.2zm53.432 9.638l.187-.072-.049-.128h-.138v.2zm-6.965 0v-.2h-.138l-.049.128.187.072zm-1.351 3.52v.2h.137l.05-.128-.187-.072zm-1.103 0l-.186-.072-.106.272h.292v-.2zm5.398-13.839v-.2h-.137l-.05.127.187.073zm1.102 0l.187-.073-.05-.127h-.137v.2zm5.381 13.84v.2h.292l-.106-.273-.186.072zm-1.103 0l-.186.071.049.128h.137v-.2zm-1.736-4.518v.2h.291l-.104-.271-.187.071zm-3.082-8.037l.187-.072-.186-.484-.188.484.187.072zm-3.109 8.037l-.187-.072-.105.272h.292v-.2zm-4.323 3.845v-.2h-.2v.2h.2zm3.989 0h.2v-.2h-.2v.2zm0 .823v.2h.2v-.2h-.2zm-3.989 0h-.2v.2h.2v-.2zm10.66-.823v-.2h-.2v.2h.2zm3.989 0h.2v-.2h-.2v.2zm0 .823v.2h.2v-.2h-.2zm-3.989 0h-.2v.2h.2v-.2zm13.863-5.824l.172-.1-.058-.1h-.114v.2zm-4.411 0v-.2h-.2v.2h.2zm0 5.673v.2h.2v-.2h-.2zm-1.053 0h-.2v.2h.2v-.2zm0-13.839v-.2h-.2v.2h.2zm5.477 0v.2h.001l-.001-.2zm1.053 8.026l-.05-.193-.257.067.135.228.172-.102zm3.454 5.813v.2h.352l-.18-.302-.172.102zm-1.213 0l-.172.101.057.1h.115v-.2zm-7.718-6.661h-.2v.2h.2v-.2zm0-6.19v-.2h-.2v.2h.2zm-2.45 12.179v-.2h-.2v.2h.2zm3.988 0h.2v-.2h-.2v.2zm0 .823v.2h.2v-.2h-.2zm-3.988 0h-.2v.2h.2v-.2zm8.572-.823v-.2h-.2v.2h.2zm3.989 0h.2v-.2h-.2v.2zm0 .823v.2h.2v-.2h-.2zm-3.989 0h-.2v.2h.2v-.2zm21.534-.15v.2h.2v-.2h-.2zm-1.05 0h-.2v.2h.2v-.2zm0-12.3h.2v-.717l-.371.614.171.104zm-5.141 8.513v.2h.113l.058-.097-.171-.103zm-.179 0l-.171.103.058.097h.113v-.2zm-5.141-8.512l.171-.104-.371-.615v.719h.2zm0 12.298v.2h.2v-.2h-.2zm-1.053 0h-.2v.2h.2v-.2zm0-13.839v-.2h-.2v.2h.2zm1.312 0l.171-.104-.058-.096h-.113v.2zm4.962 8.186l-.171.103.171.282.171-.282-.171-.104zm4.962-8.186v-.2h-.113l-.058.096.171.104zm1.328 0h.2v-.2h-.2v.2zm-14.11 13.167v-.2h-.2v.2h.2zm3.988 0h.2v-.2h-.2v.2zm0 .823v.2h.2v-.2h-.2zm-3.988 0h-.2v.2h.2v-.2zm11.643-.823v-.2h-.2v.2h.2zm3.989 0h.2v-.2h-.2v.2zm0 .823v.2h.2v-.2h-.2zm-3.989 0h-.2v.2h.2v-.2zm35.323-14.004h.2v-.2h-.2v.2zm0 13.853v.2h.2v-.2h-.2zm-.971 0l-.165.113.06.087h.105v-.2zm-8.162-11.903l.165-.113-.365-.532v.645h.2zm0 11.906v.2h.2v-.2h-.2zm-1.05 0h-.2v.2h.2v-.2zm0-13.856v-.2h-.2v.2h.2zm.912 0l.165-.113-.06-.087h-.105v.2zm8.218 11.918l-.165.113.365.529v-.642h-.2zm0-11.918v-.2h-.2v.2h.2zm-10.473 13.18v-.2h-.2v.2h.2zm3.989 0h.2v-.2h-.2v.2zm0 .824v.2h.2v-.2h-.2zm-3.989 0h-.2v.2h.2v-.2zM227.473 18v-.2h-.2v.2h.2zm3.989 0h.2v-.2h-.2v.2zm0 .824v.2h.2v-.2h-.2zm-3.989 0h-.2v.2h.2v-.2zm-163.567-.662v-.2h-.267l.075.256.192-.056zm1.102 0l.193-.055-.042-.145h-.15v.2zm3.584 12.439l-.192.055.185.643.198-.639-.191-.06zm3.86-12.439v-.2h-.148l-.044.14.191.06zm1.25 0l.192-.06-.044-.14h-.147v.2zm3.89 12.439l-.19.06.198.635.184-.64-.192-.055zm3.584-12.439v-.2h-.15l-.043.145.193.055zm1.102 0l.192.055.074-.255h-.266v.2zm-3.991 13.842v.2h.15l.042-.145-.192-.055zm-1.271 0l-.191.06.044.14h.147v-.2zm-3.89-12.477l.191-.06-.19-.61-.191.61.19.06zm-3.922 12.477v.2h.147l.044-.14-.191-.06zm-1.27 0l-.193.056.042.144h.15v-.2zM61.91 18.017v-.2h-.2v.2h.2zm5.883 0h.2v-.2h-.2v.2zm0 .823v.2h.2v-.2h-.2zm-5.883 0h-.2v.2h.2v-.2zm16.6-.823v-.2h-.2v.2h.2zm5.882 0h.2v-.2h-.2v.2zm0 .823v.2h.2v-.2h-.2zm-5.882 0h-.2v.2h.2v-.2zm163.214 7.535l-.168-.107-.032.049v.058h.2zm0 5.604v.2h.2v-.2h-.2zm-1.052 0h-.2v.2h.2v-.2zm0-5.604h.2v-.058l-.031-.049-.169.107zm-5.061-8.012v-.2h-.363l.193.306.17-.107zm1.19 0l.17-.107-.059-.093h-.111v.2zm4.411 7.02l-.17.107.17.27.169-.27-.169-.106zm4.396-7.018v-.2h-.11l-.059.094.169.106zm1.191 0l.169.107.195-.307h-.364v.2zM234.365 18v-.2h-.2v.2h.2zm3.988 0h.2v-.2h-.2v.2zm0 .824v.2h.2v-.2h-.2zm-3.988 0h-.2v.2h.2v-.2zm9.647-.824v-.2h-.2v.2h.2zm3.989 0h.2v-.2h-.2v.2zm0 .824v.2h.2v-.2h-.2zm-3.989 0h-.2v.2h.2v-.2zm-4.81 12.494v-.2h-.2v.2h.2zm3.989 0h.2v-.2h-.2v.2zm0 .823v.2h.2v-.2h-.2zm-3.989 0h-.2v.2h.2v-.2zM121.69 31.016v.988h.4v-.988h-.4zm.2.788h-7.994v.4h7.994v-.4zm-7.794.2V18.162h-.4v13.842h.4zm-.2-13.642h7.9v-.4h-7.9v.4zm7.7-.2v.991h.4v-.991h-.4zm.2.791h-6.847v.4h6.847v-.4zm-7.047.2v5.377h.4v-5.377h-.4zm.2 5.577h6.34v-.4h-6.34v.4zm6.14-.2v.988h.4v-.988h-.4zm.2.788h-6.34v.4h6.34v-.4zm-6.54.2v5.492h.4v-5.492h-.4zm.199 5.692l6.941.005.001-.4-6.941-.005-.001.4zm86.585-6.142c0-3.728 3.061-6.72 6.967-6.72v-.4c-4.115 0-7.367 3.16-7.367 7.12h.4zm6.967-6.72c3.906 0 6.967 3.003 6.967 6.72h.4c0-3.95-3.252-7.12-7.367-7.12v.4zm6.967 6.72c0 3.717-3.061 6.722-6.967 6.722v.4c4.115 0 7.367-3.173 7.367-7.122h-.4zM208.5 31.79c-3.906 0-6.967-3.002-6.967-6.722h-.4c0 3.952 3.252 7.122 7.367 7.122v-.4zm6.311-6.722c0-3.41-2.773-6.142-6.314-6.142v.4c3.329 0 5.914 2.562 5.914 5.742h.4zm-6.314-6.142c-3.54 0-6.314 2.73-6.314 6.142h.4c0-3.183 2.586-5.742 5.914-5.742v-.4zm-6.314 6.142c0 3.413 2.774 6.145 6.314 6.145v-.4c-3.328 0-5.914-2.562-5.914-5.745h-.4zm6.314 6.145c3.541 0 6.314-2.733 6.314-6.145h-.4c0 3.183-2.585 5.745-5.914 5.745v.4zm-64.085-12.719V31.93h.4V18.494h-.4zm.2 13.236h-1.053v.4h1.053v-.4zm-.853.2v-6.431h-.4v6.43h.4zm-.2-6.631h-8.08v.4h8.08v-.4zm-8.28.2v6.43h.4V25.5h-.4zm.2 6.23h-1.05v.4h1.05v-.4zm-.85.2V18.495h-.4V31.93h.4zm-.2-13.235h1.05v-.4h-1.05v.4zm.85-.2v6.041h.4v-6.04h-.4zm.2 6.241h8.08v-.4h-8.08v.4zm8.28-.2v-6.04h-.4v6.04h.4zm-.2-5.84h1.053v-.4h-1.053v.4zm-11.393-.495h5.882v-.4h-5.882v.4zm5.682-.2v.824h.4V18h-.4zm.2.624h-5.882v.4h5.882v-.4zm-5.682.2V18h-.4v.824h.4zm8.803-.624h5.882v-.4h-5.882v.4zm5.682-.2v.824h.4V18h-.4zm.2.624h-5.882v.4h5.882v-.4zm-5.682.2V18h-.4v.824h.4zm-9.479 12.694h5.883v-.4h-5.883v.4zm5.683-.2v.823h.4v-.823h-.4zm.2.623h-5.883v.4h5.883v-.4zm-5.683.2v-.823h-.4v.823h.4zm9.079-.623h5.882v-.4h-5.882v.4zm5.682-.2v.823h.4v-.823h-.4zm.2.623h-5.882v.4h5.882v-.4zm-5.682.2v-.823h-.4v.823h.4zm-57.842-.623h3.989v-.4h-3.99v.4zm3.789-.2v.823h.4v-.823h-.4zm.2.623h-3.99v.4h3.99v-.4zm-3.79.2v-.823h-.4v.823h.4zm10.361-3.857h-6.98v.4h6.98v-.4zm-7.166.128l-1.348 3.52.374.144 1.347-3.52-.373-.144zm-1.161 3.392h-1.103v.4h1.103v-.4zm-.917.273l5.398-13.842-.373-.146-5.397 13.842.372.146zm5.211-13.715h1.103v-.4h-1.103v.4zm.917-.127l5.38 13.842.373-.145-5.38-13.842-.373.145zm5.567 13.57h-1.103v.4h1.103v-.4zm-.916.128l-1.348-3.52-.374.142 1.348 3.52.374-.143zm-1.726-4.51l-3.095-8.045-.374.144 3.096 8.045.373-.143zm-3.469-8.045l-3.098 8.045.373.144 3.099-8.045-.374-.144zm-2.911 8.317h6.194v-.4h-6.194v.4zm6.127 3.823h3.99v-.4h-3.99v.4zm3.79-.2v.823h.4v-.823h-.4zm.2.623h-3.99v.4h3.99v-.4zm-3.79.2v-.823h-.4v.823h.4zm4.29-13.779h1.153v-.4h-1.152v.4zm.965-.131l4.584 12.477.376-.138-4.584-12.477-.376.138zm4.96 12.478l4.606-12.478-.375-.138-4.606 12.477.375.139zm4.418-12.347h1.13v-.4h-1.13v.4zm.943-.27l-5.185 13.842.375.14 5.185-13.842-.375-.14zm-4.998 13.712h-1.102v.4h1.102v-.4zm-.915.13l-5.185-13.842-.374.14 5.185 13.842.374-.14zM96.813 18.2h3.989v-.4h-3.989v.4zm3.789-.2v.824h.4V18h-.4zm.2.624h-3.989v.4h3.989v-.4zm-3.789.2V18h-.4v.824h.4zm9.862-.616h3.988v-.4h-3.988v.4zm3.788-.2v.824h.4v-.824h-.4zm.2.624h-3.988v.4h3.988v-.4zm-3.788.2v-.824h-.4v.824h.4zm53.232 9.438h-6.965v.4h6.965v-.4zm-7.152.128l-1.351 3.52.374.144 1.35-3.52-.373-.144zm-1.164 3.392h-1.103v.4h1.103v-.4zm-.916.273l5.397-13.84-.373-.145-5.397 13.84.373.145zm5.211-13.712h1.102v-.4h-1.102v.4zm.916-.127l5.381 13.839.372-.145-5.38-13.84-.373.146zm5.567 13.566h-1.103v.4h1.103v-.4zm-.916.128l-1.359-3.52-.373.144 1.359 3.52.373-.144zm-1.736-4.516l-3.082-8.038-.374.144 3.082 8.037.374-.143zm-3.456-8.038l-3.109 8.037.373.145 3.11-8.038-.374-.144zm-2.922 8.31h6.191v-.4h-6.191v.4zm-4.323 3.844h3.989v-.4h-3.989v.4zm3.789-.2v.823h.4v-.823h-.4zm.2.623h-3.989v.4h3.989v-.4zm-3.789.2v-.823h-.4v.823h.4zm10.46-.623h3.989v-.4h-3.989v.4zm3.789-.2v.823h.4v-.823h-.4zm.2.623h-3.989v.4h3.989v-.4zm-3.789.2v-.823h-.4v.823h.4zm13.663-6.024h-4.411v.4h4.411v-.4zm-4.611.2v5.673h.4v-5.673h-.4zm.2 5.473h-1.053v.4h1.053v-.4zm-.853.2V18.151h-.4v13.84h.4zm-.2-13.639h5.477v-.4h-5.477v.4zm5.478 0a3.904 3.904 0 012.576.961l.263-.301a4.306 4.306 0 00-2.84-1.06l.001.4zm2.576.961a3.87 3.87 0 011.296 2.417l.397-.052a4.274 4.274 0 00-1.43-2.666l-.263.301zm1.296 2.417c.123.935-.1 1.883-.629 2.666l.332.224c.583-.864.83-1.91.694-2.942l-.397.052zm-.629 2.666a3.895 3.895 0 01-2.241 1.589l.101.387a4.297 4.297 0 002.472-1.752l-.332-.224zm-2.363 1.884l3.454 5.814.344-.205-3.454-5.813-.344.204zm3.626 5.511h-1.213v.4h1.213v-.4zm-1.04.1l-3.308-5.673-.345.201 3.308 5.673.345-.201zm-7.891-6.361h4.424v-.4h-4.424v.4zm4.424 0c.877 0 1.718-.347 2.338-.965l-.282-.283a2.914 2.914 0 01-2.056.848v.4zm2.338-.965a3.29 3.29 0 00.969-2.33h-.4c0 .768-.306 1.504-.851 2.047l.282.283zm.969-2.33a3.29 3.29 0 00-.969-2.33l-.282.284c.545.543.851 1.279.851 2.046h.4zm-.969-2.33a3.313 3.313 0 00-2.338-.965v.4c.771 0 1.511.306 2.056.849l.282-.284zm-2.338-.965h-4.424v.4h4.424v-.4zm-4.624.2v6.19h.4v-6.19h-.4zm-2.25 12.379h3.988v-.4h-3.988v.4zm3.788-.2v.823h.4v-.823h-.4zm.2.623h-3.988v.4h3.988v-.4zm-3.788.2v-.823h-.4v.823h.4zm8.372-.623h3.989v-.4h-3.989v.4zm3.789-.2v.823h.4v-.823h-.4zm.2.623h-3.989v.4h3.989v-.4zm-3.789.2v-.823h-.4v.823h.4zm21.334-.35h-1.05v.4h1.05v-.4zm-.85.2v-12.3h-.4v12.3h.4zm-.371-12.403l-5.141 8.512.342.207 5.141-8.512-.342-.207zm-4.97 8.416h-.179v.4h.179v-.4zm-.008.096l-5.141-8.512-.342.207 5.141 8.512.342-.207zm-5.512-8.409v12.3h.4v-12.3h-.4zm.2 12.1h-1.053v.4h1.053v-.4zm-.853.2V18.15h-.4v13.84h.4zm-.2-13.64h1.312v-.4h-1.312v.4zm1.141-.096l4.962 8.185.342-.207-4.962-8.186-.342.208zm5.304 8.185l4.962-8.185-.342-.208-4.962 8.186.342.207zm4.791-8.089h1.328v-.4h-1.328v.4zm1.128-.2v13.84h.4V18.15h-.4zm-13.91 13.367h3.988v-.4h-3.988v.4zm3.788-.2v.823h.4v-.823h-.4zm.2.623h-3.988v.4h3.988v-.4zm-3.788.2v-.823h-.4v.823h.4zm11.443-.623h3.989v-.4h-3.989v.4zm3.789-.2v.823h.4v-.823h-.4zm.2.623h-3.989v.4h3.989v-.4zm-3.789.2v-.823h-.4v.823h.4zm34.923-14.004V31.99h.4V18.137h-.4zm.2 13.653h-.971v.4h.971v-.4zm-.806.087l-8.162-11.903-.33.226 8.162 11.903.33-.226zm-8.527-11.79v11.906h.4V20.087h-.4zm.2 11.706h-1.05v.4h1.05v-.4zm-.85.2V18.137h-.4v13.856h.4zm-.2-13.656h.912v-.4h-.912v.4zm.748-.086l8.217 11.917.329-.227-8.217-11.917-.329.227zm8.582 11.803V18.138h-.4v11.918h.4zm-.2-11.717h1.053v-.4h-1.053v.4zm-10.473 13.18h3.989v-.4h-3.989v.4zm3.789-.2v.824h.4v-.823h-.4zm.2.624h-3.989v.4h3.989v-.4zm-3.789.2v-.823h-.4v.823h.4zm8.759-13.941h3.989v-.4h-3.989v.4zm3.789-.2v.824h.4V18h-.4zm.2.624h-3.989v.4h3.989v-.4zm-3.789.2V18h-.4v.824h.4zm-163.767-.462h1.102v-.4h-1.102v.4zm.91-.145l3.584 12.44.384-.111-3.583-12.44-.385.111zm3.967 12.443l3.86-12.439-.383-.118-3.859 12.439.382.118zm3.668-12.298h1.252v-.4H72.45v.4zm1.06-.14l3.89 12.439.382-.12-3.89-12.439-.381.12zm4.273 12.434l3.584-12.439-.385-.11L77.4 30.546l.384.11zm3.392-12.294h1.102v-.4h-1.102v.4zm.91-.255l-3.991 13.842.384.11 3.991-13.842-.384-.11zm-3.8 13.697h-1.27v.4h1.27v-.4zm-1.08.14l-3.889-12.477-.381.12 3.889 12.477.382-.12zm-4.27-12.477l-3.923 12.477.382.12 3.922-12.477-.381-.12zm-3.732 12.337h-1.27v.4h1.27v-.4zm-1.079.144l-4.027-13.842-.384.112L67.74 32.06l.384-.112zM61.91 18.216h5.883v-.4H61.91v.4zm5.683-.2v.824h.4v-.823h-.4zm.2.624H61.91v.4h5.883v-.4zm-5.683.2v-.823h-.4v.823h.4zm16.4-.623h5.882v-.4H78.51v.4zm5.682-.2v.823h.4v-.823h-.4zm.2.623H78.51v.4h5.882v-.4zm-5.682.2v-.823h-.4v.823h.4zm162.814 7.535v5.604h.4v-5.604h-.4zm.2 5.404h-1.052v.4h1.052v-.4zm-.852.2v-5.604h-.4v5.604h.4zm-.031-5.71l-5.061-8.013-.339.213 5.061 8.013.339-.214zm-5.23-7.706h1.19v-.4h-1.19v.4zm1.021-.094l4.41 7.021.339-.213-4.41-7.02-.339.212zm4.749 7.02l4.397-7.018-.339-.212-4.397 7.018.339.213zm4.227-6.924h1.191v-.4h-1.191v.4zm1.022-.307l-5.074 8.01.337.214 5.075-8.01-.338-.214zm-12.265-.058h3.988v-.4h-3.988v.4zm3.788-.2v.824h.4V18h-.4zm.2.624h-3.988v.4h3.988v-.4zm-3.788.2V18h-.4v.824h.4zm9.447-.624h3.989v-.4h-3.989v.4zm3.789-.2v.824h.4V18h-.4zm.2.624h-3.989v.4h3.989v-.4zm-3.789.2V18h-.4v.824h.4zm-5.01 12.694h3.989v-.4h-3.989v.4zm3.789-.2v.823h.4v-.823h-.4zm.2.623h-3.989v.4h3.989v-.4zm-3.789.2v-.823h-.4v.823h.4z" fill="#1FA4B5" mask="url(#path-3-outside-1_101_12091)"/></g><defs><clipPath id="clip0_101_12091"><path fill="#fff" d="M0 0h248v50H0z"/></clipPath></defs></svg>