<svg width="33" height="20" viewBox="0 0 33 20" fill="none" xmlns="http://www.w3.org/2000/svg"><path fill-rule="evenodd" clip-rule="evenodd" d="M33 10c0 5.523-4.569 10-10.205 10S12.59 15.523 12.59 10 17.159 0 22.795 0 33 4.477 33 10z" fill="#F79F1A"/><path fill-rule="evenodd" clip-rule="evenodd" d="M20.41 10c0 5.523-4.569 10-10.205 10S0 15.523 0 10 4.569 0 10.205 0 20.41 4.477 20.41 10z" fill="#EA001B"/><path fill-rule="evenodd" clip-rule="evenodd" d="M16.5 2.128c-2.382 1.83-3.91 4.675-3.91 7.871 0 3.196 1.528 6.043 3.91 7.873 2.38-1.83 3.909-4.677 3.909-7.873 0-3.196-1.528-6.04-3.91-7.871z" fill="#FF5F01"/></svg>