<svg width="53" height="22" viewBox="0 0 53 22" fill="none" xmlns="http://www.w3.org/2000/svg"><path d="M21.368 2.315l-2.724 16.58h4.295l2.723-16.58h-4.294zm24.824 0c-1.048 0-1.78.315-2.2 1.364L37.602 19h4.505s.733-2.099.942-2.518h5.447c.105.63.524 2.518.524 2.518H53L49.544 2.315h-3.352zm-1.99 10.703c.314-.944 1.675-4.617 1.675-4.617l.524-1.574.314 1.47s.838 3.987 1.048 4.826h-3.561v-.104zM34.251 9.03c-1.466-.734-2.41-1.258-2.41-2.098 0-.734.734-1.469 2.41-1.469 1.362 0 2.41.315 3.247.63l.419.21.628-3.568C37.708 2.42 36.345 2 34.67 2c-4.19 0-7.227 2.309-7.227 5.457 0 2.413 2.095 3.778 3.77 4.512 1.676.84 2.2 1.364 2.2 2.099 0 1.154-1.362 1.574-2.618 1.574-1.676 0-2.62-.21-4.086-.84l-.523-.314-.629 3.672c1.048.42 2.828.84 4.819.84 4.503 0 7.436-2.204 7.436-5.667.105-1.679-1.047-3.148-3.561-4.302zM15.083 2.315l-4.19 11.333-.419-2.309-1.466-7.66c-.21-1.05-1.048-1.364-1.99-1.364H.209c-.104 0-.104.105-.209.105 0 .105 0 .21.105.21 1.047.314 1.99.63 2.828 1.049.942.42 1.57 1.26 1.885 2.204l3.457 13.012h4.504l6.703-16.58h-4.399z" fill="#0072FF"/></svg>