<?xml version="1.0" encoding="utf-8"?><svg width="19" height="20" xmlns="http://www.w3.org/2000/svg" viewBox="0 0 19 20"><path d="M11.658 6.31c.237.237.748.158.81-.172a.342.342 0 01.337-.279h.425c.536 0 .94.488.84 1.014l-.806 4.237c-.103.523-.154.915-.154 1.176 0 .366.085.636.256.81.17.156.358.235.563.235.546 0 1.059-.348 1.536-1.045.29-.418.512-.975.666-1.672.154-.697.23-1.315.23-1.855 0-1.62-.554-3.057-1.664-4.31-1.092-1.255-2.662-1.882-4.71-1.882-2.066 0-3.807.723-5.223 2.169-1.417 1.445-2.125 3.24-2.125 5.382 0 1.532.392 2.917 1.177 4.153a6.464 6.464 0 003.226 2.639c.854.348 1.826.523 2.919.523 1.53 0 2.966-.238 4.304-.713.476-.169 1.012.084 1.143.572a.78.78 0 01-.48.947c-1.441.507-3.054.761-4.84.761-2.525 0-4.59-.705-6.195-2.116C1.964 15.16 1 12.895 1 10.09c0-2.63.845-4.798 2.535-6.505C5.225 1.862 7.349 1 9.91 1c2.304 0 4.224.705 5.76 2.116C17.223 4.51 18 6.382 18 8.733c0 1.846-.41 3.326-1.229 4.441-.82 1.097-1.8 1.646-2.944 1.646-.53 0-.965-.148-1.306-.444-.367-.335-1.146-.467-1.533-.156-.63.504-1.39.757-2.282.757-.887 0-1.715-.331-2.483-.993-.751-.68-1.127-1.742-1.127-3.187 0-1.62.461-2.9 1.383-3.84.922-.941 1.954-1.411 3.098-1.411.877 0 1.57.254 2.08.764zm-2.696 6.838c.734 0 1.374-.33 1.92-.993.564-.662.845-1.506.845-2.534 0-.749-.187-1.306-.563-1.672a1.86 1.86 0 00-1.382-.575c-.751 0-1.391.305-1.92.915-.53.61-.794 1.437-.794 2.482 0 .766.179 1.358.537 1.776.376.4.828.601 1.357.601z"/><path fill-rule="evenodd" clip-rule="evenodd" d="M13.46 11.149c-.102.52-.15.896-.15 1.137 0 .336.078.544.195.666a.615.615 0 00.424.179c.45 0 .91-.285 1.371-.958l.001-.001c.27-.39.485-.92.635-1.601.151-.687.226-1.29.226-1.812 0-1.569-.536-2.96-1.614-4.178l-.002-.001c-1.045-1.2-2.555-1.812-4.56-1.812-2.012 0-3.701.702-5.08 2.108C3.53 6.282 2.84 8.024 2.84 10.118c0 1.496.382 2.843 1.146 4.046a6.265 6.265 0 003.129 2.56h.004c.825.338 1.772.509 2.843.509 1.51 0 2.922-.235 4.237-.701.575-.204 1.24.097 1.403.708a.98.98 0 01-.607 1.188c-1.465.516-3.101.772-4.905.772-2.565 0-4.68-.717-6.328-2.166l-.001-.001C1.785 15.267.8 12.947.8 10.091c0-2.676.862-4.897 2.592-6.645C5.122 1.681 7.3.8 9.91.8c2.348 0 4.318.72 5.895 2.168 1.6 1.436 2.395 3.365 2.395 5.765 0 1.875-.416 3.4-1.268 4.56-.85 1.137-1.886 1.727-3.105 1.727-.569 0-1.053-.16-1.437-.493l.131-.151c.341.296.777.444 1.306.444 1.143 0 2.125-.549 2.944-1.646C17.591 12.06 18 10.58 18 8.733c0-2.351-.777-4.224-2.33-5.617C14.134 1.706 12.214 1 9.91 1c-2.56 0-4.686.862-6.375 2.586C1.845 5.293 1 7.462 1 10.091c0 2.805.964 5.069 2.893 6.793C5.498 18.294 7.563 19 10.09 19c1.785 0 3.398-.254 4.839-.761a.78.78 0 00.48-.947c-.13-.488-.667-.74-1.143-.572-1.338.475-2.773.713-4.304.713-1.092 0-2.065-.175-2.919-.523a6.465 6.465 0 01-3.226-2.639c-.785-1.236-1.177-2.62-1.177-4.153 0-2.143.708-3.937 2.125-5.382C6.18 3.29 7.92 2.568 9.986 2.568c2.049 0 3.619.627 4.711 1.88 1.11 1.255 1.665 2.691 1.665 4.311 0 .54-.077 1.158-.23 1.855-.155.697-.376 1.254-.667 1.672-.477.697-.99 1.045-1.536 1.045a.815.815 0 01-.563-.235c-.17-.174-.256-.444-.256-.81 0-.261.051-.653.154-1.176l.805-4.237a.855.855 0 00-.84-1.014h-.424a.342.342 0 00-.336.28c-.063.33-.574.408-.811.17-.51-.509-1.204-.763-2.081-.763-1.144 0-2.176.47-3.098 1.41-.922.941-1.383 2.221-1.383 3.84 0 1.446.376 2.509 1.127 3.188.768.662 1.596.993 2.483.993.892 0 1.652-.253 2.282-.757.387-.311 1.167-.179 1.533.156l-.135.148c-.145-.133-.39-.237-.648-.27-.262-.032-.49.014-.625.122-.669.536-1.475.8-2.407.8-.942 0-1.815-.352-2.614-1.04l-.003-.003c-.809-.732-1.193-1.859-1.193-3.336 0-1.66.474-2.994 1.44-3.98.953-.973 2.035-1.471 3.24-1.471.918 0 1.667.268 2.223.822.062.062.177.094.293.072.116-.022.17-.082.18-.139a.542.542 0 01.533-.442h.425c.661 0 1.16.602 1.036 1.252l-.806 4.238zm-2.73.877c.527-.62.797-1.416.797-2.405 0-.718-.18-1.214-.502-1.528l-.004-.004a1.66 1.66 0 00-1.24-.515c-.688 0-1.274.276-1.768.846-.49.564-.745 1.34-.745 2.35 0 .736.171 1.274.486 1.644.34.36.738.534 1.208.534.664 0 1.251-.296 1.766-.92l.002-.002zm-3.125.521c-.358-.418-.537-1.01-.537-1.776 0-1.045.264-1.873.793-2.482.53-.61 1.17-.914 1.92-.914a1.86 1.86 0 011.383.574c.376.366.563.923.563 1.672 0 1.028-.281 1.872-.844 2.534-.547.662-1.187.993-1.92.993-.53 0-.982-.2-1.358-.6z"/></svg>