<?xml version="1.0" encoding="utf-8"?><svg width="34" height="34" fill="none" xmlns="http://www.w3.org/2000/svg" viewBox="0 0 34 34"><path d="M29.693 9.168h-6.47V7.335a6.29 6.29 0 00-12.58 0v1.833h-6.84a.727.727 0 00-.725.725v17.404c.001 2.001 1.623 3.623 3.623 3.624h20.1c2.002-.001 3.623-1.623 3.624-3.623V9.892a.733.733 0 00-.732-.725zm-17.608-1.84a4.84 4.84 0 019.68 0V9.16h-9.68V7.328zm16.883 19.97a2.18 2.18 0 01-2.173 2.173h-20.1a2.18 2.18 0 01-2.175-2.174v-16.68h6.116v2.95a.725.725 0 001.45 0v-2.95h9.687v2.95a.725.725 0 101.45 0v-2.95h5.745v16.68z" fill="currentColor"/></svg>