<?xml version="1.0" encoding="utf-8"?><svg xmlns="http://www.w3.org/2000/svg" viewBox="0 0 314.009 314.009" width="314.01" height="314.01"><path fill="currentColor" d="M310.008 242.584l-44.275-39.615a11.999 11.999 0 00-12.41-2.221l-3.699 1.461a138.67 138.67 0 002.636-26.998c0-17.793-3.337-34.645-9.291-49.691l12.276-4.844L294 155.355a11.963 11.963 0 008.001 3.059c3.297 0 6.578-1.35 8.949-4 4.421-4.939 4-12.529-.94-16.949l-44.275-39.619a12 12 0 00-12.411-2.221l-21.385 8.439c-9.646-14.848-22.246-26.75-36.725-34.428l8.195-18.98 33.799 12.068c6.243 2.23 13.111-1.023 15.341-7.269 2.23-6.242-1.024-13.111-7.268-15.34l-44.395-15.851c-5.959-2.129-12.548.736-15.057 6.545l-13.262 30.713a79.63 79.63 0 00-15.563-1.539c-5.3 0-10.499.531-15.564 1.539l-13.263-30.713c-2.508-5.811-9.099-8.674-15.058-6.545L68.73 40.115c-6.243 2.229-9.497 9.098-7.268 15.342 2.229 6.242 9.1 9.498 15.342 7.268l33.793-12.068 8.196 18.982c-14.477 7.678-27.076 19.58-36.723 34.424l-21.382-8.438a12 12 0 00-12.41 2.221L4.001 137.465c-4.941 4.42-5.363 12.008-.941 16.949 2.371 2.65 5.653 4 8.949 4 2.85 0 5.71-1.01 8-3.059l38.759-34.68 12.273 4.844c-5.955 15.047-9.292 31.897-9.292 49.691 0 9.299.917 18.336 2.636 26.996l-3.694-1.459a12.004 12.004 0 00-12.41 2.221l-44.28 39.616c-4.94 4.42-5.363 12.01-.942 16.949 2.371 2.65 5.653 4 8.95 4 2.85 0 5.71-1.008 8-3.057l38.759-34.678 15.255 6.02c16.35 34.998 47.385 58.629 82.981 58.629 35.601 0 66.634-23.631 82.981-58.627l15.26-6.021 38.756 34.676a11.952 11.952 0 008 3.059 11.97 11.97 0 008.949-4c4.421-4.94 3.999-12.53-.942-16.95zM119.239 138.14c0-8.586 6.967-15.553 15.563-15.553 8.593 0 15.559 6.967 15.559 15.553 0 8.588-6.966 15.551-15.559 15.551-8.596 0-15.563-6.963-15.563-15.551zm31.121 93.579c-8.595 0-15.559-6.973-15.559-15.557s6.964-15.547 15.559-15.547c8.585 0 15.552 6.963 15.552 15.547s-6.967 15.557-15.552 15.557zm30.62-58.227c0-9.606 7.802-17.396 17.414-17.396 9.614 0 17.405 7.791 17.405 17.396 0 9.621-7.791 17.41-17.405 17.41-9.612 0-17.414-7.789-17.414-17.41z"/></svg>