<?xml version="1.0" encoding="utf-8"?><svg width="14" height="15" fill="none" xmlns="http://www.w3.org/2000/svg" viewBox="0 0 14 15"><g clip-path="url(#alclip0_101_1283)" fill="currentColor"><path d="M12.97 3.193H8.705l-1.16-1.895a.404.404 0 00-.345-.193h-3.21c-.568 0-1.03.462-1.03 1.03v7.934c0 .569.462 1.03 1.03 1.03h8.978c.568 0 1.03-.461 1.03-1.03V4.224c0-.568-.462-1.03-1.03-1.03z"/><path d="M2.154 10.07V3.9H1.03C.462 3.9 0 4.362 0 4.93v7.934c0 .568.462 1.03 1.03 1.03h8.978c.568 0 1.03-.462 1.03-1.03v-.956H3.993a1.84 1.84 0 01-1.838-1.838z"/></g><defs><clipPath id="alclip0_101_1283"><path fill="#fff" transform="translate(0 .5)" d="M0 0h14v14H0z"/></clipPath></defs></svg>