<?xml version="1.0" encoding="utf-8"?><svg width="24" height="20" xmlns="http://www.w3.org/2000/svg" viewBox="0 0 24 20"><path d="M17.195 0A6.726 6.726 0 0012 2.416 6.635 6.635 0 006.805 0C3.047 0 0 3.067 0 6.85c0 6.483 11.24 12.813 11.696 13.057a.544.544 0 00.608 0C12.759 19.663 24 13.425 24 6.85 24 3.067 20.953 0 17.195 0zM12 18.684C10.238 17.644 1.215 12.11 1.215 6.85c0-3.107 2.503-5.626 5.59-5.626a5.46 5.46 0 014.679 2.538.635.635 0 001.032 0 5.568 5.568 0 017.738-1.63 5.636 5.636 0 012.53 4.718c0 5.32-9.022 10.825-10.784 11.834z" fill="#2c2c2c"/><path d="M17.195 0A6.726 6.726 0 0012 2.416 6.635 6.635 0 006.805 0C3.047 0 0 3.067 0 6.85c0 6.483 11.24 12.813 11.696 13.057a.544.544 0 00.608 0C12.759 19.663 24 13.425 24 6.85 24 3.067 20.953 0 17.195 0z"/></svg>