<?xml version="1.0" encoding="utf-8"?><svg width="14" height="15" fill="none" xmlns="http://www.w3.org/2000/svg" viewBox="0 0 14 15"><g clip-path="url(#aoclip0_101_1110)"><path d="M12.682 1.819a4.517 4.517 0 00-6.381 0 4.51 4.51 0 00-1.099 4.579l-5.08 5.081a.41.41 0 00-.121.29v2.32c0 .227.183.41.41.41h2.32a.41.41 0 00.29-.12l.58-.58a.41.41 0 00.118-.337l-.072-.624.863-.08a.41.41 0 00.37-.37l.081-.864.624.072a.411.411 0 00.457-.407v-.764h.75a.41.41 0 00.29-.12l1.052-1.038c1.606.52 3.346.135 4.548-1.067a4.517 4.517 0 000-6.381zm-1.16 2.9a1.231 1.231 0 01-1.74-1.74 1.231 1.231 0 011.74 1.74z" fill="currentColor"/></g><defs><clipPath id="aoclip0_101_1110"><path fill="#fff" transform="translate(0 .5)" d="M0 0h14v14H0z"/></clipPath></defs></svg>