<?xml version="1.0" encoding="utf-8"?><svg width="40" height="40" xmlns="http://www.w3.org/2000/svg" viewBox="0 0 40 40"><path d="M22.087 15.15l-1.765 1.764c2.634.332 3.717 3.564 1.864 5.417l-5.358 5.357a3.198 3.198 0 01-4.516 0 3.192 3.192 0 010-4.516l1.41-1.41c-.26-.85-.342-1.902-.174-2.925l-2.636 2.635a5.382 5.382 0 000 7.616 5.382 5.382 0 007.616 0c6.588-6.588 4.743-4.742 5.273-5.275 2.603-2.702 1.697-7.169-1.713-8.664z"/><path d="M29.092 18.524a5.39 5.39 0 000-7.616 5.392 5.392 0 00-7.616 0c-5.392 5.392-5.273 5.275-5.273 5.275-2.634 2.736-1.662 7.183 1.713 8.663l1.616-1.615c-2.634-.334-3.711-3.558-1.87-5.409l5.364-5.365a3.192 3.192 0 014.516 0 3.197 3.197 0 010 4.517l-1.259 1.26c.298 1.092.327 1.988.174 2.924l2.635-2.634zm-19.078-1.3c.02 0 .04-.001.059-.003l1.22-.113a.625.625 0 10-.115-1.245l-1.22.113a.625.625 0 00.056 1.248zm6.414-5.367l.059.003a.624.624 0 00.621-.567l.113-1.22a.625.625 0 10-1.244-.116l-.114 1.22a.625.625 0 00.565.68zm-4.01 1.333a.625.625 0 00.884-.884l-.782-.783a.625.625 0 00-.884.884l.782.783zm17.51 9.59l-1.22.112a.625.625 0 00.115 1.245l1.22-.113a.625.625 0 10-.115-1.245zm-6.356 5.363a.625.625 0 00-.68.564l-.113 1.22a.625.625 0 001.244.116l.113-1.22a.625.625 0 00-.564-.68zm4.01-1.333a.625.625 0 10-.884.884l.782.783a.625.625 0 00.884-.884l-.782-.783z"/></svg>