<?xml version="1.0" encoding="utf-8"?><svg width="14" height="15" fill="none" xmlns="http://www.w3.org/2000/svg" viewBox="0 0 14 15"><path d="M13.955 6.694a.588.588 0 00-.126-.19l-1.75-1.75a.584.584 0 00-.824.825l.754.754H8.75a.583.583 0 100 1.167h3.259l-.754.754a.583.583 0 10.824.825l1.75-1.75a.584.584 0 00.127-.636z" fill="currentColor"/><path d="M9.917 8.667a.583.583 0 00-.584.583v2.917H7V2.833a.584.584 0 00-.416-.558l-2.026-.608h4.775v2.916a.583.583 0 101.167 0v-3.5A.583.583 0 009.917.5H.583c-.02 0-.04.009-.06.011a.585.585 0 00-.247.086C.263.606.247.607.236.615.23.62.228.625.223.63a.578.578 0 00-.155.184C.06.83.059.846.052.863.035.906.013.95.006.998c-.003.017.003.034.002.05 0 .012-.008.023-.008.034V12.75c0 .278.197.517.469.572l5.833 1.166A.582.582 0 007 13.916v-.583h2.917a.583.583 0 00.583-.583v-3.5a.583.583 0 00-.583-.583z" fill="currentColor"/></svg>