<?xml version="1.0" encoding="utf-8"?><svg width="18" height="18" xmlns="http://www.w3.org/2000/svg" viewBox="0 0 18 18"><path d="M16.822 12.806a12.74 12.74 0 01-4.03-1.052 1.283 1.283 0 00-1.676.585l-.874 1.736a16.236 16.236 0 01-6.317-6.318l1.735-.873c.612-.308.87-1.044.587-1.677a12.648 12.648 0 01-1.053-4.03A1.28 1.28 0 003.921 0H.643A.643.643 0 000 .643C0 3.26.57 5.784 1.696 8.148a17.513 17.513 0 008.159 8.157A17.311 17.311 0 0017.357 18a.643.643 0 00.643-.643V14.08a1.28 1.28 0 00-1.178-1.273z"/></svg>