<?xml version="1.0" encoding="utf-8"?><svg width="50" height="50" fill="none" xmlns="http://www.w3.org/2000/svg" viewBox="0 0 50 50"><path d="M25 50C11.193 50 0 38.807 0 25S11.193 0 25 0s25 11.193 25 25-11.193 25-25 25zm0-47.28C12.761 2.72 2.72 12.76 2.72 25S12.76 47.28 25 47.28 47.28 37.24 47.28 25C47.28 12.657 37.24 2.72 25 2.72z" fill="#2C2C2C"/><path d="M20.716 36.043c-1.395.81-3.142-.197-3.142-1.81V15.678c0-1.616 1.754-2.622 3.148-1.806l15.928 9.316c1.384.81 1.38 2.81-.006 3.615l-15.928 9.241zm-.213-18.888V32.74L33.787 25l-13.284-7.845z" fill="#2C2C2C"/></svg>