<?xml version="1.0" encoding="utf-8"?><svg width="34" height="34" fill="none" xmlns="http://www.w3.org/2000/svg" viewBox="0 0 34 34"><path d="M30.637 30.772l-7.206-7.206a11.56 11.56 0 002.995-7.76c0-6.409-5.213-11.622-11.62-11.622-6.409 0-11.622 5.213-11.622 11.621s5.213 11.621 11.621 11.621c2.985 0 5.7-1.14 7.76-2.995l7.207 7.206a.61.61 0 00.865 0 .612.612 0 000-.865zm-15.832-4.569c-5.733 0-10.397-4.664-10.397-10.398 0-5.733 4.664-10.398 10.397-10.398 5.733 0 10.398 4.665 10.398 10.398 0 5.734-4.665 10.398-10.398 10.398z" fill="currentColor"/><path fill-rule="evenodd" clip-rule="evenodd" d="M30.637 31.637a.61.61 0 01-.865 0l-7.206-7.206a11.561 11.561 0 01-7.76 2.995c-6.409 0-11.622-5.213-11.622-11.62 0-6.409 5.213-11.622 11.621-11.622s11.621 5.213 11.621 11.621c0 2.985-1.14 5.7-2.995 7.76l7.206 7.207a.612.612 0 010 .865zm.13-.995l-7.083-7.084a11.739 11.739 0 002.927-7.753C26.61 9.295 21.315 4 14.805 4 8.295 4 3 9.296 3 15.805c0 6.51 5.296 11.806 11.805 11.806 2.97 0 5.678-1.112 7.753-2.927l7.084 7.083a.794.794 0 001.125 0 .796.796 0 000-1.125zM4.592 15.805c0 5.632 4.582 10.214 10.213 10.214 5.631 0 10.214-4.582 10.214-10.214 0-5.631-4.582-10.213-10.214-10.213-5.63 0-10.213 4.582-10.213 10.213zm-.184 0c0 5.734 4.664 10.398 10.397 10.398 5.733 0 10.398-4.664 10.398-10.398 0-5.733-4.665-10.398-10.398-10.398S4.408 10.072 4.408 15.805z" fill="currentColor"/></svg>