<?xml version="1.0" encoding="utf-8"?><svg width="14" height="15" fill="none" xmlns="http://www.w3.org/2000/svg" viewBox="0 0 14 15"><g clip-path="url(#axclip0_101_1115)"><path d="M13.688 6.313l-1.638-.402a5.284 5.284 0 00-.344-.836l.837-1.395a.408.408 0 00-.058-.5L11.32 2.015a.408.408 0 00-.5-.058l-1.395.837c-.27-.14-.55-.254-.836-.344L8.195.812A.42.42 0 007.793.5h-1.64a.42.42 0 00-.403.312L5.357 2.45c-.287.09-.566.205-.837.344l-1.395-.837a.408.408 0 00-.5.058L1.46 3.18a.408.408 0 00-.057.5l.836 1.395c-.139.27-.254.55-.344.836l-1.583.402A.404.404 0 000 6.707v1.64c0 .19.131.353.312.394l1.583.402c.09.287.205.566.344.837l-.836 1.395a.408.408 0 00.057.5l1.165 1.165a.408.408 0 00.5.057l1.395-.836c.27.139.55.254.837.344l.393 1.583a.42.42 0 00.402.312h1.641a.42.42 0 00.402-.312l.394-1.583c.287-.09.566-.205.836-.345l1.395.837c.164.099.37.074.5-.057l1.165-1.165a.408.408 0 00.058-.5l-.837-1.395c.14-.27.254-.55.344-.837l1.638-.402A.404.404 0 0014 8.348V6.707a.404.404 0 00-.312-.394zM6.973 9.578a2.052 2.052 0 11.001-4.103 2.052 2.052 0 01-.001 4.103z" fill="currentColor"/></g><defs><clipPath id="axclip0_101_1115"><path fill="#fff" transform="translate(0 .5)" d="M0 0h14v14H0z"/></clipPath></defs></svg>