<?xml version="1.0" encoding="utf-8"?><svg width="14" height="16" fill="none" xmlns="http://www.w3.org/2000/svg" viewBox="0 0 14 16"><path d="M4.154 7.7a.611.611 0 01-.534-.316.632.632 0 01.23-.852l5.693-3.307a.607.607 0 01.837.234c.168.3.065.681-.229.852L4.458 7.618a.6.6 0 01-.304.082zM9.846 12.856a.594.594 0 01-.303-.082L3.849 9.467a.63.63 0 01-.229-.852.607.607 0 01.838-.233l5.693 3.306a.63.63 0 01.23.852.614.614 0 01-.535.316z" fill="#2C2C2C"/><path d="M13.75 13c0 1.38-1.099 2.5-2.455 2.5-1.355 0-2.454-1.12-2.454-2.5 0-1.381 1.099-2.5 2.454-2.5 1.356 0 2.455 1.119 2.455 2.5zM13.75 3c0 1.381-1.099 2.5-2.455 2.5C9.94 5.5 8.841 4.382 8.841 3 8.84 1.62 9.94.5 11.295.5 12.651.5 13.75 1.62 13.75 3zM5.16 8c0 1.38-1.1 2.5-2.455 2.5C1.349 10.5.25 9.38.25 8s1.099-2.5 2.455-2.5C4.06 5.5 5.159 6.62 5.159 8z" fill="#2C2C2C"/></svg>