<?xml version="1.0" encoding="utf-8"?><svg width="14" height="15" fill="none" xmlns="http://www.w3.org/2000/svg" viewBox="0 0 14 15"><g clip-path="url(#baclip0_101_1102)" fill="currentColor"><path d="M10.954.5H3.046A3.05 3.05 0 000 3.546a3.05 3.05 0 003.046 3.046h7.908A3.05 3.05 0 0014 3.546 3.05 3.05 0 0010.954.5zM3.046 5.772A2.228 2.228 0 01.82 3.546c0-1.227.999-2.226 2.226-2.226 1.227 0 2.226.999 2.226 2.226a2.228 2.228 0 01-2.226 2.226zM10.954 8.408H3.046A3.05 3.05 0 000 11.454 3.05 3.05 0 003.046 14.5h7.908A3.05 3.05 0 0014 11.454a3.05 3.05 0 00-3.046-3.046zm0 5.272a2.228 2.228 0 01-2.226-2.226c0-1.228.999-2.226 2.226-2.226 1.227 0 2.226.998 2.226 2.226a2.228 2.228 0 01-2.226 2.226z"/></g><defs><clipPath id="baclip0_101_1102"><path fill="#fff" transform="translate(0 .5)" d="M0 0h14v14H0z"/></clipPath></defs></svg>