<?xml version="1.0" encoding="utf-8"?><svg width="16" height="16" fill="none" xmlns="http://www.w3.org/2000/svg" viewBox="0 0 16 16"><path d="M9.207 5.797a.375.375 0 00-.375.375v7.082a.375.375 0 00.75 0V6.172a.375.375 0 00-.375-.375zM6.786 5.797a.375.375 0 00-.375.375v7.082a.375.375 0 00.75 0V6.172a.375.375 0 00-.375-.375z" fill="currentColor"/><path d="M2.563 4.763v9.232c0 .546.2 1.059.55 1.426.348.369.832.578 1.339.58h7.09c.506-.002.99-.211 1.338-.58.35-.367.55-.88.55-1.426V4.763a1.431 1.431 0 00-.367-2.814h-1.919V1.48A1.472 1.472 0 009.66 0H6.333a1.472 1.472 0 00-1.484 1.48v.469H2.93a1.432 1.432 0 00-.367 2.814zm8.978 10.488h-7.09c-.64 0-1.138-.55-1.138-1.256V4.796h9.367v9.2c0 .704-.498 1.255-1.139 1.255zM5.598 1.48A.721.721 0 016.333.75H9.66a.722.722 0 01.735.73v.469H5.598V1.48zM2.93 2.697h10.133a.674.674 0 110 1.349H2.93a.674.674 0 110-1.349z" fill="currentColor"/></svg>