<?xml version="1.0" encoding="utf-8"?><svg width="14" height="15" fill="none" xmlns="http://www.w3.org/2000/svg" viewBox="0 0 14 15"><g clip-path="url(#bdclip0_101_1098)" fill="currentColor"><path d="M6.9 7.244c.927 0 1.73-.332 2.385-.988a3.263 3.263 0 00.987-2.384c0-.926-.332-1.729-.988-2.384A3.263 3.263 0 006.9.5c-.926 0-1.728.332-2.384.988a3.263 3.263 0 00-.988 2.384c0 .926.333 1.729.988 2.384a3.263 3.263 0 002.384.988zM12.8 11.265a8.35 8.35 0 00-.113-.884 6.963 6.963 0 00-.218-.89 4.388 4.388 0 00-.365-.83 3.13 3.13 0 00-.552-.718 2.432 2.432 0 00-.792-.497 2.737 2.737 0 00-1.01-.183c-.144 0-.282.058-.549.232l-.57.368a3.272 3.272 0 01-.74.326c-.299.097-.603.146-.903.146-.3 0-.604-.05-.903-.146a3.264 3.264 0 01-.739-.326c-.212-.135-.404-.26-.571-.368-.267-.174-.405-.232-.548-.232-.364 0-.704.061-1.01.183-.309.122-.575.289-.793.497-.208.2-.393.441-.551.719a4.402 4.402 0 00-.366.83c-.087.273-.16.572-.217.889a8.3 8.3 0 00-.114.885c-.018.268-.028.546-.028.826 0 .731.233 1.323.69 1.76.453.43 1.052.648 1.78.648h6.741c.728 0 1.327-.218 1.78-.649.457-.436.69-1.028.69-1.759 0-.282-.01-.56-.029-.827z"/></g><defs><clipPath id="bdclip0_101_1098"><path fill="#fff" transform="translate(0 .5)" d="M0 0h14v14H0z"/></clipPath></defs></svg>