<?xml version="1.0" encoding="utf-8"?><svg width="20" height="20" xmlns="http://www.w3.org/2000/svg" viewBox="0 0 20 20"><path d="M17.194 2.806A9.518 9.518 0 0010.419 0a9.518 9.518 0 00-6.774 2.806A9.518 9.518 0 00.839 9.581c0 1.62.41 3.214 1.189 4.625L0 20l5.794-2.028a9.576 9.576 0 004.625 1.19 9.518 9.518 0 006.775-2.807A9.518 9.518 0 0020 9.581c0-2.56-.997-4.965-2.806-6.775zM15.156 13.14l-1.106 1.106c-.917.916-3.516-.198-5.807-2.489-2.29-2.29-3.405-4.89-2.489-5.807L6.86 4.844c.23-.229.6-.229.83 0l1.382 1.383c.23.229.23.6 0 .83l-.83.829a8.138 8.138 0 003.872 3.871l.83-.83c.229-.229.6-.229.83 0l1.382 1.383c.229.23.229.6 0 .83z"/></svg>