<svg width="48" height="20" viewBox="0 0 48 20" fill="none" xmlns="http://www.w3.org/2000/svg">
<path d="M8.77051 2.5785C8.20794 3.25404 7.30784 3.78687 6.40774 3.71075C6.29522 2.79734 6.7359 1.82683 7.25158 1.2274C7.81415 0.532826 8.79863 0.038059 9.5956 0C9.68936 0.951475 9.32369 1.88392 8.77051 2.5785ZM9.58622 3.89153C8.28295 3.81541 7.1672 4.6432 6.54838 4.6432C5.92018 4.6432 4.9732 3.92959 3.94183 3.94862C2.60105 3.96765 1.35403 4.73834 0.669578 5.96575C-0.736833 8.42055 0.303911 12.0552 1.66344 14.0533C2.32914 15.0428 3.12611 16.1275 4.17623 16.0894C5.17009 16.0514 5.56389 15.4329 6.76403 15.4329C7.97354 15.4329 8.32045 16.0894 9.37057 16.0704C10.4582 16.0514 11.1427 15.0809 11.8084 14.0913C12.5678 12.9686 12.8772 11.8744 12.896 11.8173C12.8772 11.7983 10.7957 10.9895 10.777 8.55376C10.7582 6.5176 12.4178 5.5471 12.4928 5.49001C11.5552 4.08183 10.0925 3.92959 9.58622 3.89153ZM17.1152 1.13225V15.9657H19.3842V10.8944H22.5252C25.3943 10.8944 27.4101 8.89629 27.4101 6.00381C27.4101 3.11132 25.4318 1.13225 22.6002 1.13225H17.1152ZM19.3842 3.07326H22.0001C23.9691 3.07326 25.0942 4.13892 25.0942 6.01332C25.0942 7.88773 23.9691 8.96289 21.9908 8.96289H19.3842V3.07326ZM31.5544 16.0799C32.9795 16.0799 34.3016 15.3473 34.9016 14.1865H34.9485V15.9657H37.0487V8.5823C37.0487 6.44148 35.3611 5.06185 32.7639 5.06185C30.3542 5.06185 28.5728 6.46051 28.5071 8.38249H30.5511C30.7199 7.46908 31.5544 6.86965 32.6982 6.86965C34.0859 6.86965 34.8641 7.52617 34.8641 8.73454V9.55281L32.0325 9.72407C29.3979 9.88582 27.9727 10.98 27.9727 12.883C27.9727 14.8049 29.4447 16.0799 31.5544 16.0799ZM32.1638 14.3197C30.9543 14.3197 30.1855 13.7298 30.1855 12.8259C30.1855 11.8934 30.9262 11.3511 32.342 11.2655L34.8641 11.1037V11.941C34.8641 13.3302 33.7015 14.3197 32.1638 14.3197ZM39.8522 20C42.0649 20 43.1057 19.1437 44.0152 16.5461L48 5.20457H45.6935L43.0213 13.9677H42.9744L40.3022 5.20457H37.9301L41.7743 16.0038L41.568 16.6603C41.2211 17.7736 40.6585 18.2017 39.6553 18.2017C39.4771 18.2017 39.1302 18.1827 38.9896 18.1637V19.9429C39.1209 19.981 39.6834 20 39.8522 20Z" fill="black"/>
</svg>
