<svg width="49" height="20" viewBox="0 0 49 20" fill="none" xmlns="http://www.w3.org/2000/svg">
<g clip-path="url(#clip0_101_2653)">
<path d="M23.1757 9.77076V15.6334H21.3662V1.15527H26.1654C26.7383 1.14297 27.3078 1.2474 27.8412 1.46252C28.3746 1.67765 28.8612 1.99921 29.2731 2.40866C29.6891 2.79325 30.0201 3.26491 30.244 3.79194C30.4679 4.31896 30.5795 4.88915 30.5712 5.46417C30.5831 6.04227 30.4733 6.61617 30.2492 7.14656C30.0251 7.67694 29.6922 8.15126 29.2731 8.53701C28.4339 9.35951 27.398 9.77037 26.1654 9.7696H23.1757V9.77076ZM23.1757 2.93775V7.99175H26.2104C26.543 8.00189 26.8741 7.94054 27.1824 7.81164C27.4907 7.68275 27.7694 7.48913 28.0008 7.24318C28.2309 7.01322 28.4138 6.73817 28.5387 6.43429C28.6636 6.13041 28.728 5.80388 28.728 5.47399C28.728 5.1441 28.6636 4.81756 28.5387 4.51369C28.4138 4.20981 28.2309 3.93476 28.0008 3.7048C27.7723 3.45367 27.4946 3.25531 27.1859 3.12287C26.8772 2.99043 26.5447 2.92693 26.2104 2.93659H23.1757V2.93775Z" fill="#5F6368"/>
<path d="M34.7399 5.4043C36.0774 5.4043 37.1331 5.77165 37.9071 6.50636C38.6811 7.24107 39.0678 8.2484 39.067 9.52837V15.6336H37.3362V14.2589H37.2575C36.5082 15.391 35.5117 15.9571 34.2678 15.9571C33.2061 15.9571 32.3178 15.6336 31.603 14.9867C31.26 14.6898 30.9857 14.3179 30.8002 13.8983C30.6147 13.4786 30.5227 13.0216 30.5308 12.5608C30.5308 11.5357 30.9077 10.7205 31.6614 10.1152C32.4152 9.50988 33.4215 9.20645 34.6803 9.20491C35.7548 9.20491 36.6397 9.40707 37.335 9.81139V9.38628C37.3371 9.07208 37.2711 8.76135 37.1418 8.47663C37.0125 8.19191 36.8232 7.94032 36.5876 7.74011C36.1091 7.29638 35.4855 7.05426 34.841 7.06201C33.8303 7.06201 33.0304 7.50022 32.4414 8.37663L30.8477 7.34504C31.7244 6.05121 33.0218 5.4043 34.7399 5.4043ZM32.3987 12.6012C32.3975 12.8379 32.4514 13.0715 32.5558 13.2825C32.6602 13.4935 32.8121 13.6757 32.9989 13.8142C33.3991 14.1377 33.8959 14.3091 34.405 14.2993C35.1685 14.298 35.9005 13.9856 36.4404 13.4306C37.0398 12.8507 37.3395 12.1703 37.3395 11.3894C36.7753 10.9273 35.9886 10.6963 34.9793 10.6963C34.2442 10.6963 33.6313 10.8784 33.1405 11.2427C32.6449 11.6123 32.3987 12.0617 32.3987 12.6012Z" fill="#5F6368"/>
<path d="M49.0034 5.72705L42.9611 19.9996H41.0932L43.3354 15.0056L39.3623 5.72705H41.3292L44.2008 12.8431H44.2402L47.0331 5.72705H49.0034Z" fill="#5F6368"/>
<path d="M15.8627 8.50713C15.8633 7.94034 15.8167 7.37452 15.7233 6.81592H8.0918V10.0193H12.4628C12.3733 10.5309 12.184 11.0186 11.9062 11.453C11.6285 11.8874 11.268 12.2595 10.8466 12.5469V14.6262H13.4552C14.9826 13.1788 15.8627 11.0382 15.8627 8.50713Z" fill="#4285F4"/>
<path d="M8.09255 16.6357C10.2763 16.6357 12.1151 15.8987 13.4559 14.628L10.8473 12.5486C10.1212 13.0546 9.18613 13.3434 8.09255 13.3434C5.98181 13.3434 4.19026 11.8809 3.54962 9.91016H0.862305V12.0531C1.53584 13.4306 2.56863 14.5886 3.84537 15.3979C5.12212 16.2071 6.59257 16.6357 8.09255 16.6357Z" fill="#34A853"/>
<path d="M3.549 9.90915C3.21032 8.87645 3.21032 7.75812 3.549 6.72542V4.58252H0.861686C0.295085 5.74136 0 7.02034 0 8.31729C0 9.61423 0.295085 10.8932 0.861686 12.0521L3.549 9.90915Z" fill="#FBBC04"/>
<path d="M8.09255 3.29189C9.24659 3.27251 10.3617 3.72068 11.1968 4.53951L13.5065 2.16557C12.0419 0.751693 10.1017 -0.0245504 8.09255 -0.00043086C6.59257 -0.000360595 5.12212 0.428212 3.84537 1.23744C2.56863 2.04667 1.53584 3.2047 0.862305 4.58225L3.54962 6.72515C4.19026 4.75438 5.98181 3.29189 8.09255 3.29189Z" fill="#EA4335"/>
</g>
<defs>
<clipPath id="clip0_101_2653">
<rect width="49" height="20" fill="white"/>
</clipPath>
</defs>
</svg>
