<svg width="89" height="27" viewBox="0 0 89 27" fill="none" xmlns="http://www.w3.org/2000/svg">
<path d="M67.1 10.2039V10.104L67.0001 10.1039L62.0082 10.1001V6.41651H66.5592H66.6592V6.31651V5.61748V5.51748H66.5592H62.0082V1.91554H66.9312H67.0312V1.81554V1.11456V1.01456H66.9312H61.1358H61.0358V1.11456V10.9029V11.0029H61.1358H67H67.1V10.9029V10.2039ZM41.8838 10.4175V10.3175H41.7838H40.8358L41.5524 8.51359H46.5367L47.2533 10.3175H46.279H46.179V10.4175V11V11.1H46.279H49.2051H49.3051V11V10.4175V10.3175H49.2051H48.274L44.5478 1.07716L44.5225 1.01456H44.455H43.6462H43.5787L43.5535 1.07706L39.8157 10.3175H38.8577H38.7577V10.4175V11V11.1H38.8577H41.7838H41.8838V11V10.4175ZM54.2788 10.9391L57.8736 1.68835H58.9114H59.0114V1.58835V1.00583V0.905825H58.9114H55.9853H55.8853V1.00583V1.58835V1.68835H55.9853H56.8334L53.7814 9.65767L50.7418 1.68252H51.5305H51.6305V1.58252V1V0.9H51.5305H48.6045H48.5045V1V1.58252V1.68252H48.6045H49.6865L53.2836 10.9391L53.3083 11.0029H53.3768H54.1856H54.2541L54.2788 10.9391ZM35.1094 10.9316L37.8727 1.69418H39.4927H39.5927V1.59418V1.01165V0.911651H39.4927H35.1774H35.0774V1.01165V1.59418V1.69418H35.1774H36.8552L34.5001 9.57453L31.7459 1.08371L31.7235 1.01456H31.6508H30.7327H30.6598L30.6375 1.08393L27.9052 9.57329L25.5505 1.69418H27.3153H27.4153V1.59418V1.01165V0.911651H27.3153H23H22.9V1.01165V1.59418V1.69418H23H24.5345L27.3227 10.9318L27.3441 11.0029H27.4184H28.3506H28.4232L28.4457 10.9339L31.2277 2.40337L33.9862 10.9337L34.0086 11.0029H34.0814H35.0136H35.0881L35.1094 10.9316ZM41.9314 7.61456L44.0566 2.29489L46.18 7.61456H41.9314Z" fill="#1FA4B5" stroke="#1FA4B5" stroke-width="0.2"/>
<mask id="path-2-outside-1_103_2298" maskUnits="userSpaceOnUse" x="0" y="15" width="89" height="12" fill="black">
<rect fill="white" y="15" width="89" height="12"/>
<path d="M53.0323 20.9981C53.0323 18.2796 55.3972 16.1049 58.4024 16.1049C61.4076 16.1049 63.7725 18.2874 63.7725 20.9981C63.7725 23.7087 61.4076 25.8932 58.4024 25.8932C55.3972 25.8932 53.0323 23.7107 53.0323 20.9981ZM62.9815 20.9981C62.9815 18.668 60.9739 16.7961 58.4003 16.7961C55.8268 16.7961 53.8192 18.666 53.8192 20.9981C53.8192 23.3301 55.8268 25.2019 58.4003 25.2019C60.9739 25.2019 62.9815 23.3301 62.9815 20.9981Z"/>
<path d="M10.5319 16.3495V25.8505H9.74296V21.3029H3.68918V25.8505H2.90225V16.3495H3.68918V20.6214H9.74296V16.3495H10.5319Z"/>
<path d="M5.61416 16H1.20654V16.5825H5.61416V16Z"/>
<path d="M12.3599 16H7.95224V16.5825H12.3599V16Z"/>
<path d="M5.40762 25.4175H1V26H5.40762V25.4175Z"/>
<path d="M12.3599 25.4175H7.95224V26H12.3599V25.4175Z"/>
<path d="M22.2925 23.4039H17.0732L16.0611 25.8932H15.2349L19.279 16.1068H20.1052L24.1369 25.8932H23.3108L22.2925 23.4039ZM22.0095 22.699L19.7004 17.0155L17.3706 22.699H22.0095Z"/>
<path d="M17.1207 25.4175H14.132V26H17.1207V25.4175Z"/>
<path d="M25.1077 25.4175H22.119V26H25.1077V25.4175Z"/>
<path d="M32.506 21.8816H29.2014V25.8932H28.4124V16.1068H32.5164C33.2628 16.1051 33.9842 16.3592 34.5457 16.8215C35.1073 17.2837 35.4704 17.9225 35.5671 18.6183C35.6638 19.3141 35.4875 20.0192 35.0712 20.6016C34.6549 21.184 34.0271 21.6038 33.3054 21.7825L35.8934 25.8932H34.9846L32.506 21.8816ZM29.2014 21.1825H32.5164C33.1337 21.1825 33.7258 20.952 34.1623 20.5416C34.5989 20.1312 34.8441 19.5746 34.8441 18.9942C34.8441 18.4138 34.5989 17.8572 34.1623 17.4468C33.7258 17.0364 33.1337 16.8058 32.5164 16.8058H29.2014V21.1825Z"/>
<path d="M30.3539 25.4175H27.3652V26H30.3539V25.4175Z"/>
<path d="M36.7774 25.4175H33.7887V26H36.7774V25.4175Z"/>
<path d="M49.9238 25.8932H49.1369V17.1961L45.2848 23.2155H45.1506L41.2986 17.1961V25.8932H40.5096V16.1068H41.4927L45.2105 21.8951L48.9283 16.1068H49.9238V25.8932Z"/>
<path d="M42.3396 25.4175H39.3509V26H42.3396V25.4175Z"/>
<path d="M51.0639 25.4175H48.0753V26H51.0639V25.4175Z"/>
<path d="M74.5417 16.0971V25.8932H73.8146L67.6989 17.4757V25.8951H66.912V16.0971H67.5956L73.7527 24.5243V16.0971H74.5417Z"/>
<path d="M68.8948 25.4175H65.9061V26H68.8948V25.4175Z"/>
<path d="M75.6074 16H72.6187V16.5825H75.6074V16Z"/>
<path d="M83.297 21.9223V25.8854H82.508V21.9223L78.7159 16.2563H79.6082L82.9128 21.2214L86.2072 16.2582H87.0995L83.297 21.9223Z"/>
<path d="M80.771 16H77.7823V16.5825H80.771V16Z"/>
<path d="M88 16H85.0113V16.5825H88V16Z"/>
<path d="M84.3958 25.4175H81.4072V26H84.3958V25.4175Z"/>
</mask>
<path d="M53.0323 20.9981C53.0323 18.2796 55.3972 16.1049 58.4024 16.1049C61.4076 16.1049 63.7725 18.2874 63.7725 20.9981C63.7725 23.7087 61.4076 25.8932 58.4024 25.8932C55.3972 25.8932 53.0323 23.7107 53.0323 20.9981ZM62.9815 20.9981C62.9815 18.668 60.9739 16.7961 58.4003 16.7961C55.8268 16.7961 53.8192 18.666 53.8192 20.9981C53.8192 23.3301 55.8268 25.2019 58.4003 25.2019C60.9739 25.2019 62.9815 23.3301 62.9815 20.9981Z" fill="#1FA4B5"/>
<path d="M10.5319 16.3495V25.8505H9.74296V21.3029H3.68918V25.8505H2.90225V16.3495H3.68918V20.6214H9.74296V16.3495H10.5319Z" fill="#1FA4B5"/>
<path d="M5.61416 16H1.20654V16.5825H5.61416V16Z" fill="#1FA4B5"/>
<path d="M12.3599 16H7.95224V16.5825H12.3599V16Z" fill="#1FA4B5"/>
<path d="M5.40762 25.4175H1V26H5.40762V25.4175Z" fill="#1FA4B5"/>
<path d="M12.3599 25.4175H7.95224V26H12.3599V25.4175Z" fill="#1FA4B5"/>
<path d="M22.2925 23.4039H17.0732L16.0611 25.8932H15.2349L19.279 16.1068H20.1052L24.1369 25.8932H23.3108L22.2925 23.4039ZM22.0095 22.699L19.7004 17.0155L17.3706 22.699H22.0095Z" fill="#1FA4B5"/>
<path d="M17.1207 25.4175H14.132V26H17.1207V25.4175Z" fill="#1FA4B5"/>
<path d="M25.1077 25.4175H22.119V26H25.1077V25.4175Z" fill="#1FA4B5"/>
<path d="M32.506 21.8816H29.2014V25.8932H28.4124V16.1068H32.5164C33.2628 16.1051 33.9842 16.3592 34.5457 16.8215C35.1073 17.2837 35.4704 17.9225 35.5671 18.6183C35.6638 19.3141 35.4875 20.0192 35.0712 20.6016C34.6549 21.184 34.0271 21.6038 33.3054 21.7825L35.8934 25.8932H34.9846L32.506 21.8816ZM29.2014 21.1825H32.5164C33.1337 21.1825 33.7258 20.952 34.1623 20.5416C34.5989 20.1312 34.8441 19.5746 34.8441 18.9942C34.8441 18.4138 34.5989 17.8572 34.1623 17.4468C33.7258 17.0364 33.1337 16.8058 32.5164 16.8058H29.2014V21.1825Z" fill="#1FA4B5"/>
<path d="M30.3539 25.4175H27.3652V26H30.3539V25.4175Z" fill="#1FA4B5"/>
<path d="M36.7774 25.4175H33.7887V26H36.7774V25.4175Z" fill="#1FA4B5"/>
<path d="M49.9238 25.8932H49.1369V17.1961L45.2848 23.2155H45.1506L41.2986 17.1961V25.8932H40.5096V16.1068H41.4927L45.2105 21.8951L48.9283 16.1068H49.9238V25.8932Z" fill="#1FA4B5"/>
<path d="M42.3396 25.4175H39.3509V26H42.3396V25.4175Z" fill="#1FA4B5"/>
<path d="M51.0639 25.4175H48.0753V26H51.0639V25.4175Z" fill="#1FA4B5"/>
<path d="M74.5417 16.0971V25.8932H73.8146L67.6989 17.4757V25.8951H66.912V16.0971H67.5956L73.7527 24.5243V16.0971H74.5417Z" fill="#1FA4B5"/>
<path d="M68.8948 25.4175H65.9061V26H68.8948V25.4175Z" fill="#1FA4B5"/>
<path d="M75.6074 16H72.6187V16.5825H75.6074V16Z" fill="#1FA4B5"/>
<path d="M83.297 21.9223V25.8854H82.508V21.9223L78.7159 16.2563H79.6082L82.9128 21.2214L86.2072 16.2582H87.0995L83.297 21.9223Z" fill="#1FA4B5"/>
<path d="M80.771 16H77.7823V16.5825H80.771V16Z" fill="#1FA4B5"/>
<path d="M88 16H85.0113V16.5825H88V16Z" fill="#1FA4B5"/>
<path d="M84.3958 25.4175H81.4072V26H84.3958V25.4175Z" fill="#1FA4B5"/>
<path d="M1.20654 16.3913H5.61416V16.1913H1.20654V16.3913ZM7.95224 16.3913H12.3619V16.1913H7.95224V16.3913ZM1 25.834H5.40762V25.634H1V25.834ZM7.95224 25.834H12.3599V25.634H7.95224V25.834ZM10.5319 16.3495H10.7319V16.1495H10.5319V16.3495ZM10.5319 25.8505V26.0505H10.7319V25.8505H10.5319ZM9.74296 25.8505H9.54296V26.0505H9.74296V25.8505ZM9.74296 21.3029H9.94296V21.1029H9.74296V21.3029ZM3.68918 21.3029V21.1029H3.48918V21.3029H3.68918ZM3.68918 25.8505V26.0505H3.88918V25.8505H3.68918ZM2.90225 25.8505H2.70225V26.0505H2.90225V25.8505ZM2.90225 16.3495V16.1495H2.70225V16.3495H2.90225ZM3.68918 16.3495H3.88918V16.1495H3.68918V16.3495ZM3.68918 20.6214H3.48918V20.8214H3.68918V20.6214ZM9.74296 20.6214V20.8214H9.94296V20.6214H9.74296ZM9.74296 16.3495V16.1495H9.54296V16.3495H9.74296ZM1.20654 16V15.8H1.00654V16H1.20654ZM5.61416 16H5.81416V15.8H5.61416V16ZM5.61416 16.5825V16.7825H5.81416V16.5825H5.61416ZM1.20654 16.5825H1.00654V16.7825H1.20654V16.5825ZM7.95224 16V15.8H7.75224V16H7.95224ZM12.3599 16H12.5599V15.8H12.3599V16ZM12.3599 16.5825V16.7825H12.5599V16.5825H12.3599ZM7.95224 16.5825H7.75224V16.7825H7.95224V16.5825ZM1 25.4175V25.2175H0.8V25.4175H1ZM5.40762 25.4175H5.60762V25.2175H5.40762V25.4175ZM5.40762 26V26.2H5.60762V26H5.40762ZM1 26H0.8V26.2H1V26ZM7.95224 25.4175V25.2175H7.75224V25.4175H7.95224ZM12.3599 25.4175H12.5599V25.2175H12.3599V25.4175ZM12.3599 26V26.2H12.5599V26H12.3599ZM7.95224 26H7.75224V26.2H7.95224V26ZM22.2925 23.4039L22.4776 23.3282L22.4268 23.2039H22.2925V23.4039ZM17.0732 23.4039V23.2039H16.9386L16.8879 23.3286L17.0732 23.4039ZM16.0611 25.8932V26.0932H16.1957L16.2464 25.9685L16.0611 25.8932ZM15.2349 25.8932L15.0501 25.8168L14.9359 26.0932H15.2349V25.8932ZM19.279 16.1068V15.9068H19.1453L19.0942 16.0304L19.279 16.1068ZM20.1052 16.1068L20.2901 16.0306L20.2391 15.9068H20.1052V16.1068ZM24.1369 25.8932V26.0932H24.4356L24.3218 25.817L24.1369 25.8932ZM23.3108 25.8932L23.1256 25.9689L23.1765 26.0932H23.3108V25.8932ZM22.0095 22.699V22.899H22.3067L22.1948 22.6237L22.0095 22.699ZM19.7004 17.0155L19.8857 16.9403L19.7012 16.4862L19.5153 16.9397L19.7004 17.0155ZM17.3706 22.699L17.1855 22.6232L17.0725 22.899H17.3706V22.699ZM14.132 25.4175V25.2175H13.932V25.4175H14.132ZM17.1207 25.4175H17.3207V25.2175H17.1207V25.4175ZM17.1207 26V26.2H17.3207V26H17.1207ZM14.132 26H13.932V26.2H14.132V26ZM22.119 25.4175V25.2175H21.919V25.4175H22.119ZM25.1077 25.4175H25.3077V25.2175H25.1077V25.4175ZM25.1077 26V26.2H25.3077V26H25.1077ZM22.119 26H21.919V26.2H22.119V26ZM32.506 21.8816L32.6762 21.7764L32.6176 21.6816H32.506V21.8816ZM29.2014 21.8816V21.6816H29.0014V21.8816H29.2014ZM29.2014 25.8932V26.0932H29.4014V25.8932H29.2014ZM28.4124 25.8932H28.2124V26.0932H28.4124V25.8932ZM28.4124 16.1068V15.9068H28.2124V16.1068H28.4124ZM32.5164 16.1068V16.3068L32.5168 16.3068L32.5164 16.1068ZM33.3054 21.7825L33.2573 21.5884L32.9887 21.6549L33.1361 21.8891L33.3054 21.7825ZM35.8934 25.8932V26.0932H36.2556L36.0626 25.7867L35.8934 25.8932ZM34.9846 25.8932L34.8144 25.9983L34.873 26.0932H34.9846V25.8932ZM29.2014 21.1825H29.0014V21.3825H29.2014V21.1825ZM29.2014 16.8058V16.6058H29.0014V16.8058H29.2014ZM27.3652 25.4175V25.2175H27.1652V25.4175H27.3652ZM30.3539 25.4175H30.5539V25.2175H30.3539V25.4175ZM30.3539 26V26.2H30.5539V26H30.3539ZM27.3652 26H27.1652V26.2H27.3652V26ZM33.7887 25.4175V25.2175H33.5887V25.4175H33.7887ZM36.7774 25.4175H36.9774V25.2175H36.7774V25.4175ZM36.7774 26V26.2H36.9774V26H36.7774ZM33.7887 26H33.5887V26.2H33.7887V26ZM49.9238 25.8932V26.0932H50.1238V25.8932H49.9238ZM49.1369 25.8932H48.9369V26.0932H49.1369V25.8932ZM49.1369 17.1961H49.3369V16.5125L48.9684 17.0883L49.1369 17.1961ZM45.2848 23.2155V23.4155H45.3943L45.4533 23.3233L45.2848 23.2155ZM45.1506 23.2155L44.9821 23.3233L45.0411 23.4155H45.1506V23.2155ZM41.2986 17.1961L41.467 17.0883L41.0986 16.5125V17.1961H41.2986ZM41.2986 25.8932V26.0932H41.4986V25.8932H41.2986ZM40.5096 25.8932H40.3096V26.0932H40.5096V25.8932ZM40.5096 16.1068V15.9068H40.3096V16.1068H40.5096ZM41.4927 16.1068L41.661 15.9987L41.602 15.9068H41.4927V16.1068ZM45.2105 21.8951L45.0422 22.0032L45.2105 22.2652L45.3788 22.0032L45.2105 21.8951ZM48.9283 16.1068V15.9068H48.819L48.76 15.9987L48.9283 16.1068ZM49.9238 16.1068H50.1238V15.9068H49.9238V16.1068ZM39.3509 25.4175V25.2175H39.1509V25.4175H39.3509ZM42.3396 25.4175H42.5396V25.2175H42.3396V25.4175ZM42.3396 26V26.2H42.5396V26H42.3396ZM39.3509 26H39.1509V26.2H39.3509V26ZM48.0753 25.4175V25.2175H47.8753V25.4175H48.0753ZM51.0639 25.4175H51.2639V25.2175H51.0639V25.4175ZM51.0639 26V26.2H51.2639V26H51.0639ZM48.0753 26H47.8753V26.2H48.0753V26ZM74.5417 16.0971H74.7417V15.8971H74.5417V16.0971ZM74.5417 25.8932V26.0932H74.7417V25.8932H74.5417ZM73.8146 25.8932L73.6528 26.0108L73.7127 26.0932H73.8146V25.8932ZM67.6989 17.4757L67.8607 17.3582L67.4989 16.8602V17.4757H67.6989ZM67.6989 25.8951V26.0951H67.8989V25.8951H67.6989ZM66.912 25.8951H66.712V26.0951H66.912V25.8951ZM66.912 16.0971V15.8971H66.712V16.0971H66.912ZM67.5956 16.0971L67.7571 15.9791L67.6972 15.8971H67.5956V16.0971ZM73.7527 24.5243L73.5912 24.6423L73.9527 25.137V24.5243H73.7527ZM73.7527 16.0971V15.8971H73.5527V16.0971H73.7527ZM65.9061 25.4175V25.2175H65.7061V25.4175H65.9061ZM68.8948 25.4175H69.0948V25.2175H68.8948V25.4175ZM68.8948 26V26.2H69.0948V26H68.8948ZM65.9061 26H65.7061V26.2H65.9061V26ZM72.6187 16V15.8H72.4187V16H72.6187ZM75.6074 16H75.8074V15.8H75.6074V16ZM75.6074 16.5825V16.7825H75.8074V16.5825H75.6074ZM72.6187 16.5825H72.4187V16.7825H72.6187V16.5825ZM83.297 21.9223L83.131 21.8109L83.097 21.8614V21.9223H83.297ZM83.297 25.8854V26.0854H83.497V25.8854H83.297ZM82.508 25.8854H82.308V26.0854H82.508V25.8854ZM82.508 21.9223H82.708V21.8616L82.6742 21.8111L82.508 21.9223ZM78.7159 16.2563V16.0563H78.3414L78.5497 16.3676L78.7159 16.2563ZM79.6082 16.2563L79.7747 16.1455L79.7153 16.0563H79.6082V16.2563ZM82.9128 21.2214L82.7463 21.3322L82.9131 21.5827L83.0795 21.332L82.9128 21.2214ZM86.2072 16.2582V16.0582H86.0999L86.0406 16.1476L86.2072 16.2582ZM87.0995 16.2582L87.2655 16.3697L87.4746 16.0582H87.0995V16.2582ZM77.7823 16V15.8H77.5823V16H77.7823ZM80.771 16H80.971V15.8H80.771V16ZM80.771 16.5825V16.7825H80.971V16.5825H80.771ZM77.7823 16.5825H77.5823V16.7825H77.7823V16.5825ZM85.0113 16V15.8H84.8113V16H85.0113ZM88 16H88.2V15.8H88V16ZM88 16.5825V16.7825H88.2V16.5825H88ZM85.0113 16.5825H84.8113V16.7825H85.0113V16.5825ZM81.4072 25.4175V25.2175H81.2072V25.4175H81.4072ZM84.3958 25.4175H84.5958V25.2175H84.3958V25.4175ZM84.3958 26V26.2H84.5958V26H84.3958ZM81.4072 26H81.2072V26.2H81.4072V26ZM53.2323 20.9981C53.2323 18.4067 55.4903 16.3049 58.4024 16.3049V15.9049C55.3041 15.9049 52.8323 18.1526 52.8323 20.9981H53.2323ZM58.4024 16.3049C61.3143 16.3049 63.5725 18.4142 63.5725 20.9981H63.9725C63.9725 18.1605 61.5009 15.9049 58.4024 15.9049V16.3049ZM63.5725 20.9981C63.5725 23.582 61.3142 25.6932 58.4024 25.6932V26.0932C61.501 26.0932 63.9725 23.8355 63.9725 20.9981H63.5725ZM58.4024 25.6932C55.4906 25.6932 53.2323 23.5839 53.2323 20.9981H52.8323C52.8323 23.8375 55.3038 26.0932 58.4024 26.0932V25.6932ZM63.1815 20.9981C63.1815 18.5425 61.0687 16.5961 58.4003 16.5961V16.9961C60.879 16.9961 62.7815 18.7934 62.7815 20.9981H63.1815ZM58.4003 16.5961C55.7321 16.5961 53.6192 18.5405 53.6192 20.9981H54.0192C54.0192 18.7915 55.9216 16.9961 58.4003 16.9961V16.5961ZM53.6192 20.9981C53.6192 23.4555 55.7319 25.4019 58.4003 25.4019V25.0019C55.9217 25.0019 54.0192 23.2047 54.0192 20.9981H53.6192ZM58.4003 25.4019C61.0688 25.4019 63.1815 23.4555 63.1815 20.9981H62.7815C62.7815 23.2047 60.879 25.0019 58.4003 25.0019V25.4019ZM10.3319 16.3495V25.8505H10.7319V16.3495H10.3319ZM10.5319 25.6505H9.74296V26.0505H10.5319V25.6505ZM9.94296 25.8505V21.3029H9.54296V25.8505H9.94296ZM9.74296 21.1029H3.68918V21.5029H9.74296V21.1029ZM3.48918 21.3029V25.8505H3.88918V21.3029H3.48918ZM3.68918 25.6505H2.90225V26.0505H3.68918V25.6505ZM3.10225 25.8505V16.3495H2.70225V25.8505H3.10225ZM2.90225 16.5495H3.68918V16.1495H2.90225V16.5495ZM3.48918 16.3495V20.6214H3.88918V16.3495H3.48918ZM3.68918 20.8214H9.74296V20.4214H3.68918V20.8214ZM9.94296 20.6214V16.3495H9.54296V20.6214H9.94296ZM9.74296 16.5495H10.5319V16.1495H9.74296V16.5495ZM1.20654 16.2H5.61416V15.8H1.20654V16.2ZM5.41416 16V16.5825H5.81416V16H5.41416ZM5.61416 16.3825H1.20654V16.7825H5.61416V16.3825ZM1.40654 16.5825V16H1.00654V16.5825H1.40654ZM7.95224 16.2H12.3599V15.8H7.95224V16.2ZM12.1599 16V16.5825H12.5599V16H12.1599ZM12.3599 16.3825H7.95224V16.7825H12.3599V16.3825ZM8.15224 16.5825V16H7.75224V16.5825H8.15224ZM1 25.6175H5.40762V25.2175H1V25.6175ZM5.20762 25.4175V26H5.60762V25.4175H5.20762ZM5.40762 25.8H1V26.2H5.40762V25.8ZM1.2 26V25.4175H0.8V26H1.2ZM7.95224 25.6175H12.3599V25.2175H7.95224V25.6175ZM12.1599 25.4175V26H12.5599V25.4175H12.1599ZM12.3599 25.8H7.95224V26.2H12.3599V25.8ZM8.15224 26V25.4175H7.75224V26H8.15224ZM22.2925 23.2039H17.0732V23.6039H22.2925V23.2039ZM16.8879 23.3286L15.8758 25.8179L16.2464 25.9685L17.2584 23.4792L16.8879 23.3286ZM16.0611 25.6932H15.2349V26.0932H16.0611V25.6932ZM15.4198 25.9696L19.4639 16.1832L19.0942 16.0304L15.0501 25.8168L15.4198 25.9696ZM19.279 16.3068H20.1052V15.9068H19.279V16.3068ZM19.9203 16.183L23.952 25.9694L24.3218 25.817L20.2901 16.0306L19.9203 16.183ZM24.1369 25.6932H23.3108V26.0932H24.1369V25.6932ZM23.4959 25.8175L22.4776 23.3282L22.1074 23.4796L23.1256 25.9689L23.4959 25.8175ZM22.1948 22.6237L19.8857 16.9403L19.5151 17.0908L21.8242 22.7743L22.1948 22.6237ZM19.5153 16.9397L17.1855 22.6232L17.5556 22.7749L19.8854 17.0914L19.5153 16.9397ZM17.3706 22.899H22.0095V22.499H17.3706V22.899ZM14.132 25.6175H17.1207V25.2175H14.132V25.6175ZM16.9207 25.4175V26H17.3207V25.4175H16.9207ZM17.1207 25.8H14.132V26.2H17.1207V25.8ZM14.332 26V25.4175H13.932V26H14.332ZM22.119 25.6175H25.1077V25.2175H22.119V25.6175ZM24.9077 25.4175V26H25.3077V25.4175H24.9077ZM25.1077 25.8H22.119V26.2H25.1077V25.8ZM22.319 26V25.4175H21.919V26H22.319ZM32.506 21.6816H29.2014V22.0816H32.506V21.6816ZM29.0014 21.8816V25.8932H29.4014V21.8816H29.0014ZM29.2014 25.6932H28.4124V26.0932H29.2014V25.6932ZM28.6124 25.8932V16.1068H28.2124V25.8932H28.6124ZM28.4124 16.3068H32.5164V15.9068H28.4124V16.3068ZM32.5168 16.3068C33.218 16.3052 33.894 16.544 34.4186 16.9759L34.6729 16.6671C34.0744 16.1744 33.3075 15.905 32.5159 15.9068L32.5168 16.3068ZM34.4186 16.9759C34.9429 17.4075 35.2794 18.0017 35.369 18.6459L35.7652 18.5908C35.6613 17.8434 35.2716 17.16 34.6729 16.6671L34.4186 16.9759ZM35.369 18.6459C35.4585 19.2899 35.2957 19.9436 34.9085 20.4853L35.2339 20.7179C35.6794 20.0947 35.8691 19.3383 35.7652 18.5908L35.369 18.6459ZM34.9085 20.4853C34.5211 21.0273 33.9348 21.4207 33.2573 21.5884L33.3534 21.9767C34.1195 21.787 34.7888 21.3407 35.2339 20.7179L34.9085 20.4853ZM33.1361 21.8891L35.7241 25.9998L36.0626 25.7867L33.4746 21.676L33.1361 21.8891ZM35.8934 25.6932H34.9846V26.0932H35.8934V25.6932ZM35.1547 25.7881L32.6762 21.7764L32.3359 21.9867L34.8144 25.9983L35.1547 25.7881ZM29.2014 21.3825H32.5164V20.9825H29.2014V21.3825ZM32.5164 21.3825C33.1829 21.3825 33.8245 21.1337 34.2993 20.6873L34.0253 20.3959C33.6271 20.7702 33.0845 20.9825 32.5164 20.9825V21.3825ZM34.2993 20.6873C34.7746 20.2405 35.0441 19.6317 35.0441 18.9942H34.6441C34.6441 19.5174 34.4231 20.0219 34.0253 20.3959L34.2993 20.6873ZM35.0441 18.9942C35.0441 18.3566 34.7746 17.7479 34.2993 17.3011L34.0253 17.5925C34.4231 17.9665 34.6441 18.471 34.6441 18.9942H35.0441ZM34.2993 17.3011C33.8245 16.8546 33.1829 16.6058 32.5164 16.6058V17.0058C33.0845 17.0058 33.6271 17.2181 34.0253 17.5925L34.2993 17.3011ZM32.5164 16.6058H29.2014V17.0058H32.5164V16.6058ZM29.0014 16.8058V21.1825H29.4014V16.8058H29.0014ZM27.3652 25.6175H30.3539V25.2175H27.3652V25.6175ZM30.1539 25.4175V26H30.5539V25.4175H30.1539ZM30.3539 25.8H27.3652V26.2H30.3539V25.8ZM27.5652 26V25.4175H27.1652V26H27.5652ZM33.7887 25.6175H36.7774V25.2175H33.7887V25.6175ZM36.5774 25.4175V26H36.9774V25.4175H36.5774ZM36.7774 25.8H33.7887V26.2H36.7774V25.8ZM33.9887 26V25.4175H33.5887V26H33.9887ZM49.9238 25.6932H49.1369V26.0932H49.9238V25.6932ZM49.3369 25.8932V17.1961H48.9369V25.8932H49.3369ZM48.9684 17.0883L45.1164 23.1077L45.4533 23.3233L49.3054 17.3039L48.9684 17.0883ZM45.2848 23.0155H45.1506V23.4155H45.2848V23.0155ZM45.3191 23.1077L41.467 17.0883L41.1301 17.3039L44.9821 23.3233L45.3191 23.1077ZM41.0986 17.1961V25.8932H41.4986V17.1961H41.0986ZM41.2986 25.6932H40.5096V26.0932H41.2986V25.6932ZM40.7096 25.8932V16.1068H40.3096V25.8932H40.7096ZM40.5096 16.3068H41.4927V15.9068H40.5096V16.3068ZM41.3245 16.2149L45.0422 22.0032L45.3788 21.7871L41.661 15.9987L41.3245 16.2149ZM45.3788 22.0032L49.0966 16.2149L48.76 15.9987L45.0422 21.7871L45.3788 22.0032ZM48.9283 16.3068H49.9238V15.9068H48.9283V16.3068ZM49.7238 16.1068V25.8932H50.1238V16.1068H49.7238ZM39.3509 25.6175H42.3396V25.2175H39.3509V25.6175ZM42.1396 25.4175V26H42.5396V25.4175H42.1396ZM42.3396 25.8H39.3509V26.2H42.3396V25.8ZM39.5509 26V25.4175H39.1509V26H39.5509ZM48.0753 25.6175H51.0639V25.2175H48.0753V25.6175ZM50.8639 25.4175V26H51.2639V25.4175H50.8639ZM51.0639 25.8H48.0753V26.2H51.0639V25.8ZM48.2753 26V25.4175H47.8753V26H48.2753ZM74.3417 16.0971V25.8932H74.7417V16.0971H74.3417ZM74.5417 25.6932H73.8146V26.0932H74.5417V25.6932ZM73.9764 25.7756L67.8607 17.3582L67.5371 17.5933L73.6528 26.0108L73.9764 25.7756ZM67.4989 17.4757V25.8951H67.8989V17.4757H67.4989ZM67.6989 25.6951H66.912V26.0951H67.6989V25.6951ZM67.112 25.8951V16.0971H66.712V25.8951H67.112ZM66.912 16.2971H67.5956V15.8971H66.912V16.2971ZM67.4341 16.2151L73.5912 24.6423L73.9142 24.4063L67.7571 15.9791L67.4341 16.2151ZM73.9527 24.5243V16.0971H73.5527V24.5243H73.9527ZM73.7527 16.2971H74.5417V15.8971H73.7527V16.2971ZM65.9061 25.6175H68.8948V25.2175H65.9061V25.6175ZM68.6948 25.4175V26H69.0948V25.4175H68.6948ZM68.8948 25.8H65.9061V26.2H68.8948V25.8ZM66.1061 26V25.4175H65.7061V26H66.1061ZM72.6187 16.2H75.6074V15.8H72.6187V16.2ZM75.4074 16V16.5825H75.8074V16H75.4074ZM75.6074 16.3825H72.6187V16.7825H75.6074V16.3825ZM72.8187 16.5825V16H72.4187V16.5825H72.8187ZM83.097 21.9223V25.8854H83.497V21.9223H83.097ZM83.297 25.6854H82.508V26.0854H83.297V25.6854ZM82.708 25.8854V21.9223H82.308V25.8854H82.708ZM82.6742 21.8111L78.8821 16.1451L78.5497 16.3676L82.3418 22.0336L82.6742 21.8111ZM78.7159 16.4563H79.6082V16.0563H78.7159V16.4563ZM79.4417 16.3671L82.7463 21.3322L83.0793 21.1105L79.7747 16.1455L79.4417 16.3671ZM83.0795 21.332L86.3738 16.3689L86.0406 16.1476L82.7462 21.1108L83.0795 21.332ZM86.2072 16.4582H87.0995V16.0582H86.2072V16.4582ZM86.9334 16.1468L83.131 21.8109L83.4631 22.0338L87.2655 16.3697L86.9334 16.1468ZM77.7823 16.2H80.771V15.8H77.7823V16.2ZM80.571 16V16.5825H80.971V16H80.571ZM80.771 16.3825H77.7823V16.7825H80.771V16.3825ZM77.9823 16.5825V16H77.5823V16.5825H77.9823ZM85.0113 16.2H88V15.8H85.0113V16.2ZM87.8 16V16.5825H88.2V16H87.8ZM88 16.3825H85.0113V16.7825H88V16.3825ZM85.2113 16.5825V16H84.8113V16.5825H85.2113ZM81.4072 25.6175H84.3958V25.2175H81.4072V25.6175ZM84.1958 25.4175V26H84.5958V25.4175H84.1958ZM84.3958 25.8H81.4072V26.2H84.3958V25.8ZM81.6072 26V25.4175H81.2072V26H81.6072Z" fill="#1FA4B5" mask="url(#path-2-outside-1_103_2298)"/>
</svg>
