<svg width="33" height="20" viewBox="0 0 33 20" fill="none" xmlns="http://www.w3.org/2000/svg">
<path fill-rule="evenodd" clip-rule="evenodd" d="M33.0001 10C33.0001 15.5228 28.4311 20 22.795 20C17.1588 20 12.5898 15.5228 12.5898 10C12.5898 4.47715 17.1588 0 22.795 0C28.4311 0 33.0001 4.47715 33.0001 10Z" fill="#F79F1A"/>
<path fill-rule="evenodd" clip-rule="evenodd" d="M20.4103 10C20.4103 15.5228 15.8413 20 10.2051 20C4.56899 20 0 15.5228 0 10C0 4.47715 4.56899 0 10.2051 0C15.8413 0 20.4103 4.47715 20.4103 10Z" fill="#EA001B"/>
<path fill-rule="evenodd" clip-rule="evenodd" d="M16.4994 2.12793C14.1183 3.9586 12.5898 6.80336 12.5898 9.99907C12.5898 13.1948 14.1183 16.0417 16.4994 17.8724C18.8805 16.0417 20.409 13.1948 20.409 9.99907C20.409 6.80336 18.8805 3.9586 16.4994 2.12793Z" fill="#FF5F01"/>
</svg>
