<svg width="53" height="22" viewBox="0 0 53 22" fill="none" xmlns="http://www.w3.org/2000/svg">
<path d="M21.3676 2.31482L18.6443 18.8951H22.9387L25.6621 2.31482H21.3676Z" fill="#0072FF"/>
<path d="M46.1917 2.31482C45.1443 2.31482 44.4111 2.62963 43.9921 3.67901L37.6028 19H42.1067C42.1067 19 42.8399 16.9012 43.0494 16.4815C43.5731 16.4815 47.8676 16.4815 48.496 16.4815C48.6008 17.1111 49.0198 19 49.0198 19H53L49.5435 2.31482H46.1917ZM44.2016 13.0185C44.5158 12.0741 45.8775 8.40123 45.8775 8.40123C45.8775 8.40123 46.1917 7.45679 46.4012 6.82716L46.7154 8.2963C46.7154 8.2963 47.5534 12.284 47.7628 13.1235H44.2016V13.0185Z" fill="#0072FF"/>
<path d="M34.251 9.03086C32.7846 8.2963 31.8419 7.77161 31.8419 6.9321C31.8419 6.19753 32.5751 5.46296 34.251 5.46296C35.6127 5.46296 36.6601 5.77778 37.498 6.09259L37.917 6.30247L38.5455 2.73457C37.7075 2.41975 36.3458 2 34.67 2C30.4802 2 27.4427 4.30864 27.4427 7.45679C27.4427 9.87037 29.5376 11.2346 31.2134 11.9691C32.8893 12.8086 33.413 13.3333 33.413 14.0679C33.413 15.2222 32.0514 15.642 30.7945 15.642C29.1186 15.642 28.1759 15.4321 26.7095 14.8025L26.1858 14.4877L25.5573 18.1605C26.6047 18.5802 28.3854 19 30.3755 19C34.8795 19 37.8123 16.7963 37.8123 13.3333C37.917 11.6543 36.7648 10.1852 34.251 9.03086Z" fill="#0072FF"/>
<path d="M15.083 2.31482L10.8933 13.6482L10.4743 11.3395L9.00791 3.67901C8.79842 2.62963 7.96047 2.31482 7.01779 2.31482H0.209486C0.104743 2.31482 0.104743 2.41975 0 2.41975C0 2.52469 3.98002e-07 2.62963 0.104743 2.62963C1.15217 2.94444 2.09486 3.25926 2.93281 3.67901C3.87549 4.09877 4.50395 4.93827 4.81818 5.88272L8.2747 18.8951H12.7787L19.4822 2.31482H15.083Z" fill="#0072FF"/>
</svg>
