<svg width="19" height="20" viewBox="0 0 19 20" xmlns="http://www.w3.org/2000/svg">
<path d="M11.6576 6.30974C11.8953 6.54701 12.4063 6.46821 12.4685 6.13816C12.499 5.97638 12.6403 5.85922 12.8049 5.85922H13.2297C13.7656 5.85922 14.1693 6.3469 14.0692 6.87344L13.2636 11.1103C13.1611 11.6328 13.1099 12.0247 13.1099 12.2859C13.1099 12.6517 13.1953 12.9216 13.366 13.0958C13.5366 13.2525 13.7244 13.3309 13.9292 13.3309C14.4754 13.3309 14.9875 12.9826 15.4654 12.2859C15.7555 11.8679 15.9774 11.3106 16.131 10.6139C16.2846 9.91727 16.3614 9.29898 16.3614 8.75907C16.3614 7.13933 15.8067 5.70247 14.6973 4.44848C13.6049 3.19448 12.0346 2.56749 9.98645 2.56749C7.92118 2.56749 6.18022 3.29028 4.76355 4.73585C3.34689 6.18142 2.63855 7.97533 2.63855 10.1176C2.63855 11.6502 3.03112 13.0348 3.81627 14.2714C4.60141 15.508 5.67671 16.3875 7.04217 16.91C7.89558 17.2583 8.86847 17.4325 9.96084 17.4325C11.4919 17.4325 12.9265 17.1951 14.2646 16.7202C14.7406 16.5513 15.277 16.8038 15.4081 17.2916C15.5143 17.6869 15.3137 18.1029 14.9277 18.2388C13.4869 18.7463 11.8739 19 10.0889 19C7.56275 19 5.49749 18.2946 3.89307 16.8839C1.96436 15.1597 1 12.8955 1 10.0914C1 7.46154 1.84488 5.29318 3.53464 3.58636C5.2244 1.86212 7.3494 1 9.90964 1C12.2139 1 14.134 1.70537 15.6702 3.11611C17.2234 4.50943 18 6.38171 18 8.73295C18 10.5791 17.5904 12.0595 16.7711 13.1742C15.9518 14.2714 14.9704 14.82 13.8268 14.82C13.2977 14.82 12.8624 14.672 12.5211 14.3759C12.1544 14.0412 11.3753 13.9089 10.9879 14.2195C10.3584 14.7244 9.59783 14.9768 8.70633 14.9768C7.81878 14.9768 6.99096 14.6459 6.22289 13.984C5.47189 13.3048 5.09639 12.2424 5.09639 10.7968C5.09639 9.17707 5.55723 7.89695 6.47892 6.95646C7.4006 6.01597 8.43323 5.54572 9.57681 5.54572C10.4537 5.54572 11.1473 5.80039 11.6576 6.30974ZM8.96235 13.148C9.69629 13.148 10.3363 12.8171 10.8825 12.1553C11.4458 11.4935 11.7274 10.6488 11.7274 9.62119C11.7274 8.87228 11.5397 8.31495 11.1642 7.9492C10.7887 7.56604 10.3278 7.37446 9.78163 7.37446C9.03062 7.37446 8.39056 7.67924 7.86145 8.28882C7.33233 8.8984 7.06777 9.72569 7.06777 10.7707C7.06777 11.537 7.24699 12.1292 7.60542 12.5472C7.98092 12.9478 8.43323 13.148 8.96235 13.148Z" />
<path fill-rule="evenodd" clip-rule="evenodd" d="M13.4599 11.1488C13.3579 11.6688 13.31 12.045 13.31 12.286C13.31 12.6218 13.388 12.83 13.5053 12.9522C13.643 13.0772 13.7826 13.131 13.9293 13.131C14.3793 13.131 14.8387 12.846 15.3005 12.1728L15.3011 12.1719C15.5717 11.7821 15.7857 11.2516 15.9358 10.5709C16.0872 9.88417 16.1615 9.28078 16.1615 8.75912C16.1615 7.18998 15.6258 5.79983 14.5475 4.58105L14.5465 4.5799C13.5008 3.37939 11.9914 2.76754 9.98649 2.76754C7.97374 2.76754 6.28464 3.46957 4.90645 4.87588C3.52872 6.28172 2.8386 8.02433 2.8386 10.1176C2.8386 11.6141 3.22133 12.9613 3.98516 14.1643C4.74729 15.3646 5.78848 16.2162 7.11369 16.7233L7.11781 16.7248C7.94323 17.0618 8.88973 17.2326 9.96089 17.2326C11.4709 17.2326 12.8827 16.9984 14.1977 16.5318C14.7733 16.3275 15.4372 16.6289 15.6013 17.2397C15.7326 17.7283 15.4861 18.2542 14.9942 18.4275C13.5288 18.9436 11.8929 19.2 10.0889 19.2C7.52354 19.2 5.40844 18.4827 3.76106 17.0341L3.75982 17.033C1.78483 15.2674 0.800049 12.9471 0.800049 10.0915C0.800049 7.41457 1.66191 5.19401 3.3922 3.44606C5.12198 1.68117 7.2995 0.800049 9.90969 0.800049C12.2579 0.800049 14.2278 1.5203 15.8047 2.96807C17.4052 4.40428 18.2001 6.33339 18.2001 8.733C18.2001 10.6076 17.784 12.1338 16.9323 13.2927L16.9314 13.2939C16.0828 14.4304 15.0464 15.0201 13.8269 15.0201C13.2583 15.0201 12.7739 14.8599 12.3901 14.527L12.5211 14.376C12.8625 14.672 13.2977 14.8201 13.8269 14.8201C14.9704 14.8201 15.9519 14.2715 16.7711 13.1742C17.5904 12.0596 18 10.5791 18 8.733C18 6.38176 17.2234 4.50948 15.6702 3.11616C14.1341 1.70542 12.2139 1.00005 9.90969 1.00005C7.34945 1.00005 5.22445 1.86217 3.53469 3.58641C1.84493 5.29323 1.00005 7.46159 1.00005 10.0915C1.00005 12.8955 1.96441 15.1597 3.89312 16.8839C5.49754 18.2947 7.5628 19 10.0889 19C11.874 19 13.4869 18.7463 14.9277 18.2389C15.3138 18.1029 15.5143 17.6869 15.4081 17.2916C15.2771 16.8038 14.7406 16.5514 14.2646 16.7203C12.9265 17.1951 11.4919 17.4326 9.96089 17.4326C8.86852 17.4326 7.89563 17.2584 7.04222 16.9101C5.67676 16.3876 4.60145 15.508 3.81631 14.2715C3.03117 13.0349 2.6386 11.6503 2.6386 10.1176C2.6386 7.97538 3.34694 6.18147 4.7636 4.7359C6.18027 3.29032 7.92123 2.56754 9.98649 2.56754C12.0347 2.56754 13.605 3.19453 14.6973 4.44853C15.8068 5.70252 16.3615 7.13938 16.3615 8.75912C16.3615 9.29903 16.2847 9.91732 16.1311 10.614C15.9775 11.3106 15.7556 11.868 15.4654 12.286C14.9875 12.9826 14.4754 13.331 13.9293 13.331C13.7244 13.331 13.5367 13.2526 13.366 13.0958C13.1953 12.9217 13.11 12.6517 13.11 12.286C13.11 12.0247 13.1612 11.6328 13.2636 11.1104L14.0692 6.87349C14.1694 6.34694 13.7657 5.85926 13.2297 5.85926H12.805C12.6404 5.85926 12.4991 5.97643 12.4686 6.13821C12.4064 6.46826 11.8953 6.54706 11.6576 6.30979C11.1473 5.80044 10.4537 5.54577 9.57686 5.54577C8.43328 5.54577 7.40065 6.01601 6.47896 6.95651C5.55728 7.897 5.09643 9.17712 5.09643 10.7969C5.09643 12.2424 5.47194 13.3048 6.22294 13.9841C6.99101 14.6459 7.81882 14.9768 8.70637 14.9768C9.59788 14.9768 10.3584 14.7244 10.988 14.2196C11.3753 13.909 12.1545 14.0412 12.5211 14.376L12.3863 14.5237C12.2406 14.3906 11.9961 14.2865 11.7375 14.2542C11.4761 14.2216 11.2478 14.2676 11.1131 14.3756C10.4443 14.9119 9.6383 15.1768 8.70637 15.1768C7.76412 15.1768 6.89127 14.824 6.09239 14.1356L6.08874 14.1325C5.28043 13.4014 4.89643 12.2742 4.89643 10.7969C4.89643 9.13752 5.36975 7.80261 6.33612 6.81652C7.28923 5.84397 8.37129 5.34577 9.57686 5.34577C10.4945 5.34577 11.2433 5.61364 11.7989 6.16824C11.8607 6.22988 11.9756 6.26223 12.0917 6.24024C12.2076 6.21828 12.2613 6.15781 12.272 6.10116C12.3203 5.84488 12.5442 5.65927 12.805 5.65927H13.2297C13.8911 5.65927 14.3893 6.26108 14.2657 6.91085L13.4599 11.1488ZM10.7303 12.0257C11.2573 11.4064 11.5275 10.6104 11.5275 9.62124C11.5275 8.90289 11.3475 8.40694 11.0247 8.09252L11.0213 8.08927C10.6842 7.74527 10.2752 7.5745 9.78168 7.5745C9.09335 7.5745 8.50688 7.85045 8.01253 8.41997C7.52336 8.98354 7.26782 9.7594 7.26782 10.7707C7.26782 11.5057 7.4392 12.044 7.75444 12.4137C8.09309 12.7735 8.49229 12.9481 8.9624 12.9481C9.62624 12.9481 10.213 12.6525 10.7283 12.028L10.7303 12.0257ZM7.60547 12.5472C7.24704 12.1292 7.06782 11.5371 7.06782 10.7707C7.06782 9.72574 7.33238 8.89845 7.86149 8.28887C8.39061 7.67929 9.03067 7.3745 9.78168 7.3745C10.3279 7.3745 10.7887 7.56609 11.1642 7.94925C11.5397 8.315 11.7275 8.87233 11.7275 9.62124C11.7275 10.6488 11.4458 11.4935 10.8826 12.1553C10.3364 12.8172 9.69633 13.1481 8.9624 13.1481C8.43328 13.1481 7.98097 12.9478 7.60547 12.5472Z" />
</svg>
