<svg width="34" height="34" viewBox="0 0 34 34" fill="none" xmlns="http://www.w3.org/2000/svg">
<path d="M29.6932 9.16838H23.2223V7.33501C23.2223 3.86161 20.4062 1.04553 16.9328 1.04553C13.4592 1.04553 10.6431 3.86161 10.6431 7.33501V9.16838H3.80285C3.40327 9.16951 3.07926 9.49307 3.07812 9.8931V27.2975C3.07903 29.2983 4.7007 30.92 6.70129 30.9206H26.8018C28.8026 30.92 30.4242 29.2983 30.4247 27.2975V9.8931C30.4202 9.49171 30.0941 9.16906 29.6932 9.16838ZM12.0851 7.32775C12.0851 4.65463 14.2524 2.48726 16.9253 2.48726C19.5989 2.48726 21.7658 4.65463 21.7658 7.32775V9.16112H12.0851V7.32775ZM28.9684 27.2975C28.9648 28.4969 27.9937 29.468 26.7947 29.4714H6.69425C5.49485 29.468 4.52371 28.4969 4.52031 27.2975V10.6176H10.6358V13.5666C10.6358 13.9669 10.9605 14.2914 11.3603 14.2914C11.7606 14.2914 12.0851 13.9669 12.0851 13.5666V10.6176H21.7731V13.5666C21.7731 13.9669 22.0975 14.2914 22.4978 14.2914C22.8976 14.2914 23.2223 13.9669 23.2223 13.5666V10.6176H28.9684V27.2975Z" fill="currentColor"/>
</svg>
