<svg width="24" height="25" viewBox="0 0 24 25" fill="none" xmlns="http://www.w3.org/2000/svg">
<path fill-rule="evenodd" clip-rule="evenodd" d="M14.72 9.28972L10.43 13.5897L8.77998 11.9397C8.53559 11.6543 8.15187 11.53 7.78656 11.6179C7.42126 11.7058 7.13605 11.991 7.04817 12.3563C6.9603 12.7216 7.08461 13.1053 7.36998 13.3497L9.71998 15.7097C9.9087 15.8969 10.1642 16.0013 10.43 15.9997C10.6923 15.9986 10.9437 15.8945 11.13 15.7097L16.13 10.7097C16.3193 10.522 16.4258 10.2664 16.4258 9.99972C16.4258 9.73308 16.3193 9.47749 16.13 9.28972C15.7399 8.902 15.11 8.902 14.72 9.28972ZM12 2.49976C6.47715 2.49976 2 6.97691 2 12.4998C2 18.0226 6.47715 22.4998 12 22.4998C17.5228 22.4998 22 18.0226 22 12.4998C22 9.84759 20.9464 7.30405 19.0711 5.42869C17.1957 3.55332 14.6522 2.49976 12 2.49976ZM12 20.4996C7.58174 20.4996 4.00002 16.9179 4.00002 12.4996C4.00002 8.08135 7.58174 4.49963 12 4.49963C16.4183 4.49963 20 8.08135 20 12.4996C20 14.6214 19.1572 16.6562 17.6569 18.1565C16.1566 19.6568 14.1217 20.4996 12 20.4996Z" fill="#0CA41B"/>
</svg>
