<svg width="12" height="12" viewBox="0 0 12 12" fill="none" xmlns="http://www.w3.org/2000/svg">
<path fill-rule="evenodd" clip-rule="evenodd" d="M4.73488 6L0.494975 1.76009C0.221608 1.48673 0.221608 1.04351 0.494975 0.770143L0.770143 0.494975C1.04351 0.221608 1.48673 0.221607 1.76009 0.494974L6 4.73488L10.2399 0.494975C10.5133 0.221608 10.9565 0.221608 11.2299 0.494975L11.505 0.770143C11.7784 1.04351 11.7784 1.48673 11.505 1.76009L7.26512 6L11.505 10.2399C11.7784 10.5133 11.7784 10.9565 11.505 11.2299L11.2299 11.505C10.9565 11.7784 10.5133 11.7784 10.2399 11.505L6 7.26512L1.76009 11.505C1.48673 11.7784 1.04351 11.7784 0.770143 11.505L0.494975 11.2299C0.221608 10.9565 0.221607 10.5133 0.494974 10.2399L4.73488 6Z" fill="currentColor"/>
</svg>
