<svg width="11" height="9" viewBox="0 0 11 9" fill="none" xmlns="http://www.w3.org/2000/svg">
<path d="M0 0.5C0 0.223857 0.223858 0 0.5 0H10.5C10.7761 0 11 0.223858 11 0.5V0.888572C11 1.16471 10.7761 1.38857 10.5 1.38857H0.5C0.223858 1.38857 0 1.16471 0 0.888571V0.5Z" fill="#2C2C2C"/>
<path d="M1.69231 4.30571C1.69231 4.02957 1.91617 3.80571 2.19231 3.80571H8.80769C9.08383 3.80571 9.30769 4.02957 9.30769 4.30571V4.69429C9.30769 4.97043 9.08383 5.19428 8.80769 5.19428H2.19231C1.91617 5.19428 1.69231 4.97043 1.69231 4.69428V4.30571Z" fill="#2C2C2C"/>
<path d="M3.80769 8.11143C3.80769 7.83529 4.03155 7.61143 4.30769 7.61143H6.69231C6.96845 7.61143 7.19231 7.83529 7.19231 8.11143V8.5C7.19231 8.77614 6.96845 9 6.69231 9H4.30769C4.03155 9 3.80769 8.77614 3.80769 8.5V8.11143Z" fill="#2C2C2C"/>
</svg>
