<svg width="14" height="15" viewBox="0 0 14 15" fill="none" xmlns="http://www.w3.org/2000/svg">
<g clip-path="url(#clip0_101_1283)">
<path d="M12.9692 3.19346H8.7064L7.54572 1.29816C7.4723 1.17829 7.34189 1.10522 7.20132 1.10522H3.99115C3.4231 1.10522 2.96094 1.56739 2.96094 2.13546V3.89919V10.0695C2.96094 10.6376 3.4231 11.0998 3.99115 11.0998H11.0379H12.9692C13.5372 11.0998 13.9994 10.6376 13.9994 10.0695V4.22372C13.9994 3.65562 13.5372 3.19346 12.9692 3.19346Z" fill="currentColor"/>
<path d="M2.15385 10.0702V3.8999H1.03024C0.462162 3.8999 0 4.36206 0 4.93014V12.8642C0 13.4323 0.462162 13.8944 1.03024 13.8944H10.0082C10.5763 13.8944 11.0385 13.4323 11.0385 12.8642V11.9081H3.99175C2.97834 11.9082 2.15385 11.0837 2.15385 10.0702Z" fill="currentColor"/>
</g>
<defs>
<clipPath id="clip0_101_1283">
<rect width="14" height="14" fill="white" transform="translate(0 0.5)"/>
</clipPath>
</defs>
</svg>
