<svg width="24" height="24" viewBox="0 0 24 24" xmlns="http://www.w3.org/2000/svg">
<path d="M12.0003 0.0115676C7.08512 0.0115676 2.41766 -0.425322 0.634874 4.14647C-0.101523 6.0347 0.00541729 8.48696 0.00541729 11.9983C0.00541729 15.0795 -0.0934009 17.9755 0.634874 19.8488C2.4136 24.4233 7.11896 23.9851 11.9976 23.9851C16.7043 23.9851 21.5572 24.4747 23.3617 19.8488C24.0994 17.9416 23.9911 15.5259 23.9911 11.9983C23.9911 7.31561 24.2497 4.29255 21.9769 2.02288C19.6756 -0.276536 16.5635 0.0115676 11.9949 0.0115676H12.0003ZM10.9255 2.17167C21.1782 2.15544 22.4831 1.01655 21.763 16.8379C21.5071 22.4336 17.2431 21.8195 12.0016 21.8195C2.44473 21.8195 2.16994 21.5463 2.16994 11.9929C2.16994 2.32857 2.92799 2.17708 10.9255 2.16897V2.17167ZM18.4032 4.16134C17.6086 4.16134 16.9642 4.80518 16.9642 5.59916C16.9642 6.39314 17.6086 7.03697 18.4032 7.03697C19.1978 7.03697 19.8421 6.39314 19.8421 5.59916C19.8421 4.80518 19.1978 4.16134 18.4032 4.16134ZM12.0003 5.84263C8.59852 5.84263 5.84109 8.59923 5.84109 11.9983C5.84109 15.3974 8.59852 18.1526 12.0003 18.1526C15.4021 18.1526 18.1581 15.3974 18.1581 11.9983C18.1581 8.59923 15.4021 5.84263 12.0003 5.84263ZM12.0003 8.00273C17.2864 8.00273 17.2932 15.9939 12.0003 15.9939C6.71556 15.9939 6.70744 8.00273 12.0003 8.00273Z" />
</svg>
