<svg width="14" height="15" viewBox="0 0 14 15" fill="none" xmlns="http://www.w3.org/2000/svg">
<g clip-path="url(#clip0_101_1110)">
<path d="M12.6816 1.81889C10.9224 0.0597012 8.06011 0.0597285 6.30092 1.81892C5.0993 3.02054 4.68193 4.79135 5.20222 6.39793L0.121152 11.479C0.0442344 11.5559 0.000976562 11.6601 0.000976562 11.769V14.0894C0.000976562 14.3161 0.184426 14.4995 0.411133 14.4995H2.73147C2.84041 14.4995 2.94456 14.4563 3.02145 14.3793L3.60144 13.799C3.68995 13.7104 3.73321 13.5863 3.7188 13.4617L3.64669 12.8384L4.51026 12.7571C4.70653 12.7387 4.86155 12.5837 4.87998 12.3874L4.9613 11.5238L5.58454 11.5963C5.70029 11.6119 5.81686 11.5731 5.90457 11.4954C5.99188 11.4173 6.04195 11.3059 6.04195 11.189V10.4253H6.79177C6.90071 10.4253 7.00486 10.382 7.08175 10.3051L8.13358 9.26722C9.73975 9.78792 11.4799 9.40199 12.6816 8.19955C14.4407 6.44039 14.4407 3.57808 12.6816 1.81889ZM11.5212 4.71924C11.0414 5.1991 10.2611 5.1991 9.78126 4.71924C9.30141 4.23938 9.30141 3.45913 9.78126 2.97928C10.2611 2.49942 11.0414 2.49942 11.5212 2.97928C12.0011 3.45913 12.0011 4.23938 11.5212 4.71924Z" fill="currentColor"/>
</g>
<defs>
<clipPath id="clip0_101_1110">
<rect width="14" height="14" fill="white" transform="translate(0 0.5)"/>
</clipPath>
</defs>
</svg>
