<svg width="14" height="15" viewBox="0 0 14 15" fill="none" xmlns="http://www.w3.org/2000/svg">
<path d="M13.9554 6.69384C13.9257 6.62267 13.8831 6.55792 13.8288 6.50367L12.0794 4.75424C11.8513 4.52674 11.4827 4.52674 11.2546 4.75424C11.0265 4.98232 11.0265 5.35157 11.2546 5.57907L12.0088 6.33332H8.75032C8.42774 6.33332 8.16699 6.59464 8.16699 6.91664C8.16699 7.23864 8.42774 7.49997 8.75032 7.49997H12.0088L11.2546 8.25422C11.0265 8.48229 11.0265 8.85154 11.2546 9.07904C11.3683 9.19336 11.5176 9.24997 11.667 9.24997C11.8163 9.24997 11.9657 9.19339 12.0794 9.07904L13.8288 7.32961C13.8831 7.27594 13.9257 7.21119 13.9554 7.13944C14.0143 6.99717 14.0143 6.83617 13.9554 6.69384Z" fill="currentColor"/>
<path d="M9.91665 8.66668C9.59407 8.66668 9.33332 8.928 9.33332 9.25V12.1667H7V2.83332C7 2.57607 6.83082 2.34857 6.58407 2.2745L4.55815 1.66668H9.33332V4.58335C9.33332 4.90535 9.59407 5.16668 9.91665 5.16668C10.2392 5.16668 10.5 4.90535 10.5 4.58335V1.08335C10.5 0.761324 10.2392 0.5 9.91665 0.5H0.583324C0.562324 0.5 0.543648 0.50875 0.52325 0.511074C0.495824 0.514 0.47075 0.518648 0.4445 0.525074C0.38325 0.540824 0.327824 0.56475 0.275926 0.597398C0.263102 0.605574 0.247352 0.606148 0.235102 0.615473C0.230398 0.619 0.228648 0.625426 0.223973 0.628926C0.160398 0.679074 0.107324 0.740324 0.0688242 0.81325C0.0606484 0.829 0.0588984 0.845926 0.0525 0.86225C0.0338242 0.906574 0.0134258 0.94975 0.00642578 0.99875C0.0035 1.01625 0.00875 1.03257 0.00817578 1.0495C0.00760156 1.06118 0 1.07168 0 1.08332V12.75C0 13.0282 0.196574 13.2674 0.469 13.3217L6.30232 14.4884C6.34025 14.4965 6.37875 14.5 6.41665 14.5C6.55022 14.5 6.68147 14.454 6.78647 14.3676C6.92122 14.2568 6.99997 14.0917 6.99997 13.9167V13.3334H9.91665C10.2392 13.3334 10.5 13.072 10.5 12.75V9.25C10.5 8.928 10.2392 8.66668 9.91665 8.66668Z" fill="currentColor"/>
</svg>
