<svg width="50" height="50" viewBox="0 0 50 50" fill="none" xmlns="http://www.w3.org/2000/svg">
<path d="M25 50C11.1925 50 0 38.8075 0 25C0 11.1925 11.1925 0 25 0C38.8075 0 50 11.1925 50 25C50 38.8075 38.8075 50 25 50ZM25 2.71964C12.7615 2.71964 2.71967 12.7615 2.71967 25C2.71967 37.2385 12.7615 47.2803 25 47.2803C37.2385 47.2803 47.2803 37.2385 47.2803 25C47.2803 12.6569 37.2385 2.71964 25 2.71964Z" fill="#2C2C2C"/>
<path d="M20.716 36.0432C19.3213 36.8524 17.574 35.8461 17.574 34.2337V15.6766C17.574 14.0609 19.3277 13.055 20.7223 13.8707L36.6499 23.1868C38.0338 23.9963 38.0302 25.9977 36.6435 26.8022L20.716 36.0432ZM20.5029 17.1548V32.7406L33.7874 25L20.5029 17.1548Z" fill="#2C2C2C"/>
</svg>
