<svg width="14" height="15" viewBox="0 0 14 15" fill="none" xmlns="http://www.w3.org/2000/svg">
<g clip-path="url(#clip0_101_1115)">
<path d="M13.6883 6.31328L12.0504 5.91133C11.9602 5.62422 11.8453 5.34531 11.7059 5.07461L12.5426 3.68008C12.641 3.51602 12.6164 3.31094 12.4852 3.17969L11.3203 2.01484C11.1891 1.88359 10.984 1.85898 10.8199 1.95742L9.42539 2.79414C9.15469 2.65469 8.87578 2.53984 8.58867 2.44961L8.19492 0.811719C8.1457 0.63125 7.98164 0.5 7.79297 0.5H6.15234C5.96367 0.5 5.79961 0.63125 5.75039 0.811719L5.35664 2.44961C5.06953 2.53984 4.79063 2.65469 4.51992 2.79414L3.12539 1.95742C2.96133 1.85898 2.75625 1.88359 2.625 2.01484L1.46016 3.17969C1.32891 3.31094 1.3043 3.51602 1.40273 3.68008L2.23945 5.07461C2.1 5.34531 1.98516 5.62422 1.89492 5.91133L0.311719 6.31328C0.13125 6.3543 0 6.51836 0 6.70703V8.34766C0 8.53633 0.13125 8.70039 0.311719 8.74141L1.89492 9.14336C1.98516 9.43047 2.1 9.70938 2.23945 9.98008L1.40273 11.3746C1.3043 11.5387 1.32891 11.7437 1.46016 11.875L2.625 13.0398C2.75625 13.1711 2.96133 13.1957 3.12539 13.0973L4.51992 12.2605C4.79063 12.4 5.06953 12.5148 5.35664 12.6051L5.75039 14.1883C5.79961 14.3688 5.96367 14.5 6.15234 14.5H7.79297C7.98164 14.5 8.1457 14.3688 8.19492 14.1883L8.58867 12.6051C8.87578 12.5148 9.15469 12.4 9.42539 12.2605L10.8199 13.0973C10.984 13.1957 11.1891 13.1711 11.3203 13.0398L12.4852 11.875C12.6164 11.7437 12.641 11.5387 12.5426 11.3746L11.7059 9.98008C11.8453 9.70938 11.9602 9.43047 12.0504 9.14336L13.6883 8.74141C13.8688 8.70039 14 8.53633 14 8.34766V6.70703C14 6.51836 13.8688 6.3543 13.6883 6.31328ZM6.97266 9.57812C5.84062 9.57812 4.92188 8.65938 4.92188 7.52734C4.92188 6.39531 5.84062 5.47656 6.97266 5.47656C8.10469 5.47656 9.02344 6.39531 9.02344 7.52734C9.02344 8.65938 8.10469 9.57812 6.97266 9.57812Z" fill="currentColor"/>
</g>
<defs>
<clipPath id="clip0_101_1115">
<rect width="14" height="14" fill="white" transform="translate(0 0.5)"/>
</clipPath>
</defs>
</svg>
