<svg width="14" height="16" viewBox="0 0 14 16" fill="none" xmlns="http://www.w3.org/2000/svg">
<path d="M4.15387 7.69995C3.9404 7.69995 3.73323 7.58665 3.61998 7.38409C3.45258 7.08402 3.55572 6.70248 3.84917 6.53196L9.54263 3.22531C9.83631 3.05273 10.2118 3.1587 10.3803 3.45877C10.5477 3.75883 10.4446 4.14038 10.1511 4.31089L4.45766 7.61755C4.36104 7.67385 4.25701 7.69995 4.15387 7.69995Z" fill="#2C2C2C"/>
<path d="M9.84585 12.8562C9.74271 12.8562 9.63867 12.8301 9.54295 12.7738L3.84949 9.46715C3.55513 9.29664 3.45199 8.91418 3.62029 8.61503C3.78792 8.31496 4.16249 8.20899 4.45798 8.38157L10.1514 11.6882C10.4458 11.8587 10.5489 12.2412 10.3806 12.5403C10.2665 12.7429 10.0593 12.8562 9.84585 12.8562Z" fill="#2C2C2C"/>
<path d="M13.75 12.9997C13.75 14.3805 12.651 15.5 11.2954 15.5C9.93976 15.5 8.84075 14.3805 8.84075 12.9997C8.84075 11.6189 9.93976 10.4994 11.2954 10.4994C12.651 10.4994 13.75 11.6189 13.75 12.9997Z" fill="#2C2C2C"/>
<path d="M13.75 3.00031C13.75 4.38115 12.651 5.50061 11.2954 5.50061C9.93976 5.50061 8.84075 4.38115 8.84075 3.00031C8.84075 1.61946 9.93976 0.5 11.2954 0.5C12.651 0.5 13.75 1.61946 13.75 3.00031Z" fill="#2C2C2C"/>
<path d="M5.15925 8C5.15925 9.38084 4.06024 10.5003 2.70463 10.5003C1.34901 10.5003 0.25 9.38084 0.25 8C0.25 6.61916 1.34901 5.49969 2.70463 5.49969C4.06024 5.49969 5.15925 6.61916 5.15925 8Z" fill="#2C2C2C"/>
</svg>
