<svg width="20" height="20" viewBox="0 0 20 20" xmlns="http://www.w3.org/2000/svg">
<path d="M7.624 6.78133L10 0.785279L12.376 6.78133C12.4911 7.07186 12.7594 7.28646 13.0855 7.31389L19.307 7.83742L14.5488 12.1156C14.3131 12.3275 14.2176 12.6504 14.2861 12.9517L15.7319 19.3135L10.4469 15.9253C10.1738 15.7502 9.82623 15.7502 9.55305 15.9253L4.26813 19.3135L5.7139 12.9517L5.22633 12.8409L5.7139 12.9517C5.78237 12.6504 5.6869 12.3275 5.45119 12.1156L0.692993 7.83742L6.91455 7.31389C7.24058 7.28646 7.50887 7.07186 7.624 6.78133ZM19.5465 7.62209L19.5463 7.62231L19.5465 7.62209Z" />
</svg>
