<svg width="14" height="15" viewBox="0 0 14 15" fill="none" xmlns="http://www.w3.org/2000/svg">
<g clip-path="url(#clip0_101_1102)">
<path d="M10.9539 0.5H3.04607C1.36648 0.5 0 1.86648 0 3.54609C0 5.22571 1.36648 6.59219 3.04607 6.59219H10.9539C12.6335 6.59219 14 5.22571 14 3.54609C14 1.86648 12.6335 0.5 10.9539 0.5ZM3.04607 5.77185C1.8188 5.77187 0.820312 4.77339 0.820312 3.54609C0.820312 2.3188 1.8188 1.32031 3.04607 1.32031C4.27339 1.32031 5.27185 2.3188 5.27185 3.54609C5.27185 4.77339 4.27336 5.77185 3.04607 5.77185Z" fill="currentColor"/>
<path d="M10.9539 8.40771H3.04607C1.36648 8.40771 0 9.77416 0 11.4538C0 13.1334 1.36648 14.4999 3.04607 14.4999H10.9539C12.6335 14.4999 14 13.1334 14 11.4538C14 9.77416 12.6335 8.40771 10.9539 8.40771ZM10.9539 13.6796C9.72661 13.6796 8.72815 12.6811 8.72815 11.4538C8.72815 10.2265 9.72664 9.22805 10.9539 9.22805C12.1812 9.22805 13.1797 10.2265 13.1797 11.4538C13.1797 12.6811 12.1812 13.6796 10.9539 13.6796Z" fill="currentColor"/>
</g>
<defs>
<clipPath id="clip0_101_1102">
<rect width="14" height="14" fill="white" transform="translate(0 0.5)"/>
</clipPath>
</defs>
</svg>
