<svg width="16" height="16" viewBox="0 0 16 16" fill="none" xmlns="http://www.w3.org/2000/svg">
<path d="M9.20674 5.79688C8.99977 5.79688 8.83203 5.96462 8.83203 6.17158V13.2535C8.83203 13.4604 8.99977 13.6283 9.20674 13.6283C9.41371 13.6283 9.58145 13.4604 9.58145 13.2535V6.17158C9.58145 5.96462 9.41371 5.79688 9.20674 5.79688Z" fill="currentColor"/>
<path d="M6.78584 5.79688C6.57887 5.79688 6.41113 5.96462 6.41113 6.17158V13.2535C6.41113 13.4604 6.57887 13.6283 6.78584 13.6283C6.99281 13.6283 7.16055 13.4604 7.16055 13.2535V6.17158C7.16055 5.96462 6.99281 5.79688 6.78584 5.79688Z" fill="currentColor"/>
<path d="M2.56325 4.76348V13.9954C2.56325 14.5411 2.76334 15.0535 3.11287 15.4212C3.46079 15.7899 3.94498 15.9992 4.45171 16.0001H11.5413C12.0481 15.9992 12.5323 15.7899 12.8801 15.4212C13.2296 15.0535 13.4297 14.5411 13.4297 13.9954V4.76348C14.1245 4.57905 14.5748 3.9078 14.4818 3.19483C14.3887 2.48201 13.7815 1.94879 13.0625 1.94864H11.144V1.48026C11.1462 1.08638 10.9905 0.708161 10.7116 0.429912C10.4328 0.15181 10.054 -0.00304883 9.66012 0.000171304H6.33285C5.93897 -0.00304883 5.56017 0.15181 5.28133 0.429912C5.0025 0.708161 4.84676 1.08638 4.84896 1.48026V1.94864H2.93049C2.21152 1.94879 1.60424 2.48201 1.51115 3.19483C1.4182 3.9078 1.86843 4.57905 2.56325 4.76348ZM11.5413 15.2507H4.45171C3.81105 15.2507 3.31266 14.7004 3.31266 13.9954V4.79641H12.6803V13.9954C12.6803 14.7004 12.1819 15.2507 11.5413 15.2507ZM5.59837 1.48026C5.59588 1.28515 5.67258 1.09736 5.81104 0.959624C5.94936 0.82189 6.13759 0.746217 6.33285 0.749583H9.66012C9.85538 0.746217 10.0436 0.82189 10.1819 0.959624C10.3204 1.09721 10.3971 1.28515 10.3946 1.48026V1.94864H5.59837V1.48026ZM2.93049 2.69805H13.0625C13.435 2.69805 13.737 3.00002 13.737 3.37253C13.737 3.74504 13.435 4.047 13.0625 4.047H2.93049C2.55798 4.047 2.25602 3.74504 2.25602 3.37253C2.25602 3.00002 2.55798 2.69805 2.93049 2.69805Z" fill="currentColor"/>
</svg>
