<svg width="14" height="15" viewBox="0 0 14 15" fill="none" xmlns="http://www.w3.org/2000/svg">
<g clip-path="url(#clip0_101_1098)">
<path d="M6.90035 7.24384C7.82683 7.24384 8.62908 6.91155 9.28458 6.25594C9.94008 5.60044 10.2724 4.7984 10.2724 3.87181C10.2724 2.94555 9.94008 2.1434 9.28448 1.48768C8.62887 0.832289 7.82672 0.5 6.90035 0.5C5.97376 0.5 5.17172 0.832289 4.51622 1.48779C3.86072 2.14329 3.52832 2.94544 3.52832 3.87181C3.52832 4.7984 3.86072 5.60055 4.51632 6.25605C5.17193 6.91144 5.97408 7.24384 6.90035 7.24384Z" fill="currentColor"/>
<path d="M12.8004 11.2653C12.7814 10.9925 12.7432 10.6949 12.6869 10.3807C12.6301 10.0641 12.5569 9.76484 12.4693 9.49129C12.3789 9.20856 12.2558 8.92936 12.1037 8.6618C11.9459 8.38409 11.7604 8.14227 11.5524 7.94328C11.3348 7.73511 11.0684 7.56773 10.7604 7.44565C10.4534 7.3242 10.1132 7.26268 9.74929 7.26268C9.60638 7.26268 9.46817 7.32132 9.20125 7.4951C9.03697 7.60223 8.84482 7.72613 8.63034 7.86317C8.44695 7.98002 8.1985 8.0895 7.89164 8.18863C7.59224 8.2855 7.28826 8.33464 6.98823 8.33464C6.6882 8.33464 6.38432 8.2855 6.08461 8.18863C5.77806 8.08961 5.52962 7.98013 5.34643 7.86328C5.13399 7.72752 4.94173 7.60362 4.77499 7.49499C4.50839 7.32121 4.37007 7.26257 4.22716 7.26257C3.86315 7.26257 3.52306 7.3242 3.21619 7.44575C2.90836 7.56763 2.64187 7.735 2.42408 7.94339C2.21612 8.14248 2.03059 8.3842 1.87294 8.6618C1.72095 8.92936 1.5979 9.20846 1.50732 9.4914C1.41984 9.76494 1.34668 10.0641 1.28986 10.3807C1.23357 10.6945 1.19533 10.9922 1.17642 11.2656C1.15784 11.5335 1.14844 11.8116 1.14844 12.0924C1.14844 12.8232 1.38075 13.4148 1.83886 13.8511C2.29132 14.2817 2.88999 14.5001 3.61802 14.5001H10.3591C11.0871 14.5001 11.6856 14.2818 12.1381 13.8511C12.5963 13.4151 12.8287 12.8234 12.8287 12.0923C12.8286 11.8102 12.819 11.5319 12.8004 11.2653Z" fill="currentColor"/>
</g>
<defs>
<clipPath id="clip0_101_1098">
<rect width="13.9999" height="14" fill="white" transform="translate(0 0.5)"/>
</clipPath>
</defs>
</svg>
