<?xml version="1.0" encoding="utf-8"?><svg viewBox="0 0 314.01 314.01" xmlns="http://www.w3.org/2000/svg" xmlns:xlink="http://www.w3.org/1999/xlink"><style>:root>svg{display:none}:root>svg:target{display:block}</style><svg viewBox="0 0 11 8" id="arrow-down" xmlns="http://www.w3.org/2000/svg"><path fill-rule="evenodd" clip-rule="evenodd" d="M5.5 7.5L11 1.382 10.056.5 5.5 5.569.943.5 0 1.382 5.5 7.5z"/></svg><svg viewBox="0 0 10 17" id="arrow-left" xmlns="http://www.w3.org/2000/svg"><path fill-rule="evenodd" clip-rule="evenodd" d="M0 8.5L8.343 0 10 2.01 3.63 8.5 10 14.99 8.343 17 0 8.5z"/></svg><svg viewBox="0 0 10 17" id="arrow-right" xmlns="http://www.w3.org/2000/svg"><path fill-rule="evenodd" clip-rule="evenodd" d="M10 8.5L1.657 0 0 2.01 6.37 8.5 0 14.99 1.657 17 10 8.5z"/></svg><svg viewBox="0 0 19 20" id="at" xmlns="http://www.w3.org/2000/svg"><path d="M11.658 6.31c.237.237.748.158.81-.172a.342.342 0 01.337-.279h.425c.536 0 .94.488.84 1.014l-.806 4.237c-.103.523-.154.915-.154 1.176 0 .366.085.636.256.81.17.156.358.235.563.235.546 0 1.059-.348 1.536-1.045.29-.418.512-.975.666-1.672.154-.697.23-1.315.23-1.855 0-1.62-.554-3.057-1.664-4.31-1.092-1.255-2.662-1.882-4.71-1.882-2.066 0-3.807.723-5.223 2.169-1.417 1.445-2.125 3.24-2.125 5.382 0 1.532.392 2.917 1.177 4.153a6.464 6.464 0 003.226 2.639c.854.348 1.826.523 2.919.523 1.53 0 2.966-.238 4.304-.713.476-.169 1.012.084 1.143.572a.78.78 0 01-.48.947c-1.441.507-3.054.761-4.84.761-2.525 0-4.59-.705-6.195-2.116C1.964 15.16 1 12.895 1 10.09c0-2.63.845-4.798 2.535-6.505C5.225 1.862 7.349 1 9.91 1c2.304 0 4.224.705 5.76 2.116C17.223 4.51 18 6.382 18 8.733c0 1.846-.41 3.326-1.229 4.441-.82 1.097-1.8 1.646-2.944 1.646-.53 0-.965-.148-1.306-.444-.367-.335-1.146-.467-1.533-.156-.63.504-1.39.757-2.282.757-.887 0-1.715-.331-2.483-.993-.751-.68-1.127-1.742-1.127-3.187 0-1.62.461-2.9 1.383-3.84.922-.941 1.954-1.411 3.098-1.411.877 0 1.57.254 2.08.764zm-2.696 6.838c.734 0 1.374-.33 1.92-.993.564-.662.845-1.506.845-2.534 0-.749-.187-1.306-.563-1.672a1.86 1.86 0 00-1.382-.575c-.751 0-1.391.305-1.92.915-.53.61-.794 1.437-.794 2.482 0 .766.179 1.358.537 1.776.376.4.828.601 1.357.601z"/><path fill-rule="evenodd" clip-rule="evenodd" d="M13.46 11.149c-.102.52-.15.896-.15 1.137 0 .336.078.544.195.666a.615.615 0 00.424.179c.45 0 .91-.285 1.371-.958l.001-.001c.27-.39.485-.92.635-1.601.151-.687.226-1.29.226-1.812 0-1.569-.536-2.96-1.614-4.178l-.002-.001c-1.045-1.2-2.555-1.812-4.56-1.812-2.012 0-3.701.702-5.08 2.108C3.53 6.282 2.84 8.024 2.84 10.118c0 1.496.382 2.843 1.146 4.046a6.265 6.265 0 003.129 2.56h.004c.825.338 1.772.509 2.843.509 1.51 0 2.922-.235 4.237-.701.575-.204 1.24.097 1.403.708a.98.98 0 01-.607 1.188c-1.465.516-3.101.772-4.905.772-2.565 0-4.68-.717-6.328-2.166l-.001-.001C1.785 15.267.8 12.947.8 10.091c0-2.676.862-4.897 2.592-6.645C5.122 1.681 7.3.8 9.91.8c2.348 0 4.318.72 5.895 2.168 1.6 1.436 2.395 3.365 2.395 5.765 0 1.875-.416 3.4-1.268 4.56-.85 1.137-1.886 1.727-3.105 1.727-.569 0-1.053-.16-1.437-.493l.131-.151c.341.296.777.444 1.306.444 1.143 0 2.125-.549 2.944-1.646C17.591 12.06 18 10.58 18 8.733c0-2.351-.777-4.224-2.33-5.617C14.134 1.706 12.214 1 9.91 1c-2.56 0-4.686.862-6.375 2.586C1.845 5.293 1 7.462 1 10.091c0 2.805.964 5.069 2.893 6.793C5.498 18.294 7.563 19 10.09 19c1.785 0 3.398-.254 4.839-.761a.78.78 0 00.48-.947c-.13-.488-.667-.74-1.143-.572-1.338.475-2.773.713-4.304.713-1.092 0-2.065-.175-2.919-.523a6.465 6.465 0 01-3.226-2.639c-.785-1.236-1.177-2.62-1.177-4.153 0-2.143.708-3.937 2.125-5.382C6.18 3.29 7.92 2.568 9.986 2.568c2.049 0 3.619.627 4.711 1.88 1.11 1.255 1.665 2.691 1.665 4.311 0 .54-.077 1.158-.23 1.855-.155.697-.376 1.254-.667 1.672-.477.697-.99 1.045-1.536 1.045a.815.815 0 01-.563-.235c-.17-.174-.256-.444-.256-.81 0-.261.051-.653.154-1.176l.805-4.237a.855.855 0 00-.84-1.014h-.424a.342.342 0 00-.336.28c-.063.33-.574.408-.811.17-.51-.509-1.204-.763-2.081-.763-1.144 0-2.176.47-3.098 1.41-.922.941-1.383 2.221-1.383 3.84 0 1.446.376 2.509 1.127 3.188.768.662 1.596.993 2.483.993.892 0 1.652-.253 2.282-.757.387-.311 1.167-.179 1.533.156l-.135.148c-.145-.133-.39-.237-.648-.27-.262-.032-.49.014-.625.122-.669.536-1.475.8-2.407.8-.942 0-1.815-.352-2.614-1.04l-.003-.003c-.809-.732-1.193-1.859-1.193-3.336 0-1.66.474-2.994 1.44-3.98.953-.973 2.035-1.471 3.24-1.471.918 0 1.667.268 2.223.822.062.062.177.094.293.072.116-.022.17-.082.18-.139a.542.542 0 01.533-.442h.425c.661 0 1.16.602 1.036 1.252l-.806 4.238zm-2.73.877c.527-.62.797-1.416.797-2.405 0-.718-.18-1.214-.502-1.528l-.004-.004a1.66 1.66 0 00-1.24-.515c-.688 0-1.274.276-1.768.846-.49.564-.745 1.34-.745 2.35 0 .736.171 1.274.486 1.644.34.36.738.534 1.208.534.664 0 1.251-.296 1.766-.92l.002-.002zm-3.125.521c-.358-.418-.537-1.01-.537-1.776 0-1.045.264-1.873.793-2.482.53-.61 1.17-.914 1.92-.914a1.86 1.86 0 011.383.574c.376.366.563.923.563 1.672 0 1.028-.281 1.872-.844 2.534-.547.662-1.187.993-1.92.993-.53 0-.982-.2-1.358-.6z"/></svg><svg fill="none" viewBox="0 0 34 34" id="bag" xmlns="http://www.w3.org/2000/svg"><path d="M29.693 9.168h-6.47V7.335a6.29 6.29 0 00-12.58 0v1.833h-6.84a.727.727 0 00-.725.725v17.404c.001 2.001 1.623 3.623 3.623 3.624h20.1c2.002-.001 3.623-1.623 3.624-3.623V9.892a.733.733 0 00-.732-.725zm-17.608-1.84a4.84 4.84 0 019.68 0V9.16h-9.68V7.328zm16.883 19.97a2.18 2.18 0 01-2.173 2.173h-20.1a2.18 2.18 0 01-2.175-2.174v-16.68h6.116v2.95a.725.725 0 001.45 0v-2.95h9.687v2.95a.725.725 0 101.45 0v-2.95h5.745v16.68z" fill="currentColor"/></svg><svg fill="none" viewBox="0 0 24 25" id="check-circle" xmlns="http://www.w3.org/2000/svg"><path fill-rule="evenodd" clip-rule="evenodd" d="M14.72 9.29l-4.29 4.3-1.65-1.65a1 1 0 10-1.41 1.41l2.35 2.36a1 1 0 001.41 0l5-5a1 1 0 10-1.41-1.42zM12 2.5c-5.523 0-10 4.477-10 10s4.477 10 10 10 10-4.477 10-10a10 10 0 00-10-10zm0 18a8 8 0 110-16 8 8 0 010 16z" fill="#0CA41B"/></svg><svg fill="none" viewBox="0 0 12 12" id="close" xmlns="http://www.w3.org/2000/svg"><path fill-rule="evenodd" clip-rule="evenodd" d="M4.735 6L.495 1.76a.7.7 0 010-.99L.77.495a.7.7 0 01.99 0L6 4.735l4.24-4.24a.7.7 0 01.99 0l.275.275a.7.7 0 010 .99L7.265 6l4.24 4.24a.7.7 0 010 .99l-.275.275a.7.7 0 01-.99 0L6 7.265l-4.24 4.24a.7.7 0 01-.99 0l-.275-.275a.7.7 0 010-.99L4.735 6z" fill="currentColor"/></svg><svg viewBox="0 0 80 80" id="complete" xmlns="http://www.w3.org/2000/svg"><circle cx="40.5" cy="40" r="39" fill="#fff"/><path d="M22.519 38.899l12.477 16.147M34.995 55.046l23.486-30.092"/></svg><svg viewBox="0 0 314.009 314.009" id="computer-bug" xmlns="http://www.w3.org/2000/svg"><path fill="currentColor" d="M310.008 242.584l-44.275-39.615a11.999 11.999 0 00-12.41-2.221l-3.699 1.461a138.67 138.67 0 002.636-26.998c0-17.793-3.337-34.645-9.291-49.691l12.276-4.844L294 155.355a11.963 11.963 0 008.001 3.059c3.297 0 6.578-1.35 8.949-4 4.421-4.939 4-12.529-.94-16.949l-44.275-39.619a12 12 0 00-12.411-2.221l-21.385 8.439c-9.646-14.848-22.246-26.75-36.725-34.428l8.195-18.98 33.799 12.068c6.243 2.23 13.111-1.023 15.341-7.269 2.23-6.242-1.024-13.111-7.268-15.34l-44.395-15.851c-5.959-2.129-12.548.736-15.057 6.545l-13.262 30.713a79.63 79.63 0 00-15.563-1.539c-5.3 0-10.499.531-15.564 1.539l-13.263-30.713c-2.508-5.811-9.099-8.674-15.058-6.545L68.73 40.115c-6.243 2.229-9.497 9.098-7.268 15.342 2.229 6.242 9.1 9.498 15.342 7.268l33.793-12.068 8.196 18.982c-14.477 7.678-27.076 19.58-36.723 34.424l-21.382-8.438a12 12 0 00-12.41 2.221L4.001 137.465c-4.941 4.42-5.363 12.008-.941 16.949 2.371 2.65 5.653 4 8.949 4 2.85 0 5.71-1.01 8-3.059l38.759-34.68 12.273 4.844c-5.955 15.047-9.292 31.897-9.292 49.691 0 9.299.917 18.336 2.636 26.996l-3.694-1.459a12.004 12.004 0 00-12.41 2.221l-44.28 39.616c-4.94 4.42-5.363 12.01-.942 16.949 2.371 2.65 5.653 4 8.95 4 2.85 0 5.71-1.008 8-3.057l38.759-34.678 15.255 6.02c16.35 34.998 47.385 58.629 82.981 58.629 35.601 0 66.634-23.631 82.981-58.627l15.26-6.021 38.756 34.676a11.952 11.952 0 008 3.059 11.97 11.97 0 008.949-4c4.421-4.94 3.999-12.53-.942-16.95zM119.239 138.14c0-8.586 6.967-15.553 15.563-15.553 8.593 0 15.559 6.967 15.559 15.553 0 8.588-6.966 15.551-15.559 15.551-8.596 0-15.563-6.963-15.563-15.551zm31.121 93.579c-8.595 0-15.559-6.973-15.559-15.557s6.964-15.547 15.559-15.547c8.585 0 15.552 6.963 15.552 15.547s-6.967 15.557-15.552 15.557zm30.62-58.227c0-9.606 7.802-17.396 17.414-17.396 9.614 0 17.405 7.791 17.405 17.396 0 9.621-7.791 17.41-17.405 17.41-9.612 0-17.414-7.789-17.414-17.41z"/></svg><svg viewBox="0 0 10 21" id="fb" xmlns="http://www.w3.org/2000/svg"><path d="M8.174 3.487H10V.147C9.685.103 8.602 0 7.34 0 4.708 0 2.905 1.739 2.905 4.934v2.941H0v3.733h2.905V21h3.561v-9.391h2.787l.443-3.733h-3.23V5.304c0-1.079.277-1.817 1.708-1.817z"/></svg><svg fill="none" viewBox="0 0 11 9" id="filter" xmlns="http://www.w3.org/2000/svg"><path d="M0 .5A.5.5 0 01.5 0h10a.5.5 0 01.5.5v.389a.5.5 0 01-.5.5H.5a.5.5 0 01-.5-.5V.5zM1.692 4.306a.5.5 0 01.5-.5h6.616a.5.5 0 01.5.5v.388a.5.5 0 01-.5.5H2.192a.5.5 0 01-.5-.5v-.388zM3.808 8.111a.5.5 0 01.5-.5h2.384a.5.5 0 01.5.5V8.5a.5.5 0 01-.5.5H4.308a.5.5 0 01-.5-.5v-.389z" fill="#2C2C2C"/></svg><svg fill="none" viewBox="0 0 14 15" id="folder" xmlns="http://www.w3.org/2000/svg"><g clip-path="url(#alclip0_101_1283)" fill="currentColor"><path d="M12.97 3.193H8.705l-1.16-1.895a.404.404 0 00-.345-.193h-3.21c-.568 0-1.03.462-1.03 1.03v7.934c0 .569.462 1.03 1.03 1.03h8.978c.568 0 1.03-.461 1.03-1.03V4.224c0-.568-.462-1.03-1.03-1.03z"/><path d="M2.154 10.07V3.9H1.03C.462 3.9 0 4.362 0 4.93v7.934c0 .568.462 1.03 1.03 1.03h8.978c.568 0 1.03-.462 1.03-1.03v-.956H3.993a1.84 1.84 0 01-1.838-1.838z"/></g><defs><clipPath id="alclip0_101_1283"><path fill="#fff" transform="translate(0 .5)" d="M0 0h14v14H0z"/></clipPath></defs></svg><svg viewBox="0 0 24 20" id="heart" xmlns="http://www.w3.org/2000/svg"><path d="M17.195 0A6.726 6.726 0 0012 2.416 6.635 6.635 0 006.805 0C3.047 0 0 3.067 0 6.85c0 6.483 11.24 12.813 11.696 13.057a.544.544 0 00.608 0C12.759 19.663 24 13.425 24 6.85 24 3.067 20.953 0 17.195 0zM12 18.684C10.238 17.644 1.215 12.11 1.215 6.85c0-3.107 2.503-5.626 5.59-5.626a5.46 5.46 0 014.679 2.538.635.635 0 001.032 0 5.568 5.568 0 017.738-1.63 5.636 5.636 0 012.53 4.718c0 5.32-9.022 10.825-10.784 11.834z" fill="#2c2c2c"/><path d="M17.195 0A6.726 6.726 0 0012 2.416 6.635 6.635 0 006.805 0C3.047 0 0 3.067 0 6.85c0 6.483 11.24 12.813 11.696 13.057a.544.544 0 00.608 0C12.759 19.663 24 13.425 24 6.85 24 3.067 20.953 0 17.195 0z"/></svg><svg viewBox="0 0 24 24" id="inst" xmlns="http://www.w3.org/2000/svg"><path d="M12 .012C7.085.012 2.418-.425.635 4.146c-.737 1.889-.63 4.341-.63 7.852 0 3.082-.098 5.978.63 7.85 1.779 4.575 6.484 4.137 11.363 4.137 4.706 0 9.56.49 11.364-4.136.737-1.907.63-4.323.63-7.85 0-4.683.258-7.706-2.015-9.976-2.301-2.3-5.413-2.011-9.982-2.011H12zm-1.075 2.16c10.253-.017 11.558-1.155 10.838 14.666-.256 5.596-4.52 4.982-9.761 4.982-9.557 0-9.832-.274-9.832-9.827 0-9.664.758-9.816 8.755-9.824v.003zm7.478 1.99a1.439 1.439 0 100 2.876 1.439 1.439 0 000-2.877zM12 5.841a6.158 6.158 0 00-6.159 6.156c0 3.4 2.758 6.155 6.16 6.155a6.155 6.155 0 100-12.31zm0 2.16c5.286 0 5.293 7.992 0 7.992-5.284 0-5.293-7.991 0-7.991z"/></svg><svg fill="none" viewBox="0 0 14 15" id="key" xmlns="http://www.w3.org/2000/svg"><g clip-path="url(#aoclip0_101_1110)"><path d="M12.682 1.819a4.517 4.517 0 00-6.381 0 4.51 4.51 0 00-1.099 4.579l-5.08 5.081a.41.41 0 00-.121.29v2.32c0 .227.183.41.41.41h2.32a.41.41 0 00.29-.12l.58-.58a.41.41 0 00.118-.337l-.072-.624.863-.08a.41.41 0 00.37-.37l.081-.864.624.072a.411.411 0 00.457-.407v-.764h.75a.41.41 0 00.29-.12l1.052-1.038c1.606.52 3.346.135 4.548-1.067a4.517 4.517 0 000-6.381zm-1.16 2.9a1.231 1.231 0 01-1.74-1.74 1.231 1.231 0 011.74 1.74z" fill="currentColor"/></g><defs><clipPath id="aoclip0_101_1110"><path fill="#fff" transform="translate(0 .5)" d="M0 0h14v14H0z"/></clipPath></defs></svg><svg viewBox="0 0 20 20" id="link" xmlns="http://www.w3.org/2000/svg"><g clip-path="url(#clip0_101_9582)"><path d="M18.627 1.373a4.687 4.687 0 00-6.629 0L8.08 5.29c-1.893 1.893-1.718 4.91 0 6.629.288.287.606.522.943.715l.715-.715c.469-.47.303-1.018.295-1.413a2.267 2.267 0 01-.295-.245c-.882-.881-.922-2.393 0-3.314l3.917-3.918a2.346 2.346 0 013.315 0c.914.914.914 2.4 0 3.315l-2.59 2.59c.075.414.525 1.395.293 3.014.012-.01.025-.018.037-.03l3.917-3.917a4.688 4.688 0 000-6.629z"/><path d="M12.223 7.777a4.464 4.464 0 00-.942-.715l-.715.715c-.469.469-.304 1.017-.295 1.413.103.072.203.151.295.244.882.882.921 2.393 0 3.314L6.345 16.97c-.914.914-2.4.914-3.315 0a2.346 2.346 0 010-3.315l2.893-2.893c-.074-.415-.524-1.396-.293-3.015-.011.011-.025.018-.036.03l-4.221 4.22a4.688 4.688 0 006.629 6.63l4.221-4.221c1.859-1.859 1.757-4.873 0-6.63z"/></g></svg><svg viewBox="0 0 40 40" id="link-alt" xmlns="http://www.w3.org/2000/svg"><path d="M22.087 15.15l-1.765 1.764c2.634.332 3.717 3.564 1.864 5.417l-5.358 5.357a3.198 3.198 0 01-4.516 0 3.192 3.192 0 010-4.516l1.41-1.41c-.26-.85-.342-1.902-.174-2.925l-2.636 2.635a5.382 5.382 0 000 7.616 5.382 5.382 0 007.616 0c6.588-6.588 4.743-4.742 5.273-5.275 2.603-2.702 1.697-7.169-1.713-8.664z"/><path d="M29.092 18.524a5.39 5.39 0 000-7.616 5.392 5.392 0 00-7.616 0c-5.392 5.392-5.273 5.275-5.273 5.275-2.634 2.736-1.662 7.183 1.713 8.663l1.616-1.615c-2.634-.334-3.711-3.558-1.87-5.409l5.364-5.365a3.192 3.192 0 014.516 0 3.197 3.197 0 010 4.517l-1.259 1.26c.298 1.092.327 1.988.174 2.924l2.635-2.634zm-19.078-1.3c.02 0 .04-.001.059-.003l1.22-.113a.625.625 0 10-.115-1.245l-1.22.113a.625.625 0 00.056 1.248zm6.414-5.367l.059.003a.624.624 0 00.621-.567l.113-1.22a.625.625 0 10-1.244-.116l-.114 1.22a.625.625 0 00.565.68zm-4.01 1.333a.625.625 0 00.884-.884l-.782-.783a.625.625 0 00-.884.884l.782.783zm17.51 9.59l-1.22.112a.625.625 0 00.115 1.245l1.22-.113a.625.625 0 10-.115-1.245zm-6.356 5.363a.625.625 0 00-.68.564l-.113 1.22a.625.625 0 001.244.116l.113-1.22a.625.625 0 00-.564-.68zm4.01-1.333a.625.625 0 10-.884.884l.782.783a.625.625 0 00.884-.884l-.782-.783z"/></svg><svg fill="none" viewBox="0 0 14 15" id="logout" xmlns="http://www.w3.org/2000/svg"><path d="M13.955 6.694a.588.588 0 00-.126-.19l-1.75-1.75a.584.584 0 00-.824.825l.754.754H8.75a.583.583 0 100 1.167h3.259l-.754.754a.583.583 0 10.824.825l1.75-1.75a.584.584 0 00.127-.636z" fill="currentColor"/><path d="M9.917 8.667a.583.583 0 00-.584.583v2.917H7V2.833a.584.584 0 00-.416-.558l-2.026-.608h4.775v2.916a.583.583 0 101.167 0v-3.5A.583.583 0 009.917.5H.583c-.02 0-.04.009-.06.011a.585.585 0 00-.247.086C.263.606.247.607.236.615.23.62.228.625.223.63a.578.578 0 00-.155.184C.06.83.059.846.052.863.035.906.013.95.006.998c-.003.017.003.034.002.05 0 .012-.008.023-.008.034V12.75c0 .278.197.517.469.572l5.833 1.166A.582.582 0 007 13.916v-.583h2.917a.583.583 0 00.583-.583v-3.5a.583.583 0 00-.583-.583z" fill="currentColor"/></svg><svg viewBox="0 0 18 18" id="phone-call" xmlns="http://www.w3.org/2000/svg"><path d="M16.822 12.806a12.74 12.74 0 01-4.03-1.052 1.283 1.283 0 00-1.676.585l-.874 1.736a16.236 16.236 0 01-6.317-6.318l1.735-.873c.612-.308.87-1.044.587-1.677a12.648 12.648 0 01-1.053-4.03A1.28 1.28 0 003.921 0H.643A.643.643 0 000 .643C0 3.26.57 5.784 1.696 8.148a17.513 17.513 0 008.159 8.157A17.311 17.311 0 0017.357 18a.643.643 0 00.643-.643V14.08a1.28 1.28 0 00-1.178-1.273z"/></svg><svg fill="none" viewBox="0 0 50 50" id="play" xmlns="http://www.w3.org/2000/svg"><path d="M25 50C11.193 50 0 38.807 0 25S11.193 0 25 0s25 11.193 25 25-11.193 25-25 25zm0-47.28C12.761 2.72 2.72 12.76 2.72 25S12.76 47.28 25 47.28 47.28 37.24 47.28 25C47.28 12.657 37.24 2.72 25 2.72z" fill="#2C2C2C"/><path d="M20.716 36.043c-1.395.81-3.142-.197-3.142-1.81V15.678c0-1.616 1.754-2.622 3.148-1.806l15.928 9.316c1.384.81 1.38 2.81-.006 3.615l-15.928 9.241zm-.213-18.888V32.74L33.787 25l-13.284-7.845z" fill="#2C2C2C"/></svg><svg fill="none" viewBox="0 0 10 10" id="plus" xmlns="http://www.w3.org/2000/svg"><path d="M5 0v10m5-5H0"/></svg><svg viewBox="0 0 12 18" id="ruble" xmlns="http://www.w3.org/2000/svg"><path d="M5.88 0c1.639 0 2.94.324 3.902.972a4.5 4.5 0 011.657 1.862c.374.773.561 1.556.561 2.347 0 1.512-.472 2.744-1.416 3.698-1.087 1.097-2.646 1.646-4.678 1.646H4.677v1.997h3.278c.522 0 .945.118.945.944 0 .924-.423.945-.945.945H4.677v2.226C4.677 17.39 4.37 18 3.314 18c-1.054 0-1.363-.61-1.363-1.363v-2.226H.945c-.522 0-.945-.021-.945-.945 0-.826.423-.944.945-.944H1.95v-1.997h-.764C.532 10.525 0 10.39 0 9.337 0 8.38.532 8.15 1.187 8.15h.764V2c0-2.105-.105-2 2-2H5.88zM4.677 2.537V8.15h1.23c1.247 0 2.173-.306 2.779-.918.463-.467.695-1.106.695-1.916 0-.791-.25-1.439-.748-1.943-.57-.557-1.488-.836-2.753-.836H4.677z"/></svg><svg fill="none" viewBox="0 0 34 34" id="search" xmlns="http://www.w3.org/2000/svg"><path d="M30.637 30.772l-7.206-7.206a11.56 11.56 0 002.995-7.76c0-6.409-5.213-11.622-11.62-11.622-6.409 0-11.622 5.213-11.622 11.621s5.213 11.621 11.621 11.621c2.985 0 5.7-1.14 7.76-2.995l7.207 7.206a.61.61 0 00.865 0 .612.612 0 000-.865zm-15.832-4.569c-5.733 0-10.397-4.664-10.397-10.398 0-5.733 4.664-10.398 10.397-10.398 5.733 0 10.398 4.665 10.398 10.398 0 5.734-4.665 10.398-10.398 10.398z" fill="currentColor"/><path fill-rule="evenodd" clip-rule="evenodd" d="M30.637 31.637a.61.61 0 01-.865 0l-7.206-7.206a11.561 11.561 0 01-7.76 2.995c-6.409 0-11.622-5.213-11.622-11.62 0-6.409 5.213-11.622 11.621-11.622s11.621 5.213 11.621 11.621c0 2.985-1.14 5.7-2.995 7.76l7.206 7.207a.612.612 0 010 .865zm.13-.995l-7.083-7.084a11.739 11.739 0 002.927-7.753C26.61 9.295 21.315 4 14.805 4 8.295 4 3 9.296 3 15.805c0 6.51 5.296 11.806 11.805 11.806 2.97 0 5.678-1.112 7.753-2.927l7.084 7.083a.794.794 0 001.125 0 .796.796 0 000-1.125zM4.592 15.805c0 5.632 4.582 10.214 10.213 10.214 5.631 0 10.214-4.582 10.214-10.214 0-5.631-4.582-10.213-10.214-10.213-5.63 0-10.213 4.582-10.213 10.213zm-.184 0c0 5.734 4.664 10.398 10.397 10.398 5.733 0 10.398-4.664 10.398-10.398 0-5.733-4.665-10.398-10.398-10.398S4.408 10.072 4.408 15.805z" fill="currentColor"/></svg><svg fill="none" viewBox="0 0 14 15" id="settings" xmlns="http://www.w3.org/2000/svg"><g clip-path="url(#axclip0_101_1115)"><path d="M13.688 6.313l-1.638-.402a5.284 5.284 0 00-.344-.836l.837-1.395a.408.408 0 00-.058-.5L11.32 2.015a.408.408 0 00-.5-.058l-1.395.837c-.27-.14-.55-.254-.836-.344L8.195.812A.42.42 0 007.793.5h-1.64a.42.42 0 00-.403.312L5.357 2.45c-.287.09-.566.205-.837.344l-1.395-.837a.408.408 0 00-.5.058L1.46 3.18a.408.408 0 00-.057.5l.836 1.395c-.139.27-.254.55-.344.836l-1.583.402A.404.404 0 000 6.707v1.64c0 .19.131.353.312.394l1.583.402c.09.287.205.566.344.837l-.836 1.395a.408.408 0 00.057.5l1.165 1.165a.408.408 0 00.5.057l1.395-.836c.27.139.55.254.837.344l.393 1.583a.42.42 0 00.402.312h1.641a.42.42 0 00.402-.312l.394-1.583c.287-.09.566-.205.836-.345l1.395.837c.164.099.37.074.5-.057l1.165-1.165a.408.408 0 00.058-.5l-.837-1.395c.14-.27.254-.55.344-.837l1.638-.402A.404.404 0 0014 8.348V6.707a.404.404 0 00-.312-.394zM6.973 9.578a2.052 2.052 0 11.001-4.103 2.052 2.052 0 01-.001 4.103z" fill="currentColor"/></g><defs><clipPath id="axclip0_101_1115"><path fill="#fff" transform="translate(0 .5)" d="M0 0h14v14H0z"/></clipPath></defs></svg><svg fill="none" viewBox="0 0 14 16" id="share" xmlns="http://www.w3.org/2000/svg"><path d="M4.154 7.7a.611.611 0 01-.534-.316.632.632 0 01.23-.852l5.693-3.307a.607.607 0 01.837.234c.168.3.065.681-.229.852L4.458 7.618a.6.6 0 01-.304.082zM9.846 12.856a.594.594 0 01-.303-.082L3.849 9.467a.63.63 0 01-.229-.852.607.607 0 01.838-.233l5.693 3.306a.63.63 0 01.23.852.614.614 0 01-.535.316z" fill="#2C2C2C"/><path d="M13.75 13c0 1.38-1.099 2.5-2.455 2.5-1.355 0-2.454-1.12-2.454-2.5 0-1.381 1.099-2.5 2.454-2.5 1.356 0 2.455 1.119 2.455 2.5zM13.75 3c0 1.381-1.099 2.5-2.455 2.5C9.94 5.5 8.841 4.382 8.841 3 8.84 1.62 9.94.5 11.295.5 12.651.5 13.75 1.62 13.75 3zM5.16 8c0 1.38-1.1 2.5-2.455 2.5C1.349 10.5.25 9.38.25 8s1.099-2.5 2.455-2.5C4.06 5.5 5.159 6.62 5.159 8z" fill="#2C2C2C"/></svg><svg viewBox="0 0 20 20" id="star" xmlns="http://www.w3.org/2000/svg"><path d="M7.624 6.781L10 .785l2.376 5.996c.115.29.383.505.71.533l6.221.523-4.758 4.279a.867.867 0 00-.263.836l1.446 6.362-5.285-3.389a.826.826 0 00-.894 0l-5.285 3.389 1.446-6.362-.488-.111.488.11a.867.867 0 00-.263-.835L.693 7.837l6.222-.523a.841.841 0 00.709-.533zm11.923.841z"/></svg><svg fill="none" viewBox="0 0 14 15" id="switches" xmlns="http://www.w3.org/2000/svg"><g clip-path="url(#baclip0_101_1102)" fill="currentColor"><path d="M10.954.5H3.046A3.05 3.05 0 000 3.546a3.05 3.05 0 003.046 3.046h7.908A3.05 3.05 0 0014 3.546 3.05 3.05 0 0010.954.5zM3.046 5.772A2.228 2.228 0 01.82 3.546c0-1.227.999-2.226 2.226-2.226 1.227 0 2.226.999 2.226 2.226a2.228 2.228 0 01-2.226 2.226zM10.954 8.408H3.046A3.05 3.05 0 000 11.454 3.05 3.05 0 003.046 14.5h7.908A3.05 3.05 0 0014 11.454a3.05 3.05 0 00-3.046-3.046zm0 5.272a2.228 2.228 0 01-2.226-2.226c0-1.228.999-2.226 2.226-2.226 1.227 0 2.226.998 2.226 2.226a2.228 2.228 0 01-2.226 2.226z"/></g><defs><clipPath id="baclip0_101_1102"><path fill="#fff" transform="translate(0 .5)" d="M0 0h14v14H0z"/></clipPath></defs></svg><svg viewBox="0 0 20 18" id="telegram" xmlns="http://www.w3.org/2000/svg"><path d="M7.848 11.651l-.331 4.653c.473 0 .678-.203.924-.447l2.22-2.121 4.598 3.367c.843.47 1.437.223 1.665-.775l3.018-14.144C20.21.937 19.493.449 18.67.755L.928 7.548c-1.21.47-1.192 1.145-.205 1.45l4.535 1.411 10.536-6.592c.496-.328.947-.147.576.182L7.848 11.65z"/></svg><svg fill="none" viewBox="0 0 16 16" id="trash" xmlns="http://www.w3.org/2000/svg"><path d="M9.207 5.797a.375.375 0 00-.375.375v7.082a.375.375 0 00.75 0V6.172a.375.375 0 00-.375-.375zM6.786 5.797a.375.375 0 00-.375.375v7.082a.375.375 0 00.75 0V6.172a.375.375 0 00-.375-.375z" fill="currentColor"/><path d="M2.563 4.763v9.232c0 .546.2 1.059.55 1.426.348.369.832.578 1.339.58h7.09c.506-.002.99-.211 1.338-.58.35-.367.55-.88.55-1.426V4.763a1.431 1.431 0 00-.367-2.814h-1.919V1.48A1.472 1.472 0 009.66 0H6.333a1.472 1.472 0 00-1.484 1.48v.469H2.93a1.432 1.432 0 00-.367 2.814zm8.978 10.488h-7.09c-.64 0-1.138-.55-1.138-1.256V4.796h9.367v9.2c0 .704-.498 1.255-1.139 1.255zM5.598 1.48A.721.721 0 016.333.75H9.66a.722.722 0 01.735.73v.469H5.598V1.48zM2.93 2.697h10.133a.674.674 0 110 1.349H2.93a.674.674 0 110-1.349z" fill="currentColor"/></svg><svg fill="none" viewBox="0 0 14 15" id="user" xmlns="http://www.w3.org/2000/svg"><g clip-path="url(#bdclip0_101_1098)" fill="currentColor"><path d="M6.9 7.244c.927 0 1.73-.332 2.385-.988a3.263 3.263 0 00.987-2.384c0-.926-.332-1.729-.988-2.384A3.263 3.263 0 006.9.5c-.926 0-1.728.332-2.384.988a3.263 3.263 0 00-.988 2.384c0 .926.333 1.729.988 2.384a3.263 3.263 0 002.384.988zM12.8 11.265a8.35 8.35 0 00-.113-.884 6.963 6.963 0 00-.218-.89 4.388 4.388 0 00-.365-.83 3.13 3.13 0 00-.552-.718 2.432 2.432 0 00-.792-.497 2.737 2.737 0 00-1.01-.183c-.144 0-.282.058-.549.232l-.57.368a3.272 3.272 0 01-.74.326c-.299.097-.603.146-.903.146-.3 0-.604-.05-.903-.146a3.264 3.264 0 01-.739-.326c-.212-.135-.404-.26-.571-.368-.267-.174-.405-.232-.548-.232-.364 0-.704.061-1.01.183-.309.122-.575.289-.793.497-.208.2-.393.441-.551.719a4.402 4.402 0 00-.366.83c-.087.273-.16.572-.217.889a8.3 8.3 0 00-.114.885c-.018.268-.028.546-.028.826 0 .731.233 1.323.69 1.76.453.43 1.052.648 1.78.648h6.741c.728 0 1.327-.218 1.78-.649.457-.436.69-1.028.69-1.759 0-.282-.01-.56-.029-.827z"/></g><defs><clipPath id="bdclip0_101_1098"><path fill="#fff" transform="translate(0 .5)" d="M0 0h14v14H0z"/></clipPath></defs></svg><svg fill="none" viewBox="0 0 28 28" id="user-circle" xmlns="http://www.w3.org/2000/svg"><path d="M14 27.183c7.28 0 13.183-5.902 13.183-13.183S21.281.817 14 .817.816 6.719.816 14C.816 21.28 6.72 27.183 14 27.183z"/><path d="M14 17.383c-4.084 0-7.584 2.334-9.334 5.834 2.333 2.45 5.717 3.85 9.333 3.85 3.617 0 7-1.517 9.334-3.85-1.75-3.384-5.25-5.834-9.334-5.834zM14 14.35a4.2 4.2 0 100-8.4 4.2 4.2 0 000 8.4z"/></svg><svg fill="none" viewBox="0 0 14 14" id="view-2" xmlns="http://www.w3.org/2000/svg"><rect width="6" height="6" rx="1.5" fill="currentColor"/><rect y="8" width="6" height="6" rx="1.5" fill="currentColor"/><rect x="8" width="6" height="6" rx="1.5" fill="currentColor"/><rect x="8" y="8" width="6" height="6" rx="1.5" fill="currentColor"/></svg><svg fill="none" viewBox="0 0 14 14" id="view-full" xmlns="http://www.w3.org/2000/svg"><rect width="14" height="9" rx="1.5" fill="currentColor"/><path d="M0 12.146C0 11.513.513 11 1.146 11h11.708a1.146 1.146 0 11-.512 2.17l-.087-.043a1.206 1.206 0 00-.54-.127h-9.43c-.188 0-.372.044-.54.127l-.087.044A1.146 1.146 0 010 12.146z" fill="currentColor"/></svg><svg viewBox="0 0 23 13" id="vk" xmlns="http://www.w3.org/2000/svg"><path d="M19.086 7.455c-.372-.455-.266-.658 0-1.065.005-.004 3.074-4.114 3.39-5.508h.003c.157-.509 0-.882-.76-.882h-2.515c-.64 0-.936.32-1.094.679 0 0-1.28 2.97-3.091 4.894-.585.556-.855.735-1.174.735-.158 0-.402-.178-.402-.686V.882c0-.61-.18-.882-.71-.882H8.78c-.402 0-.64.284-.64.549 0 .577.905.71.999 2.335V6.41c0 .772-.145.915-.466.915-.855 0-2.93-2.982-4.16-6.395C4.267.268 4.024 0 3.379 0H.863C.145 0 0 .322 0 .68c0 .633.855 3.782 3.975 7.942C6.055 11.462 8.984 13 11.648 13c1.601 0 1.797-.342 1.797-.93 0-2.713-.145-2.97.657-2.97.372 0 1.012.18 2.508 1.549C18.317 12.273 18.599 13 19.555 13h2.515c.717 0 1.08-.342.871-1.016-.478-1.418-3.71-4.334-3.855-4.53z"/></svg><svg viewBox="0 0 20 20" id="what" xmlns="http://www.w3.org/2000/svg"><path d="M17.194 2.806A9.518 9.518 0 0010.419 0a9.518 9.518 0 00-6.774 2.806A9.518 9.518 0 00.839 9.581c0 1.62.41 3.214 1.189 4.625L0 20l5.794-2.028a9.576 9.576 0 004.625 1.19 9.518 9.518 0 006.775-2.807A9.518 9.518 0 0020 9.581c0-2.56-.997-4.965-2.806-6.775zM15.156 13.14l-1.106 1.106c-.917.916-3.516-.198-5.807-2.489-2.29-2.29-3.405-4.89-2.489-5.807L6.86 4.844c.23-.229.6-.229.83 0l1.382 1.383c.23.229.23.6 0 .83l-.83.829a8.138 8.138 0 003.872 3.871l.83-.83c.229-.229.6-.229.83 0l1.382 1.383c.229.23.229.6 0 .83z"/></svg></svg>