<svg width="22" height="22" viewBox="0 0 22 22" fill="none" xmlns="http://www.w3.org/2000/svg">
<path fill-rule="evenodd" clip-rule="evenodd" d="M0.304474 6.25613C0.519777 6.20289 0.737949 6.33237 0.791775 6.54534L1.33266 8.68541C1.43442 8.67449 1.55242 8.66369 1.67996 8.65548C2.06949 8.63039 2.59841 8.62545 3.02222 8.74336C3.56321 8.89386 4.02281 9.18228 4.43319 9.46876C4.54656 9.54791 4.65489 9.62582 4.76041 9.7017C5.05258 9.91183 5.32317 10.1064 5.6196 10.2688C5.81375 10.3752 5.88397 10.6171 5.77645 10.8091C5.66893 11.0012 5.42438 11.0706 5.23024 10.9643C4.88658 10.776 4.55806 10.5396 4.25491 10.3215C4.15711 10.2511 4.06195 10.1826 3.96978 10.1183C3.57495 9.84264 3.20781 9.62079 2.80463 9.50863C2.52032 9.42953 2.10742 9.42459 1.73218 9.44876C1.66099 9.45334 1.59296 9.45883 1.52962 9.4647L3.73716 18.1991C4.02784 19.3492 5.07258 20.1561 6.27112 20.1561H15.6293C16.8278 20.1561 17.8726 19.3492 18.1633 18.1991L20.1175 10.467C20.1096 10.459 20.1014 10.4508 20.0929 10.4424C19.9848 10.3353 19.8315 10.193 19.6504 10.0518C19.2686 9.75391 18.8425 9.52347 18.4847 9.52347C18.0848 9.52347 17.5311 9.73149 17.0319 9.97836C16.7922 10.0969 16.5817 10.2159 16.4311 10.3053C16.3559 10.3499 16.2962 10.3868 16.2556 10.4123C16.2354 10.4251 16.22 10.435 16.2099 10.4415L16.1988 10.4486L16.1964 10.4502C16.0117 10.5719 15.7619 10.5228 15.6388 10.3402C15.5157 10.1575 15.5656 9.91074 15.7503 9.78897L15.9732 10.1197C15.7503 9.78897 15.7503 9.78897 15.7503 9.78897L15.7522 9.78771L15.7563 9.78504L15.7708 9.7756C15.7833 9.76755 15.8013 9.75608 15.8242 9.74166C15.87 9.71283 15.9358 9.67216 16.0176 9.62359C16.1809 9.52667 16.4099 9.39721 16.6725 9.26733C17.178 9.01734 17.88 8.72851 18.4847 8.72851C19.1314 8.72851 19.7433 9.11179 20.1481 9.42761C20.216 9.48058 20.2803 9.53344 20.3404 9.58487L21.1086 6.54534C21.1625 6.33237 21.3806 6.20289 21.5959 6.25613C21.8112 6.30937 21.9421 6.52518 21.8883 6.73814L18.9429 18.3919C18.5628 19.8959 17.1966 20.951 15.6293 20.951H6.27112C4.7038 20.951 3.33761 19.8959 2.95747 18.3919L0.012093 6.73814C-0.0417329 6.52518 0.0891705 6.30937 0.304474 6.25613Z" fill="#2C2C2C"/>
<path fill-rule="evenodd" clip-rule="evenodd" d="M13.9783 2.01911C13.0062 1.74439 11.9694 1.79684 11.0307 2.16824L10.9547 2.19831C10.4298 2.40599 9.94611 2.70373 9.5259 3.07781L6.0869 6.13934C5.82784 6.36997 5.85793 6.78028 6.14792 6.97151L6.42942 7.15714L8.37817 5.87207C8.97788 5.4766 9.65012 5.20117 10.3569 5.06135C11.2696 4.88079 12.1078 4.43705 12.7659 3.78605L13.1775 3.37899C13.3344 3.22377 13.5888 3.22377 13.7457 3.37899C13.9027 3.53422 13.9027 3.78589 13.7457 3.94111L13.3342 4.34817C12.5639 5.11015 11.5828 5.62954 10.5145 5.84087C9.91066 5.96033 9.33634 6.19564 8.82397 6.53352L6.98955 7.7432C7.16531 8.11546 7.16679 8.55546 6.97345 8.93794L5.40612 12.0386C5.35235 12.145 5.32437 12.2622 5.32437 12.3812C5.32437 12.6713 5.49008 12.9365 5.75242 13.0663L5.78268 13.0812L9.1042 7.91831C9.22335 7.73311 9.47172 7.67851 9.65895 7.79637C9.84618 7.91422 9.90138 8.1599 9.78223 8.3451L6.30984 13.7425C6.21295 14.4703 6.94802 15.0499 7.6528 14.7717L10.5973 9.43192C10.7036 9.2392 10.9477 9.16819 11.1425 9.27331C11.3374 9.37843 11.4092 9.61987 11.3029 9.81259L8.44771 14.9903C9.07093 15.3976 9.93243 15.2705 10.4004 14.6533L10.6069 14.3809L12.5999 10.4382C12.6991 10.2419 12.9405 10.1623 13.139 10.2604C13.3375 10.3586 13.418 10.5974 13.3187 10.7937L11.4107 14.5684C11.7607 14.9938 12.4616 14.9699 12.7659 14.4683L15.4418 10.0568C15.8759 9.34109 16.1906 8.56083 16.3736 7.74606L16.7684 5.98882C16.9511 5.17563 16.8114 4.3241 16.3781 3.60978C15.9489 2.90222 15.2639 2.38246 14.4618 2.15577L13.9783 2.01911ZM10.9514 15.2438C11.6758 15.8989 12.9004 15.7916 13.455 14.8773L16.131 10.4658C16.6095 9.67683 16.9564 8.81669 17.1582 7.91851L17.553 6.16127C17.7803 5.14933 17.6065 4.08968 17.0673 3.20078C16.5332 2.32028 15.6807 1.67349 14.6826 1.3914L14.199 1.25474C13.0557 0.931617 11.8362 0.993313 10.7322 1.43014L10.6562 1.46021C10.0435 1.70265 9.47881 2.05022 8.98827 2.48692L5.54927 5.54845C4.90034 6.12615 4.97571 7.15394 5.70213 7.63296L6.16907 7.94088C6.32668 8.11639 6.36179 8.37041 6.25462 8.58242L4.68729 11.6831C4.57773 11.8998 4.52069 12.1388 4.52069 12.3812C4.52069 12.9724 4.85839 13.5129 5.39301 13.7773L5.4975 13.829C5.46485 15.0271 6.66561 15.9412 7.85321 15.5455C8.79209 16.2777 10.1652 16.1532 10.9514 15.2438Z" fill="#2C2C2C"/>
<path fill-rule="evenodd" clip-rule="evenodd" d="M10.7637 1.3831C11.8779 0.942256 13.1085 0.879997 14.2624 1.20609L14.7459 1.34275C15.7561 1.62824 16.619 2.28286 17.1596 3.1742C17.7055 4.07407 17.8815 5.14687 17.6513 6.17139L17.2565 7.92864C17.1646 8.33797 17.0427 8.73945 16.892 9.12997C17.3766 8.90506 17.9918 8.67798 18.5345 8.67798C19.1989 8.67798 19.8222 9.07063 20.2285 9.38762C20.2745 9.42352 20.3189 9.45936 20.3615 9.49474L21.1102 6.53237C21.1708 6.29244 21.4162 6.14734 21.6577 6.20706C21.8993 6.26681 22.0471 6.50943 21.9864 6.74955L19.041 18.4033C18.6552 19.9297 17.2689 21 15.6791 21H6.32092C4.73112 21 3.34481 19.9297 2.95901 18.4033L0.0136311 6.74955C-0.0470578 6.50943 0.100659 6.26682 0.342316 6.20706C0.583793 6.14734 0.829188 6.29244 0.889828 6.53237L1.42015 8.63066C1.51223 8.62125 1.6158 8.61218 1.72656 8.60505C2.11699 8.57991 2.653 8.57437 3.08536 8.69465C3.63482 8.84751 4.10011 9.14002 4.51148 9.42719C4.62519 9.50657 4.73379 9.58468 4.83926 9.66053C5.05998 9.81927 5.26678 9.96796 5.48095 10.1004L6.25999 8.55921C6.35689 8.36752 6.32645 8.1382 6.18599 7.97803L5.72451 7.67371C4.97089 7.17675 4.89255 6.11002 5.56596 5.51052L9.00496 2.44899C9.49987 2.0084 10.0695 1.65775 10.6877 1.41317L10.7637 1.3831ZM5.4359 10.1895C5.21559 10.0538 5.00442 9.9019 4.78247 9.74227L4.78113 9.74131C4.67558 9.6654 4.56753 9.58769 4.45448 9.50877C4.0451 9.22298 3.5912 8.93866 3.05867 8.79051C2.6434 8.67498 2.12159 8.67932 1.73296 8.70435C1.60623 8.71251 1.48894 8.72324 1.38777 8.7341L1.34479 8.73871L0.793313 6.55675C0.746302 6.37074 0.555352 6.25688 0.366223 6.30365C0.177273 6.35037 0.0631834 6.53937 0.110146 6.72518L3.05553 18.3789C3.43 19.8605 4.77607 20.9005 6.32092 20.9005H15.6791C17.2239 20.9005 18.57 19.8605 18.9445 18.3789L21.8899 6.72518C21.9368 6.53937 21.8227 6.35037 21.6338 6.30365C21.4446 6.25688 21.2537 6.37074 21.2067 6.55675L20.4188 9.67404L20.3579 9.62189C20.2982 9.5709 20.2345 9.51852 20.1673 9.46606C19.7639 9.1514 19.1635 8.77749 18.5345 8.77749C17.9783 8.77749 17.3333 9.0279 16.8385 9.26527C16.6869 9.6393 16.5087 10.0028 16.3051 10.353C16.344 10.3289 16.3947 10.2978 16.4555 10.2617C16.6069 10.1718 16.8185 10.0522 17.0596 9.93299C17.5592 9.68595 18.122 9.47294 18.5345 9.47294C18.9101 9.47294 19.3475 9.71279 19.7308 10.0118C19.9138 10.1546 20.0686 10.2982 20.1777 10.4063L20.2026 10.4311L20.2224 10.4511L18.2613 18.2105C17.965 19.383 16.9001 20.205 15.6791 20.205H6.32092C5.09991 20.205 4.03504 19.383 3.73869 18.2105L1.51691 9.41975L1.57482 9.41439C1.63858 9.40848 1.70707 9.40295 1.77877 9.39833C2.15486 9.37411 2.57489 9.37844 2.86777 9.45992C3.27944 9.57445 3.65229 9.8004 4.04808 10.0767C4.14055 10.1413 4.23597 10.2099 4.33367 10.2802C4.5822 10.4591 4.84593 10.6488 5.12021 10.814L5.4359 10.1895ZM5.20611 10.8648L5.52137 10.2411C5.56231 10.2652 5.60363 10.2888 5.64548 10.3117C5.81559 10.4049 5.87669 10.6164 5.78281 10.784C5.68876 10.952 5.47437 11.0132 5.30396 10.9199C5.2712 10.9019 5.23859 10.8835 5.20611 10.8648ZM5.16115 10.9537C5.19266 10.9719 5.22432 10.9897 5.25611 11.0071C5.47399 11.1265 5.7487 11.0487 5.86968 10.8326C5.99084 10.6162 5.91149 10.3439 5.69332 10.2244C5.65051 10.201 5.60825 10.1768 5.56636 10.1521L6.34884 8.60408C6.46534 8.37362 6.42711 8.09752 6.25591 7.90687L6.25716 7.90575L5.77933 7.59066C5.08011 7.12957 5.00773 6.14072 5.63217 5.58482L9.07117 2.52329C9.55734 2.09049 10.117 1.74599 10.7243 1.50569L10.8003 1.47562C11.8942 1.04282 13.1025 0.981682 14.2353 1.30184L14.7188 1.4385C15.705 1.71719 16.547 2.35615 17.0745 3.22579C17.607 4.10372 17.7787 5.15023 17.5542 6.14959L17.1594 7.90683C17.0608 8.3458 16.9273 8.77562 16.7606 9.19239C16.7402 9.2023 16.72 9.21216 16.7002 9.22196C16.4362 9.35254 16.2061 9.48265 16.042 9.58003C15.9597 9.62885 15.8936 9.66975 15.8474 9.69878C15.8244 9.7133 15.8063 9.72488 15.7937 9.73302L15.779 9.74252L15.7747 9.7453L15.7727 9.74662C15.7395 9.76853 15.7101 9.7941 15.6848 9.82236C16.0445 9.17441 16.3097 8.47879 16.472 7.75618L16.8668 5.99894C17.0523 5.17317 16.9104 4.30849 16.4705 3.58321C16.0347 2.8648 15.3393 2.33721 14.5251 2.10712L14.0416 1.97046C13.059 1.69277 12.011 1.74579 11.0622 2.1212L10.9862 2.15127C10.4559 2.36109 9.96717 2.66191 9.5426 3.03988L6.1036 6.10141C5.82004 6.35384 5.85311 6.80309 6.17031 7.01227L6.47922 7.21597L8.45537 5.91282C9.04968 5.52091 9.71589 5.24795 10.4163 5.10938C11.3386 4.92693 12.1856 4.47854 12.8507 3.82063L13.2623 3.41358C13.3998 3.27754 13.623 3.27754 13.7605 3.41358C13.8978 3.54933 13.8978 3.76922 13.7605 3.90497L13.349 4.31203C12.5857 5.06711 11.6134 5.58184 10.5546 5.79129C9.94448 5.912 9.36413 6.14978 8.84635 6.49121L6.97592 7.72465L6.99433 7.76365C7.16368 8.12235 7.16509 8.54623 6.97883 8.91472L5.41149 12.0154C5.35422 12.1287 5.32437 12.2544 5.32437 12.3812C5.32437 12.6904 5.50102 12.972 5.78015 13.1101L5.85028 13.1448L9.19586 7.94444C9.30013 7.78237 9.51792 7.73427 9.68222 7.83769C9.84622 7.94092 9.89423 8.15566 9.79016 8.31742L6.31176 13.7242L6.3103 13.7352C6.20831 14.5012 6.98133 15.1091 7.72088 14.8172L7.73754 14.8106L10.6907 9.45516C10.7837 9.28659 10.9977 9.22404 11.1687 9.31631C11.3394 9.40843 11.4019 9.61953 11.3091 9.7878L8.43164 15.0059L8.47027 15.0311C9.11476 15.4524 10.0057 15.3212 10.4898 14.6826L10.6964 14.4102L12.6941 10.4599C12.7809 10.2881 12.9925 10.2181 13.1667 10.3043C13.3407 10.3903 13.4107 10.5991 13.3241 10.7705L11.4014 14.5742L11.422 14.5992C11.793 15.0501 12.5355 15.0254 12.8582 14.4933L15.5342 10.0818C15.5538 10.0495 15.5731 10.017 15.5923 9.98447C15.5526 10.1092 15.5683 10.2499 15.6474 10.3672C15.7421 10.5078 15.9035 10.5779 16.0623 10.5644L13.4622 14.8508C12.9249 15.7367 11.7373 15.8416 11.0346 15.2061L10.9968 15.1719L10.9635 15.2105C10.1949 16.0997 8.85179 16.2216 7.93363 15.5055L7.91259 15.4891L7.88727 15.4975C6.73232 15.8823 5.56534 14.993 5.59705 13.8296L5.59792 13.7977L5.46488 13.7319C4.94704 13.4758 4.62026 12.9525 4.62026 12.3804C4.62026 12.1459 4.67546 11.9146 4.78151 11.7048L5.16115 10.9537ZM5.0752 10.9031C4.79456 10.7345 4.52611 10.5413 4.2768 10.3619L4.27562 10.3611C4.17777 10.2906 4.0829 10.2224 3.99108 10.1583C3.59721 9.88331 3.23577 9.66558 2.84108 9.55578C2.56535 9.47907 2.15958 9.47352 1.78517 9.49763C1.73574 9.50081 1.68784 9.50444 1.64197 9.50832L3.83521 18.1861C4.12024 19.3138 5.14485 20.1055 6.32092 20.1055H15.6791C16.8552 20.1055 17.8798 19.3138 18.1648 18.1861L20.1121 10.4814L20.1077 10.477C20.0005 10.3708 19.8487 10.23 19.6696 10.0903C19.2892 9.79348 18.8746 9.57245 18.5345 9.57245C18.1472 9.57245 17.6026 9.77548 17.1038 10.0222C16.8655 10.14 16.6561 10.2583 16.5063 10.3473C16.4316 10.3916 16.3722 10.4283 16.332 10.4537C16.3119 10.4663 16.2967 10.476 16.2868 10.4824M16.2868 10.4824L16.2758 10.4895L16.2736 10.491M5.0752 10.9031L4.69266 11.6599C4.57959 11.8836 4.52069 12.131 4.52069 12.3812C4.52069 12.9915 4.86933 13.5484 5.42073 13.8211L5.49695 13.8588C5.48541 15.0673 6.69205 15.9821 7.89343 15.6001C8.83923 16.3204 10.203 16.2019 11.0057 15.3131C11.7559 15.9508 12.9851 15.8292 13.5474 14.9023L16.2868 10.4824M16.1319 10.4496L16.1382 10.4392C16.354 10.0835 16.5428 9.71325 16.7035 9.33151C16.4594 9.45378 16.2468 9.57421 16.0928 9.66559C16.0114 9.71391 15.946 9.75435 15.9005 9.78298C15.8889 9.79025 15.8786 9.79677 15.8697 9.80246L16.0643 10.0911L15.9817 10.1467L15.7883 9.85969C15.6594 9.9732 15.6317 10.1658 15.7299 10.3116C15.8193 10.4442 15.9854 10.4966 16.1319 10.4496ZM14.0145 2.06621C13.0529 1.79445 12.0273 1.84635 11.0988 2.21372L11.0228 2.24379C10.5033 2.44933 10.0246 2.74399 9.6088 3.11418L6.1698 6.17571C5.93523 6.38454 5.96233 6.75591 6.22513 6.92921L6.47922 7.09676L8.40055 5.82977C9.00567 5.43073 9.68393 5.15284 10.397 5.01177C11.3002 4.8331 12.1296 4.39401 12.7807 3.74991L13.1922 3.34285C13.3686 3.16844 13.6542 3.16844 13.8306 3.34285C14.0072 3.51755 14.0072 3.801 13.8306 3.9757L13.419 4.38276C12.6417 5.15164 11.6518 5.67568 10.574 5.8889C9.97644 6.00711 9.40814 6.23996 8.90117 6.57427L7.10222 7.76056C7.26639 8.13779 7.2613 8.57654 7.06768 8.95959L5.50034 12.0603C5.45008 12.1597 5.42393 12.2693 5.42393 12.3804C5.42393 12.6478 5.57471 12.893 5.81471 13.0161L9.11213 7.89062C9.24616 7.68229 9.5251 7.6212 9.73527 7.75349C9.94574 7.88597 10.0081 8.16259 9.87389 8.37123L6.40759 13.7592C6.3252 14.438 7.00642 14.9787 7.66777 14.731L10.6035 9.40713C10.7231 9.19027 10.9973 9.11079 11.216 9.22875C11.4349 9.34688 11.516 9.61866 11.3963 9.83583L8.56375 14.9724C9.16218 15.3358 9.96847 15.2055 10.4105 14.6225L10.6143 14.3537L12.6053 10.415C12.717 10.194 12.9881 10.1049 13.2109 10.2151C13.4339 10.3254 13.5248 10.5941 13.4129 10.8154L11.5199 14.5604C11.8552 14.9348 12.4932 14.9031 12.7731 14.4418L15.449 10.0302C15.8804 9.31911 16.193 8.54389 16.3749 7.73438L16.7696 5.97714C16.9495 5.17653 16.812 4.33814 16.3854 3.6348C15.9627 2.93808 15.2881 2.42616 14.4981 2.20287L14.0145 2.06621Z" fill="#2C2C2C"/>
</svg>
