<svg width="22" height="16" viewBox="0 0 22 16" fill="none" xmlns="http://www.w3.org/2000/svg">
<path d="M21.2471 12.3806C20.6709 12.0267 12.6375 7.00182 11.3834 6.18793V5.4448C11.3834 5.16171 11.5189 4.94939 11.7562 4.84323C13.146 4.31243 13.6205 2.43693 12.5019 1.26916C11.18 -0.0755343 8.97675 0.915295 8.97675 2.82618C8.97675 3.0385 9.11233 3.18005 9.31571 3.18005C9.51908 3.18005 9.65467 3.0385 9.65467 2.82618C9.65467 1.55226 11.1122 0.844522 12.0274 1.79997C12.7731 2.57847 12.468 3.8524 11.5189 4.20627C11.0444 4.3832 10.7054 4.87862 10.7054 5.4448V6.18793C7.92597 7.92188 0.773901 12.3806 0.740005 12.416C0.197668 12.876 0.0281879 13.5838 0.231564 14.2561C0.468837 14.9285 1.04507 15.3531 1.72299 15.3531H20.2641C20.9421 15.3531 21.5183 14.9285 21.7556 14.2561C22.0267 13.513 21.6878 12.6637 21.2471 12.3806ZM21.1115 14.0084C21.0098 14.3269 20.7387 14.6454 20.2641 14.6454H1.75689C1.28234 14.6454 1.01117 14.3269 0.909485 14.0084C0.807797 13.7253 0.841693 13.3007 1.18065 12.9822C14.2645 4.84323 10.1631 7.42646 11.0783 6.82489C19.654 12.2037 20.4675 12.7345 20.8404 12.9114C20.9759 13.1237 21.3488 13.4068 21.1115 14.0084Z" fill="#2C2C2C"/>
<path fill-rule="evenodd" clip-rule="evenodd" d="M21.327 12.257C21.585 12.4228 21.7965 12.7398 21.9092 13.1023C22.0228 13.4678 22.0426 13.8989 21.8944 14.3054C21.6379 15.0315 21.0091 15.5 20.2637 15.5H1.72252C0.976807 15.5 0.347834 15.0311 0.0914458 14.3046L0.0892268 14.2983C-0.128968 13.577 0.0513892 12.8071 0.642189 12.3051C0.645555 12.3022 0.648015 12.3003 0.648636 12.2998L0.654747 12.2952L0.662891 12.2895L0.682025 12.2769C0.697277 12.2669 0.718995 12.253 0.746572 12.2354C0.801842 12.2001 0.882039 12.1494 0.984213 12.085C1.18863 11.9562 1.48179 11.7723 1.84117 11.5472C2.55996 11.0971 3.54407 10.4822 4.61393 9.81428C6.18782 8.83167 7.9474 7.73418 9.32102 6.87742C9.7842 6.58853 10.2035 6.327 10.557 6.10649V5.44466C10.557 4.82258 10.9293 4.26876 11.4665 4.06846C12.3132 3.75277 12.5946 2.6058 11.9197 1.90119C11.5074 1.47074 10.9825 1.41887 10.5587 1.61072C10.1316 1.80407 9.80218 2.24787 9.80218 2.82604C9.80218 2.9635 9.75783 3.09037 9.66817 3.18396C9.57789 3.27822 9.45282 3.32695 9.31523 3.32695C9.17765 3.32695 9.05258 3.27822 8.96229 3.18396C8.87264 3.09037 8.82829 2.9635 8.82829 2.82604C8.82829 0.801137 11.1803 -0.285294 12.6073 1.16628L12.6087 1.16764C13.7982 2.40952 13.2989 4.40785 11.813 4.97874C11.6348 5.05988 11.5309 5.21656 11.5309 5.44466V6.10805C12.978 7.04119 20.7581 11.9076 21.3244 12.2554L21.327 12.257ZM11.3834 6.18793C12.6375 7.00182 20.6709 12.0267 21.2471 12.3806C21.6878 12.6637 22.0267 13.513 21.7556 14.2561C21.5183 14.9285 20.9421 15.3531 20.2641 15.3531H1.72299C1.04507 15.3531 0.468837 14.9285 0.231564 14.2561C0.0281879 13.5838 0.197668 12.876 0.740005 12.416C0.769421 12.3853 6.1592 9.02313 9.4002 7.00164C9.89383 6.69376 10.3381 6.41711 10.7054 6.18793V5.4448C10.7054 4.87862 11.0444 4.3832 11.5189 4.20627C12.468 3.8524 12.7731 2.57847 12.0274 1.79997C11.1122 0.844522 9.65467 1.55226 9.65467 2.82618C9.65467 3.0385 9.51908 3.18005 9.31571 3.18005C9.11233 3.18005 8.97675 3.0385 8.97675 2.82618C8.97675 0.915295 11.18 -0.0755343 12.5019 1.26916C13.6205 2.43693 13.146 4.31243 11.7562 4.84323C11.5189 4.94939 11.3834 5.16171 11.3834 5.4448V6.18793ZM20.9733 13.9546C21.077 13.6916 21.0447 13.5121 20.981 13.3757C20.9474 13.3036 20.9029 13.2393 20.855 13.1766C20.8431 13.161 20.83 13.1444 20.8165 13.1273C20.7906 13.0943 20.7631 13.0594 20.7394 13.0261C20.5393 12.9264 20.1942 12.7178 18.9561 11.9431C18.3164 11.5429 17.4365 10.9903 16.2128 10.2218C14.9255 9.41335 13.2578 8.36598 11.0891 7.00567L11.0716 7.01641C11.0373 7.03744 10.9513 7.09019 10.7703 7.20181C10.0465 7.64811 7.80358 9.03538 1.27162 13.0986C0.989821 13.3712 0.965046 13.7268 1.04839 13.9588L1.05016 13.9638C1.13844 14.2403 1.36446 14.4982 1.75641 14.4982H20.2637C20.6556 14.4982 20.8817 14.2403 20.97 13.9638L20.9733 13.9546ZM1.18065 12.9822C8.09822 8.67905 10.2114 7.37298 10.8025 7.00891C10.8646 6.97072 10.9098 6.94289 10.9421 6.92306C10.9949 6.8906 11.013 6.87954 11.013 6.8795C11.013 6.87942 10.9659 6.90789 10.9412 6.92146C10.9254 6.93012 10.9187 6.93271 10.9392 6.9179C10.9555 6.90618 10.9887 6.88356 11.0479 6.84444C11.0571 6.8384 11.0668 6.83196 11.0773 6.82512C11.0775 6.82499 11.0781 6.82501 11.0783 6.82489C13.2914 8.213 14.9871 9.27808 16.2922 10.0977C20.0441 12.4539 20.5637 12.7801 20.8404 12.9114C20.864 12.9484 20.8943 12.9874 20.9278 13.0299C21.0868 13.2319 21.3075 13.5116 21.1115 14.0084C21.0098 14.3269 20.7387 14.6454 20.2641 14.6454H1.75689C1.28234 14.6454 1.01117 14.3269 0.909485 14.0084C0.807797 13.7253 0.841693 13.3007 1.18065 12.9822Z" fill="#2C2C2C"/>
</svg>
