<svg width="9" height="12" viewBox="0 0 9 12" fill="none" xmlns="http://www.w3.org/2000/svg">
<path d="M4.4998 3.98248C4.21656 3.98248 3.98604 4.21265 3.98604 4.49557C3.98604 4.77849 4.21651 5.00867 4.4998 5.00867C4.78309 5.00867 5.01356 4.77849 5.01356 4.49557C5.01356 4.21265 4.78303 3.98248 4.4998 3.98248Z" fill="white"/>
<path d="M4.5 0C2.01872 0 0 2.0161 0 4.4941C0 5.72169 0.670488 7.3256 1.99278 9.26128C2.93878 10.6461 3.87257 11.6933 3.91182 11.7372C4.0615 11.9044 4.27543 12 4.5 12C4.72457 12 4.9385 11.9044 5.08818 11.7372C5.12748 11.6933 6.06122 10.6461 7.00722 9.26128C8.32956 7.32566 9 5.72169 9 4.4941C9 2.0161 6.98128 0 4.5 0ZM4.5 6.58286C3.3468 6.58286 2.40858 5.64585 2.40858 4.49415C2.40858 3.3424 3.3468 2.40545 4.5 2.40545C5.65325 2.40545 6.59142 3.34246 6.59142 4.49415C6.59147 5.64585 5.6532 6.58286 4.5 6.58286Z" fill="white"/>
</svg>
