<svg width="34" height="34" viewBox="0 0 34 34" fill="none" xmlns="http://www.w3.org/2000/svg">
<g filter="url(#filter0_d_101_3384)">
<path d="M32 14.9997L27.9391 17.9325L29.9906 22.5024L25.0063 23.0059L24.5028 27.9913L19.9329 25.9388L17 29.9997L14.0671 25.9388L9.49722 27.9913L8.99374 23.0059L4.00941 22.5024L6.06087 17.9325L2 14.9997L6.06087 12.0677L4.00838 7.49771L8.99374 6.99423L9.49815 2.00887L14.0671 4.06136L17 0.000488281L19.9329 4.06136L24.5028 2.00887L25.0053 6.99423L29.9907 7.49771L27.9392 12.0667C27.9392 12.0668 32 14.9997 32 14.9997Z" fill="#FFBD3C"/>
</g>
<path d="M12.3328 12.0012C11.9826 12.0012 11.7225 12.2325 11.7225 12.6469V15.7788H11.7056L9.12381 12.2744C9.01798 12.1246 8.7658 12 8.61032 12C8.26008 12 8 12.2313 8 12.6457V17.353C8 17.7675 8.26008 17.9987 8.61032 17.9987C8.96166 17.9987 9.22174 17.7674 9.22174 17.353V14.2632H9.23866L11.8206 17.7256C11.9343 17.8754 12.1775 18 12.333 18C12.6843 18 12.9444 17.7687 12.9444 17.3543V12.647C12.9443 12.2336 12.6842 12.0012 12.3328 12.0012ZM17.1746 16.8067H15.6669V15.5475H17.0035C17.3953 15.5475 17.598 15.2576 17.598 14.976C17.598 14.6848 17.4021 14.4034 17.0035 14.4034H15.6669V13.1933H17.1003C17.4831 13.1933 17.679 12.9034 17.679 12.6218C17.679 12.3319 17.492 12.048 17.1003 12.048H15.0803C14.649 12.048 14.4464 12.3547 14.4464 12.7704V17.328C14.4464 17.7007 14.7143 17.9486 15.0736 17.9486H17.1747C17.5576 17.9486 17.7523 17.6599 17.7523 17.3771C17.7522 17.0883 17.5654 16.8067 17.1746 16.8067ZM25.4191 12.0012C25.0283 12.0012 24.8404 12.2325 24.7683 12.5979L24.0758 16.1191H24.0589L23.0004 12.4901C22.9115 12.1918 22.6671 12.0013 22.3665 12.0013C22.0659 12.0013 21.8204 12.1918 21.7315 12.4901L20.673 16.1191H20.6572L19.9648 12.5979C19.8915 12.2325 19.7047 12.0012 19.3128 12.0012C18.9559 12.0012 18.7352 12.2828 18.7352 12.5487L18.7667 12.8292L19.8015 17.3531C19.8825 17.7005 20.1517 17.9988 20.6077 17.9988C21.0063 17.9988 21.3159 17.7329 21.4139 17.3938L22.3586 14.1961H22.3755L23.3203 17.3938C23.4182 17.7329 23.7279 17.9988 24.1264 17.9988C24.5825 17.9988 24.8527 17.7005 24.9337 17.3531L25.9674 12.8292L26 12.5487C25.9968 12.2828 25.7772 12.0012 25.4191 12.0012Z" fill="white"/>
<defs>
<filter id="filter0_d_101_3384" x="0" y="0.000488281" width="34" height="33.999" filterUnits="userSpaceOnUse" color-interpolation-filters="sRGB">
<feFlood flood-opacity="0" result="BackgroundImageFix"/>
<feColorMatrix in="SourceAlpha" type="matrix" values="0 0 0 0 0 0 0 0 0 0 0 0 0 0 0 0 0 0 127 0" result="hardAlpha"/>
<feOffset dy="2"/>
<feGaussianBlur stdDeviation="1"/>
<feComposite in2="hardAlpha" operator="out"/>
<feColorMatrix type="matrix" values="0 0 0 0 0 0 0 0 0 0 0 0 0 0 0 0 0 0 0.15 0"/>
<feBlend mode="normal" in2="BackgroundImageFix" result="effect1_dropShadow_101_3384"/>
<feBlend mode="normal" in="SourceGraphic" in2="effect1_dropShadow_101_3384" result="shape"/>
</filter>
</defs>
</svg>
