<svg width="22" height="22" viewBox="0 0 22 22" fill="none" xmlns="http://www.w3.org/2000/svg">
<path d="M19.7083 0H2.29167C1.68388 0 1.10098 0.241443 0.671214 0.671214C0.241443 1.10098 0 1.68388 0 2.29167L0 19.7083C0 20.0093 0.0592757 20.3073 0.174443 20.5853C0.28961 20.8634 0.458413 21.116 0.671214 21.3288C0.884015 21.5416 1.13665 21.7104 1.41468 21.8256C1.69272 21.9407 1.99072 22 2.29167 22H19.7083C20.0093 22 20.3073 21.9407 20.5853 21.8256C20.8634 21.7104 21.116 21.5416 21.3288 21.3288C21.5416 21.116 21.7104 20.8634 21.8256 20.5853C21.9407 20.3073 22 20.0093 22 19.7083V2.29167C22 1.99072 21.9407 1.69272 21.8256 1.41468C21.7104 1.13665 21.5416 0.884015 21.3288 0.671214C21.116 0.458413 20.8634 0.28961 20.5853 0.174443C20.3073 0.0592757 20.0093 0 19.7083 0V0ZM2.29167 21.0833C1.92699 21.0833 1.57726 20.9385 1.31939 20.6806C1.06153 20.4227 0.916667 20.073 0.916667 19.7083V18.5442L8.25 11.2108L18.1454 21.0833H2.29167ZM21.0833 19.7083C21.0833 20.073 20.9385 20.4227 20.6806 20.6806C20.4227 20.9385 20.073 21.0833 19.7083 21.0833H19.4379L13.0854 14.7308L16.5642 11.2521L21.0833 15.7713V19.7083ZM21.0833 14.4788L16.885 10.2804C16.7991 10.1951 16.683 10.1471 16.5619 10.1471C16.4408 10.1471 16.3246 10.1951 16.2388 10.2804L12.4392 14.08L8.58458 10.2254C8.49871 10.1401 8.38254 10.0921 8.26146 10.0921C8.14037 10.0921 8.02421 10.1401 7.93833 10.2254L0.916667 17.2471V2.29167C0.916667 1.92699 1.06153 1.57726 1.31939 1.31939C1.57726 1.06153 1.92699 0.916667 2.29167 0.916667H19.7083C20.073 0.916667 20.4227 1.06153 20.6806 1.31939C20.9385 1.57726 21.0833 1.92699 21.0833 2.29167V14.4788Z" fill="url(#paint0_linear_103_8367)"/>
<path d="M11.4585 3.2082C10.9146 3.2082 10.3829 3.36948 9.93068 3.67166C9.47844 3.97383 9.12597 4.40332 8.91783 4.90582C8.70969 5.40832 8.65523 5.96125 8.76134 6.4947C8.86745 7.02814 9.12936 7.51815 9.51395 7.90274C9.89855 8.28734 10.3886 8.54925 10.922 8.65536C11.4554 8.76147 12.0084 8.70701 12.5109 8.49887C13.0134 8.29073 13.4429 7.93825 13.745 7.48602C14.0472 7.03378 14.2085 6.5021 14.2085 5.9582C14.2085 5.22885 13.9188 4.52938 13.403 4.01365C12.8873 3.49793 12.1878 3.2082 11.4585 3.2082ZM11.4585 7.79153C11.0959 7.79153 10.7414 7.68401 10.44 7.48256C10.1385 7.28111 9.90348 6.99478 9.76472 6.65978C9.62596 6.32479 9.58965 5.95616 9.66039 5.60053C9.73113 5.2449 9.90574 4.91823 10.1621 4.66184C10.4185 4.40544 10.7452 4.23083 11.1008 4.16009C11.4565 4.08935 11.8251 4.12566 12.1601 4.26442C12.4951 4.40318 12.7814 4.63816 12.9829 4.93965C13.1843 5.24114 13.2918 5.5956 13.2918 5.9582C13.2918 6.44443 13.0987 6.91074 12.7549 7.25456C12.411 7.59838 11.9447 7.79153 11.4585 7.79153Z" fill="url(#paint1_linear_103_8367)"/>
<defs>
<linearGradient id="paint0_linear_103_8367" x1="-5.70634e-08" y1="11.1549" x2="22" y2="11.1549" gradientUnits="userSpaceOnUse">
<stop stop-color="#21A5B5"/>
<stop offset="1" stop-color="#71B2B4"/>
</linearGradient>
<linearGradient id="paint1_linear_103_8367" x1="8.7085" y1="5.99693" x2="14.2085" y2="5.99693" gradientUnits="userSpaceOnUse">
<stop stop-color="#21A5B5"/>
<stop offset="1" stop-color="#71B2B4"/>
</linearGradient>
</defs>
</svg>
