<svg width="28" height="16" viewBox="0 0 28 16" fill="none" xmlns="http://www.w3.org/2000/svg">
<path d="M8.64922 4.99467C10.303 4.99467 12.0792 4.51897 12.0792 3.46977C12.0792 2.42057 10.303 1.94487 8.64922 1.94487C6.99548 1.94487 5.21923 2.42502 5.21923 3.46977C5.21923 4.51452 6.99985 4.99467 8.64922 4.99467ZM8.64922 2.80735C10.2986 2.80735 11.1648 3.28305 11.2305 3.46977C11.1648 3.65649 10.2986 4.13219 8.64922 4.13219C6.99985 4.13219 6.1161 3.6476 6.06798 3.47422C6.12485 3.29194 6.99985 2.80735 8.64922 2.80735Z" fill="#2C2C2C"/>
<path d="M27.125 1.74481H15.5225C13.8381 0.926793 11.1956 0.5 8.64936 0.5C4.45812 0.5 0 1.6559 0 3.80765V12.1924C0 14.3441 4.45812 15.5 8.64936 15.5C12.8406 15.5 17.2987 14.3441 17.2987 12.1924V11.7478H27.125C27.359 11.742 27.5816 11.6434 27.745 11.4731C27.9085 11.3028 28 11.0743 28 10.8364V2.66509C28.0023 2.42564 27.9119 2.19487 27.7481 2.02266C27.5844 1.85045 27.3605 1.75064 27.125 1.74481ZM8.67124 1.36248C13.125 1.36248 16.45 2.66509 16.45 3.80765C16.45 4.95021 13.1162 6.25282 8.64936 6.25282C4.18249 6.25282 0.848749 4.9591 0.848749 3.80765C0.848749 2.65619 4.18249 1.36248 8.64936 1.36248H8.67124ZM8.67124 14.6375C4.20437 14.6375 0.870624 13.3483 0.870624 12.1924V5.29698C2.34062 6.484 5.56499 7.11085 8.64936 7.11085C11.7337 7.11085 14.9581 6.484 16.45 5.29698V12.1924C16.45 13.3349 13.125 14.6375 8.64936 14.6375H8.67124ZM27.1731 10.832C27.1731 10.8449 27.168 10.8574 27.159 10.8665C27.15 10.8757 27.1377 10.8809 27.125 10.8809H17.2987V3.80765C17.2925 3.58202 17.2425 3.35986 17.1517 3.15388C17.0609 2.9479 16.9309 2.76216 16.7693 2.60729H18.8825V6.47066C18.8663 6.53621 18.8651 6.60465 18.8788 6.67077C18.8926 6.73689 18.921 6.79895 18.9619 6.85223C19.0028 6.90551 19.0552 6.94862 19.1149 6.97826C19.1747 7.00791 19.2403 7.02331 19.3068 7.02331C19.3734 7.02331 19.439 7.00791 19.4988 6.97826C19.5585 6.94862 19.6108 6.90551 19.6518 6.85223C19.6927 6.79895 19.7211 6.73689 19.7349 6.67077C19.7486 6.60465 19.7474 6.53621 19.7312 6.47066V2.60729H21.6518V6.47066C21.6755 6.56679 21.7302 6.65211 21.8071 6.71308C21.884 6.77404 21.9787 6.80716 22.0762 6.80716C22.1737 6.80716 22.2685 6.77404 22.3454 6.71308C22.4222 6.65211 22.4769 6.56679 22.5006 6.47066V2.60729H24.4256V6.47066C24.4493 6.56679 24.5039 6.65211 24.5808 6.71308C24.6577 6.77404 24.7524 6.80716 24.85 6.80716C24.9475 6.80716 25.0422 6.77404 25.1191 6.71308C25.196 6.65211 25.2506 6.56679 25.2743 6.47066V2.60729H27.125C27.1377 2.60729 27.15 2.61244 27.159 2.62161C27.168 2.63079 27.1731 2.64322 27.1731 2.65619V10.832Z" fill="#2C2C2C"/>
</svg>
