<svg width="22" height="24" viewBox="0 0 22 24" fill="none" xmlns="http://www.w3.org/2000/svg">
<path fill-rule="evenodd" clip-rule="evenodd" d="M7.60963 1.98888C7.34676 2.42581 7.0657 2.92192 6.79922 3.44754C6.22665 4.57693 5.74256 5.80202 5.62591 6.85306C5.50048 7.98331 5.75189 8.8505 6.05609 9.79068C6.07405 9.84619 6.09222 9.902 6.1105 9.95816C6.40105 10.8508 6.7204 11.8318 6.69275 13.0851C6.66166 14.494 6.08776 15.9583 5.62376 17.1423C5.60691 17.1853 5.5902 17.2279 5.57367 17.2702C5.33033 17.892 5.12786 18.4211 5.02526 18.8562C4.91663 19.317 4.95851 19.5245 5.01605 19.6092C5.31378 20.0472 5.68579 20.2241 6.19063 20.3746C6.2961 20.4061 6.41165 20.4369 6.53473 20.4698C6.98119 20.589 7.52672 20.7346 8.04961 21.0312C8.61192 21.3501 9.04118 21.7896 9.39141 22.1482C9.48857 22.2476 9.57966 22.3409 9.66581 22.4236C10.0785 22.8198 10.4374 23.0591 11.0026 23.0591C11.5678 23.0591 11.9267 22.8198 12.3393 22.4236C12.4255 22.3409 12.5166 22.2476 12.6137 22.1482C12.964 21.7896 13.3932 21.3501 13.9555 21.0312C14.4784 20.7346 15.024 20.589 15.4704 20.4698C15.5935 20.4369 15.709 20.4061 15.8145 20.3746C16.3194 20.2241 16.6914 20.0472 16.9891 19.6092C17.0431 19.5297 17.084 19.3276 16.9662 18.864C16.8554 18.4275 16.643 17.8986 16.3917 17.2744L16.379 17.2428C15.895 16.0407 15.2853 14.5264 15.3124 13.0663C15.3367 11.7539 15.7677 10.7633 16.1587 9.86451C16.1749 9.82727 16.1911 9.79018 16.2071 9.75323C16.6118 8.82074 16.9584 7.96896 16.9089 6.82199C16.8664 5.83785 16.5053 4.67513 16.0478 3.57994C15.8549 3.11818 15.6479 2.67535 15.4464 2.27175C15.4123 2.75006 15.3148 3.25199 15.1087 3.72189C14.8697 4.2664 14.4828 4.77176 13.8838 5.13683C13.2874 5.50026 12.5143 5.70433 11.5346 5.70433C10.5201 5.70433 9.7272 5.4854 9.12312 5.09783C8.51683 4.70884 8.13794 4.17378 7.91228 3.60624C7.70162 3.07643 7.62163 2.51159 7.60963 1.98888ZM8.31789 0.0483949C8.50847 0.129214 8.73618 0.35704 8.67537 0.689566C8.55369 1.35493 8.46248 2.40409 8.80434 3.26387C8.97043 3.68156 9.23513 4.04591 9.64678 4.31002C10.0606 4.57554 10.66 4.76341 11.5346 4.76341C12.3794 4.76341 12.9674 4.58807 13.379 4.33724C13.7879 4.08804 14.0559 3.74429 14.2292 3.3494C14.586 2.53625 14.5312 1.52671 14.4178 0.827933C14.3602 0.473057 14.6231 0.255061 14.8052 0.186263C14.9878 0.117271 15.3502 0.10488 15.5405 0.434112C15.9056 1.06604 16.4589 2.08584 16.9338 3.2227C17.4052 4.35129 17.8162 5.63428 17.8658 6.78214C17.9251 8.15799 17.4969 9.18028 17.0881 10.1223C17.0767 10.1484 17.0654 10.1745 17.0541 10.2005C16.6564 11.1159 16.2908 11.9575 16.2699 13.0834C16.2468 14.3335 16.7798 15.68 17.2823 16.9284L17.2957 16.9615C17.5341 17.5537 17.7682 18.1353 17.8955 18.6362C18.0182 19.1194 18.0871 19.688 17.7856 20.1316C17.3093 20.8325 16.6887 21.0973 16.0926 21.275C15.9392 21.3208 15.7924 21.3602 15.6502 21.3984C15.2245 21.5128 14.8392 21.6164 14.4344 21.846C14.0013 22.0917 13.6988 22.4003 13.3645 22.7412C13.2516 22.8563 13.1351 22.9752 13.0087 23.0965C12.5242 23.5618 11.9357 24 11.0026 24C10.0694 24 9.48096 23.5618 8.99642 23.0965C8.87003 22.9752 8.75351 22.8563 8.6406 22.7412C8.30637 22.4003 8.00381 22.0917 7.57077 21.846C7.16592 21.6164 6.78061 21.5128 6.35491 21.3984C6.2127 21.3602 6.06599 21.3208 5.91253 21.275C5.31646 21.0973 4.69585 20.8325 4.21957 20.1316C3.92154 19.6931 3.97765 19.13 4.09225 18.6439C4.21289 18.1322 4.44265 17.5384 4.67974 16.9325L4.70489 16.8683C5.1872 15.6361 5.70787 14.3059 5.73526 13.0647C5.75935 11.9726 5.48467 11.1268 5.19092 10.2223C5.17511 10.1736 5.15925 10.1248 5.14338 10.0757C4.83332 9.11743 4.52528 8.08966 4.67384 6.75107C4.80906 5.53263 5.3539 4.18798 5.94196 3.02804C6.53447 1.85932 7.19241 0.836898 7.58797 0.253807C7.78708 -0.039708 8.12575 -0.0330831 8.31789 0.0483949Z" fill="#2C2C2C"/>
</svg>
