<svg width="23" height="16" viewBox="0 0 23 16" fill="none" xmlns="http://www.w3.org/2000/svg">
<path d="M21.8443 9.18943H15.9983V12.0639H16.9785C17.4336 11.4692 18.1337 11.0727 18.9388 11.0727C19.709 11.0727 20.4091 11.4361 20.8642 12.0639H21.8443V9.18943ZM16.5934 13.1542H8.99718C9.06719 14.4097 8.01702 15.5 6.68679 15.5C5.32157 15.5 4.27139 14.4097 4.3414 13.1542H1.43592C1.12087 13.1542 0.84082 12.9229 0.84082 12.5925V1.06167C0.84082 0.731278 1.12087 0.5 1.43592 0.5H15.4383C15.7533 0.5 15.9983 0.731278 15.9983 1.06167V3.80396L18.8688 3.77093C19.0789 3.77093 19.2539 3.837 19.3939 4.0022L22.8595 8.29736C22.9645 8.36344 22.9995 8.49559 22.9995 8.66079V12.5925C22.9995 12.9229 22.7545 13.1542 22.4044 13.1542H21.2492C21.3192 14.4097 20.2691 15.5 18.9388 15.5C17.5736 15.5 16.5234 14.4097 16.5934 13.1542ZM18.9388 12.196C18.2737 12.196 17.7486 12.6916 17.7486 13.2863C17.7486 13.8811 18.2737 14.3767 18.9388 14.3767C19.5689 14.3767 20.094 13.9141 20.094 13.2863C20.094 12.6916 19.5689 12.196 18.9388 12.196ZM8.61211 12.0639H14.8432V4.36564V1.59031H1.99601V12.0639H4.76147C5.18154 11.4692 5.88166 11.0727 6.68679 11.0727C7.45692 11.0727 8.19204 11.4692 8.61211 12.0639ZM6.68679 12.196C6.02168 12.196 5.4966 12.6916 5.4966 13.2863C5.4966 13.9141 6.02168 14.3767 6.68679 14.3767C7.3169 14.3767 7.84199 13.9141 7.84199 13.2863C7.84199 12.6916 7.3169 12.196 6.68679 12.196ZM15.9983 4.89427V8.09912H21.2492L18.6238 4.86123L15.9983 4.89427Z" fill="#2C2C2C"/>
</svg>
