<svg width="22" height="22" viewBox="0 0 22 22" fill="none" xmlns="http://www.w3.org/2000/svg">
<path d="M20.5653 0H1.43479C1.0544 0.000401282 0.689703 0.151682 0.420717 0.42065C0.151732 0.689617 0.000426643 1.0543 0 1.43469V15.7819C0.000426643 16.1623 0.151732 16.527 0.420717 16.7959C0.689703 17.0649 1.0544 17.2162 1.43479 17.2166H12.2264L12.0238 20.9449C12.0099 21.1434 12.056 21.3416 12.1561 21.5137C12.2562 21.6858 12.4057 21.8237 12.5853 21.9098C12.7531 21.9904 12.9416 22.0179 13.1256 21.9886C13.3095 21.9593 13.4801 21.8746 13.6146 21.7458L15.4852 20.0108C15.5645 19.9327 15.6714 19.8889 15.7827 19.8889C15.894 19.8889 16.0009 19.9327 16.0802 20.0108L17.9508 21.7458C18.0853 21.8746 18.2559 21.9592 18.4398 21.9885C18.6237 22.0178 18.8122 21.9903 18.9801 21.9098C19.1596 21.8238 19.3091 21.6859 19.4092 21.5139C19.5093 21.3419 19.5554 21.1439 19.5416 20.9454L19.339 17.2166H20.5653C20.9457 17.2162 21.3104 17.0649 21.5794 16.7959C21.8484 16.527 21.9997 16.1623 22.0001 15.7819V1.43469C21.9997 1.0543 21.8484 0.689617 21.5794 0.42065C21.3104 0.151682 20.9457 0.000401282 20.5653 0ZM15.7827 15.7819C15.1206 15.7818 14.4734 15.5855 13.9229 15.2176C13.3724 14.8497 12.9433 14.3269 12.69 13.7152C12.4366 13.1035 12.3703 12.4304 12.4995 11.781C12.6287 11.1316 12.9476 10.5352 13.4157 10.067C13.8839 9.59882 14.4804 9.28 15.1298 9.15084C15.7792 9.02168 16.4523 9.08798 17.064 9.34136C17.6757 9.59474 18.1985 10.0238 18.5663 10.5743C18.9342 11.1248 19.1305 11.7721 19.1305 12.4342C19.1294 13.3217 18.7764 14.1726 18.1488 14.8002C17.5211 15.4278 16.6702 15.7808 15.7827 15.7819ZM18.585 21.0294L16.7303 19.3094C16.4737 19.0682 16.1348 18.9339 15.7827 18.9339C15.4305 18.9339 15.0916 19.0682 14.8351 19.3094L12.992 21.0443C12.992 21.0443 12.9766 21.0359 12.9785 20.9977L13.2548 15.9104C13.9879 16.4483 14.8734 16.7384 15.7827 16.7384C16.6919 16.7384 17.5775 16.4483 18.3105 15.9104L18.5869 20.9981C18.5872 21.0086 18.5866 21.0191 18.585 21.0294ZM21.0436 15.7819C21.0435 15.9087 20.9931 16.0303 20.9034 16.1199C20.8137 16.2096 20.6921 16.26 20.5653 16.2601H19.2871L19.2194 15.0149C19.7013 14.3759 19.9955 13.6152 20.0689 12.8183C20.1424 12.0213 19.9922 11.2197 19.6352 10.5033C19.2782 9.78703 18.7286 9.18443 18.0481 8.76322C17.3676 8.34201 16.5831 8.11887 15.7827 8.11886C14.9824 8.11886 14.1979 8.34198 13.5174 8.76319C12.8368 9.18439 12.2872 9.78698 11.9302 10.5033C11.5732 11.2196 11.423 12.0212 11.4965 12.8182C11.5699 13.6152 11.8641 14.3759 12.3459 15.0149L12.2783 16.2601H1.43479C1.30798 16.26 1.18638 16.2096 1.09671 16.1199C1.00703 16.0303 0.956615 15.9087 0.956527 15.7819V1.43469C0.956615 1.30788 1.00703 1.18629 1.09671 1.09663C1.18638 1.00696 1.30798 0.956555 1.43479 0.956479H20.5653C20.6921 0.956555 20.8137 1.00696 20.9034 1.09663C20.9931 1.18629 21.0435 1.30788 21.0436 1.43469V15.7819ZM18.0937 13.1254C18.1612 13.2309 18.1845 13.3587 18.1588 13.4813C18.1331 13.6039 18.0603 13.7116 17.956 13.7811C17.8518 13.8505 17.7244 13.8764 17.6014 13.853C17.4783 13.8296 17.3693 13.7588 17.2978 13.6559L16.4197 12.3394L15.5417 13.6559C15.4975 13.7208 15.4382 13.7738 15.3688 13.8105C15.2995 13.8472 15.2222 13.8663 15.1438 13.8663C15.0653 13.8663 14.988 13.8472 14.9187 13.8105C14.8493 13.7738 14.79 13.7208 14.7458 13.6559L13.4717 11.743C13.4043 11.6375 13.381 11.5097 13.4067 11.3872C13.4325 11.2646 13.5053 11.157 13.6095 11.0876C13.7137 11.0181 13.841 10.9922 13.964 11.0156C14.0871 11.039 14.196 11.1096 14.2676 11.2125L15.1442 12.5285L16.0218 11.2125C16.068 11.1505 16.1281 11.1002 16.1972 11.0655C16.2662 11.0308 16.3425 11.0128 16.4198 11.0128C16.4971 11.0128 16.5733 11.0308 16.6424 11.0655C16.7115 11.1002 16.7715 11.1505 16.8177 11.2125L18.0937 13.1254ZM19.6088 5.26061C19.6088 5.32342 19.5965 5.38563 19.5725 5.44367C19.5484 5.50171 19.5132 5.55445 19.4688 5.59887C19.4244 5.64328 19.3716 5.67851 19.3136 5.70254C19.2556 5.72656 19.1933 5.73891 19.1305 5.73887H2.86958C2.80637 5.7395 2.74367 5.7276 2.68509 5.70385C2.62652 5.6801 2.57323 5.64497 2.52831 5.6005C2.48339 5.55603 2.44773 5.5031 2.4234 5.44476C2.39906 5.38642 2.38653 5.32384 2.38653 5.26063C2.38653 5.19742 2.39906 5.13484 2.4234 5.07651C2.44773 5.01817 2.48339 4.96523 2.52831 4.92076C2.57323 4.87629 2.62652 4.84117 2.68509 4.81742C2.74367 4.79366 2.80637 4.78176 2.86958 4.78239H19.1305C19.1933 4.78235 19.2555 4.7947 19.3136 4.81872C19.3716 4.84273 19.4244 4.87796 19.4688 4.92237C19.5132 4.96678 19.5484 5.01952 19.5725 5.07755C19.5965 5.13559 19.6088 5.1978 19.6088 5.26061ZM9.89546 13.1693C9.66071 13.3219 9.38374 13.3963 9.10415 13.3819C8.82456 13.3676 8.55667 13.2652 8.33876 13.0894C8.27921 13.0395 8.20846 13.0047 8.13255 12.9881C8.05664 12.9714 7.97783 12.9734 7.90284 12.9938C7.82785 13.0142 7.75892 13.0525 7.70194 13.1053C7.64495 13.1582 7.6016 13.224 7.57559 13.2972C7.53926 13.3792 7.48084 13.4495 7.40685 13.5001C7.33287 13.5508 7.24624 13.5798 7.15668 13.584C7.06672 13.5767 6.98102 13.5425 6.91073 13.4859C6.84043 13.4293 6.78877 13.3528 6.76245 13.2665C6.73364 13.1537 6.66455 13.0554 6.56823 12.9901C6.4719 12.9247 6.355 12.8969 6.23957 12.9118C6.12414 12.9268 6.01816 12.9834 5.94163 13.0711C5.8651 13.1588 5.82331 13.2715 5.82415 13.3879C5.61094 13.6332 5.08953 13.5557 4.80411 13.3879C5.49181 12.834 5.97504 12.0664 6.17725 11.2069C6.20859 11.0022 6.18791 10.793 6.1171 10.5984C6.04629 10.4039 5.92763 10.2303 5.77208 10.0937C5.61652 9.95707 5.42907 9.86182 5.22701 9.81672C5.02495 9.77162 4.81479 9.77812 4.61591 9.83563C3.28849 10.2213 2.72849 12.051 3.36841 13.2305C2.98919 13.4953 2.13918 13.4873 2.30255 14.1375C2.6106 14.8682 3.51213 14.1949 3.98398 13.9815C4.29638 14.2619 4.68922 14.4368 5.10668 14.4812C5.52415 14.5257 5.945 14.4374 6.30944 14.229C6.53929 14.417 6.82361 14.5259 7.12024 14.5396C7.13707 14.5405 7.15386 14.5405 7.17022 14.5405C7.35677 14.5385 7.54106 14.4994 7.7124 14.4255C7.88373 14.3517 8.0387 14.2446 8.16831 14.1104C8.52787 14.2838 8.92636 14.3608 9.32464 14.3336C9.72292 14.3065 10.1073 14.1763 10.4401 13.9558C10.4919 13.9201 10.5362 13.8745 10.5704 13.8217C10.6046 13.7689 10.628 13.7098 10.6393 13.648C10.6507 13.5861 10.6497 13.5225 10.6364 13.461C10.6232 13.3995 10.5979 13.3412 10.5621 13.2895C10.5263 13.2378 10.4806 13.1936 10.4277 13.1595C10.3747 13.1255 10.3156 13.1022 10.2537 13.0911C10.1918 13.0799 10.1283 13.0811 10.0668 13.0945C10.0053 13.1079 9.94709 13.1333 9.89546 13.1693ZM4.16519 12.677C3.89392 12.0002 4.16089 10.9088 4.95916 10.7482C5.7955 10.8985 4.49285 12.4299 4.16519 12.677Z" fill="#2C2C2C"/>
</svg>
