<svg width="22" height="22" viewBox="0 0 22 22" fill="none" xmlns="http://www.w3.org/2000/svg">
<path d="M11.0002 18C8.2431 18 6 15.7006 6 12.8745C6 10.2319 10.1134 4.81624 10.5824 4.20752C10.6833 4.07657 10.8373 4 11 4C11.1627 4 11.3167 4.07639 11.4176 4.20752C11.8867 4.81643 16 10.2319 16 12.8745C16.0002 15.7006 13.7573 18 11.0002 18ZM11.0002 5.43988C9.60798 7.333 7.06451 11.1487 7.06451 12.8745C7.06451 15.099 8.83 16.9088 11.0002 16.9088C13.1704 16.9088 14.9358 15.0991 14.9358 12.8745C14.9357 11.1487 12.3922 7.333 11.0002 5.43988Z" fill="#2C2C2C"/>
<path d="M11.0001 15.8184C10.7061 15.8184 10.4679 15.5742 10.4679 15.2728C10.4679 14.9714 10.7061 14.7272 11.0001 14.7272C11.9965 14.7272 12.8073 13.8964 12.8073 12.8752C12.8073 12.5738 13.0456 12.3295 13.3395 12.3295C13.6335 12.3295 13.8718 12.5738 13.8718 12.8752C13.8716 14.498 12.5834 15.8184 11.0001 15.8184Z" fill="#2C2C2C"/>
<path fill-rule="evenodd" clip-rule="evenodd" d="M11 21C16.5228 21 21 16.5228 21 11C21 5.47715 16.5228 1 11 1C5.47715 1 1 5.47715 1 11C1 16.5228 5.47715 21 11 21ZM11 22C17.0751 22 22 17.0751 22 11C22 4.92487 17.0751 0 11 0C4.92487 0 0 4.92487 0 11C0 17.0751 4.92487 22 11 22Z" fill="#2C2C2C"/>
</svg>
