<svg width="265" height="23" viewBox="0 0 265 23" fill="none" xmlns="http://www.w3.org/2000/svg">
<path d="M1 22L10.9464 11.5C16.3504 5.79527 25.4353 5.79526 30.8393 11.5V11.5C36.2433 17.2047 45.3282 17.2047 50.7322 11.5V11.5C56.1362 5.79526 65.2211 5.79526 70.6251 11.5V11.5C76.0291 17.2047 85.114 17.2047 90.518 11.5V11.5C95.922 5.79526 105.007 5.79526 110.411 11.5V11.5C115.815 17.2047 124.902 17.2024 130.306 11.4976V11.4976C135.708 5.79547 144.791 5.79309 150.192 11.4952V11.4952C155.597 17.201 164.746 17.1321 170.146 11.4215V11.4215C175.51 5.74856 184.559 5.55908 190.08 11.0798L190.647 11.6469C196.365 17.3647 205.708 17.2918 211.426 11.5739V11.5739C217.225 5.77496 226.701 5.70101 232.5 11.5V11.5C238.299 17.299 247.701 17.299 253.5 11.5L264 1" stroke="#2C2C2C"/>
</svg>
