<svg width="154" height="23" viewBox="0 0 154 23" fill="none" xmlns="http://www.w3.org/2000/svg">
<path d="M1 22L9.44614 11.5C13.7851 6.10595 21.9995 6.10595 26.3384 11.5V11.5C30.6774 16.894 38.8918 16.894 43.2307 11.5V11.5C47.5696 6.10595 55.7841 6.10595 60.123 11.5V11.5C64.4619 16.894 72.6763 16.894 77.0153 11.5V11.5C81.3542 6.10595 89.5686 6.10595 93.9076 11.5V11.5C98.2465 16.894 106.463 16.8917 110.802 11.4976V11.4976C115.139 6.10602 123.351 6.10364 127.688 11.4952V11.4952C132.028 16.8899 140.244 16.8863 144.579 11.4878L153 1" stroke="#2C2C2C"/>
</svg>
